{
.appVersion = "3314";
.formatVersion = 3;
DisplayStrings = (
wrap,
"∞",
"π‖₨₪₮₸",
"₺",
"₮",
"‖",
"₸",
"₦",
"π",
"π₽",
"₺₪",
$,
"₪"
);
axes = (
{
default = 400;
name = Weight;
tag = wght;
}
);
classes = (
{
automatic = 1;

glyphs = (
{
color = 6;
glyphname = A;
kernLeft = A;
kernRight = A;
lastChange = "2024-08-23 07:24:36 +0000";
layers = (
{
anchors = (
{
name = bottom;
pos = (217,0);
},
{
name = center;
pos = (432,318);
},
{
name = ogonek;
pos = (454,-10);
},
{
name = top;
pos = (528,720);
}
);
background = {
anchors = (
{
name = ogonek;
pos = (460,-10);
}
);
shapes = (
{
closed = 1;
nodes = (
(67,31,o),
(128,157,o),
(191,273,c),
(232,268,o),
(280,262,o),
(339,253,c),
(328,198,o),
(322,147,o),
(322,104,cs),
(322,23,o),
(345,-30,o),
(400,-30,cs),
(466,-30,o),
(533,45,o),
(573,152,c),
(563,162,l),
(511,61,o),
(467,14,o),
(432,14,cs),
(405,14,o),
(395,43,o),
(395,94,cs),
(395,269,o),
(511,656,o),
(551,688,c),
(531,708,o),
(512,720,o),
(498,720,cs),
(485,720,o),
(470,711,o),
(450,692,cs),
(388,634,o),
(270,481,o),
(168,328,c),
(142,332,o),
(118,335,o),
(96,335,cs),
(45,335,o),
(6,321,o),
(-8,283,c),
(27,283,ls),
(52,283,o),
(86,282,o),
(135,278,c),
(50,145,o),
(-17,20,o),
(-17,-35,cs),
(-17,-48,o),
(-13,-70,o),
(17,-87,c)
);
},
{
closed = 1;
nodes = (
(308,297,o),
(262,309,o),
(217,319,c),
(310,485,o),
(404,619,o),
(466,657,c),
(425,565,o),
(375,420,o),
(346,288,c)
);
}
);
};
layerId = master01;
shapes = (
{
closed = 1;
nodes = (
(67,31,o),
(128,157,o),
(191,273,c),
(232,268,o),
(280,262,o),
(339,253,c),
(328,198,o),
(322,147,o),
(322,104,cs),
(322,23,o),
(345,-30,o),
(400,-30,cs),
(466,-30,o),
(533,45,o),
(573,152,c),
(563,162,l),
(511,61,o),
(467,14,o),
(432,14,cs),
(405,14,o),
(395,43,o),
(395,94,cs),
(395,269,o),
(511,656,o),
(551,688,c),
(531,708,o),
(512,720,o),
(498,720,cs),
(485,720,o),
(470,711,o),
(450,692,cs),
(388,634,o),
(270,481,o),
(168,328,c),
(142,332,o),
(118,335,o),
(96,335,cs),
(45,335,o),
(6,321,o),
(-8,283,c),
(27,283,ls),
(52,283,o),
(86,282,o),
(135,278,c),
(50,145,o),
(-17,20,o),
(-17,-35,cs),
(-17,-48,o),
(-13,-70,o),
(17,-87,c)
);
},
{
closed = 1;
nodes = (
(308,297,o),
(262,309,o),
(217,319,c),
(310,485,o),
(404,619,o),
(466,657,c),
(425,565,o),
(375,420,o),
(346,288,c)
);
}
);
userData = {
com.schriftgestaltung.hints = (
{
horizontal = 0;
options = 0;
place = (
322,
73
);
stem = -2;
},
{
horizontal = 1;
options = 0;
place = (
-30,
44
);
stem = -2;
},
{
horizontal = 1;
options = 0;
place = (
283,
52
);
stem = -2;
},
{
horizontal = 1;
options = 0;
place = (
-87,
21
);
stem = -2;
target = (
u,
p
);
type = BottomGhost;
},
{
horizontal = 1;
options = 0;
place = (
720,
-20
);
stem = -2;
target = (
d,
o,
w,
n
);
type = TopGhost;
}
);
};
width = 592;
},
{
anchors = (
{
name = bottom;
pos = (257,0);
},
{
name = center;
pos = (496,318);
},
{
name = ogonek;
pos = (508,0);
},
{
name = top;
pos = (568,720);
}
);
background = {
anchors = (
{
name = ogonek;
pos = (518,0);
}
);
shapes = (
{
closed = 1;
nodes = (
(97,31,o),
(158,156,o),
(222,269,c),
(263,264,o),
(306,259,o),
(365,250,c),
(355,192,o),
(352,157,o),
(352,126,cs),
(352,30,o),
(376,-29,o),
(440,-29,cs),
(514,-29,o),
(584,49,o),
(626,159,c),
(608,178,l),
(552,72,o),
(506,29,o),
(475,29,cs),
(450,29,o),
(440,55,o),
(440,108,cs),
(440,279,o),
(555,652,o),
(596,683,c),
(571,706,o),
(547,722,o),
(528,722,cs),
(514,722,o),
(489,705,o),
(458,674,cs),
(390,608,o),
(290,482,o),
(190,338,c),
(163,341,o),
(139,344,o),
(116,344,cs),
(61,344,o),
(18,327,o),
(0,279,c),
(16,279,ls),
(75,279,o),
(106,278,o),
(147,275,c),
(63,146,o),
(0,28,o),
(0,-25,cs),
(0,-41,o),
(6,-66,o),
(46,-87,c)
);
},
{
closed = 1;
nodes = (
(334,308,o),
(294,318,o),
(254,326,c),
(337,469,o),
(420,586,o),
(481,634,c),
(443,545,o),
(400,417,o),
(375,299,c)
);
}
);
};
layerId = master02;
shapes = (
{
closed = 1;
nodes = (
(97,31,o),
(158,156,o),
(222,269,c),
(263,264,o),
(306,259,o),
(365,250,c),
(355,192,o),
(352,157,o),
(352,126,cs),
(352,30,o),
(376,-29,o),
(440,-29,cs),
(514,-29,o),
(584,49,o),
(626,159,c),
(608,178,l),
(552,72,o),
(506,29,o),
(475,29,cs),
(450,29,o),
(440,55,o),
(440,108,cs),
(440,279,o),
(555,652,o),
(596,683,c),
(571,706,o),
(547,722,o),
(528,722,cs),
(514,722,o),
(489,705,o),
(458,674,cs),
(390,608,o),
(290,482,o),
(190,338,c),
(163,341,o),
(139,344,o),
(116,344,cs),
(61,344,o),
(18,327,o),
(0,279,c),
(16,279,ls),
(75,279,o),
(106,278,o),
(147,275,c),
(63,146,o),
(0,28,o),
(0,-25,cs),
(0,-41,o),
(6,-66,o),
(46,-87,c)
);
},
{
closed = 1;
nodes = (
(334,308,o),
(294,318,o),
(254,326,c),
(337,469,o),
(420,586,o),
(481,634,c),
(443,545,o),
(400,417,o),
(375,299,c)
);
}
);
userData = {
com.schriftgestaltung.hints = (
{
horizontal = 0;
options = 0;
place = (
352,
88
);
stem = -2;
},
{
horizontal = 1;
options = 0;
place = (
-29,
58
);
stem = -2;
},
{
horizontal = 1;
options = 0;
place = (
279,
65
);
stem = -2;
},
{
horizontal = 1;
options = 0;
place = (
-87,
21
);
stem = -2;
target = (
u,
p
);
type = BottomGhost;
},
{
horizontal = 1;
options = 0;
place = (
722,
-20
);
stem = -2;
target = (
d,
o,
w,
n
);
type = TopGhost;
}
);
};
width = 631;
}
);
unicode = 65;
},
{
color = 4;
glyphname = "Alpha-latin";
lastChange = "2024-08-22 18:09:41 +0000";
layers = (
{
anchors = (
{
name = bottom;
pos = (156,-72);
},
{
name = top;
pos = (484,715);
}
);
background = {
shapes = (
{
closed = 1;
nodes = (
(261,-87,o),
(338,-40,o),
(414,98,c),
(411,74,o),
(410,62,o),
(410,42,cs),
(410,-54,o),
(434,-98,o),
(488,-98,cs),
(510,-98,o),
(530,-91,o),
(557,-75,c),
(472,-75,o),
(477,15,o),
(477,42,cs),
(477,201,o),
(573,511,o),
(651,678,c),
(632,698,o),
(618,709,o),
(605,709,cs),
(538,709,o),
(498,430,o),
(442,250,cs),
(369,16,o),
(273,-38,o),
(203,-38,cs),
(122,-38,o),
(107,35,o),
(107,86,cs),
(107,269,o),
(296,689,o),
(458,689,cs),
(505,689,o),
(546,654,o),
(546,566,c),
(570,584,l),
(564,675,o),
(530,719,o),
(466,719,cs),
(257,719,o),
(22,331,o),
(22,87,cs),
(22,-31,o),
(77,-87,o),
(173,-87,cs)
);
}
);
};
layerId = master01;
shapes = (
{
closed = 1;
nodes = (
(250,-87,o),
(334,-41,o),
(414,98,c),
(411,74,o),
(410,62,o),
(410,42,cs),
(410,-54,o),
(434,-98,o),
(488,-98,cs),
(510,-98,o),
(530,-91,o),
(557,-75,c),
(472,-75,o),
(477,15,o),
(477,42,cs),
(477,201,o),
(573,521,o),
(651,678,c),
(632,698,o),
(618,709,o),
(605,709,cs),
(538,709,o),
(498,431,o),
(442,250,cs),
(368,13,o),
(261,-37,o),
(197,-37,cs),
(121,-37,o),
(107,34,o),
(107,93,cs),
(107,302,o),
(280,689,o),
(454,689,cs),
(506,689,o),
(546,654,o),
(546,566,c),
(570,584,l),
(563,680,o),
(531,719,o),
(460,719,cs),
(244,719,o),
(22,364,o),
(22,98,cs),
(22,-30,o),
(74,-87,o),
(168,-87,cs)
);
}
);
width = 554;
},
{
anchors = (
{
name = bottom;
pos = (156,-72);
},
{
name = top;
pos = (484,715);
}
);
background = {
shapes = (
{
closed = 1;
nodes = (
(246,-87,o),
(330,-41,o),
(410,98,c),
(407,74,o),
(406,62,o),
(406,42,cs),
(406,-54,o),
(430,-98,o),
(484,-98,cs),
(506,-98,o),
(526,-91,o),
(553,-75,c),
(468,-75,o),
(473,15,o),
(473,42,cs),
(473,201,o),
(569,521,o),
(647,678,c),
(628,698,o),
(614,709,o),
(601,709,cs),
(534,709,o),
(494,431,o),
(438,250,cs),
(364,13,o),
(257,-37,o),
(193,-37,cs),
(117,-37,o),
(103,34,o),
(103,93,cs),
(103,302,o),
(276,689,o),
(450,689,cs),
(502,689,o),
(542,654,o),
(542,566,c),
(566,584,l),
(559,680,o),
(527,719,o),
(456,719,cs),
(240,719,o),
(18,364,o),
(18,98,cs),
(18,-30,o),
(70,-87,o),
(164,-87,cs)
);
}
);
};
layerId = master02;
shapes = (
{
closed = 1;
nodes = (
(246,-87,o),
(330,-41,o),
(410,98,c),
(407,74,o),
(406,62,o),
(406,42,cs),
(406,-54,o),
(433,-98,o),
(495,-98,cs),
(521,-98,o),
(548,-91,o),
(575,-75,c),
(490,-75,o),
(495,15,o),
(495,42,cs),
(495,201,o),
(591,521,o),
(669,678,c),
(640,698,o),
(620,709,o),
(601,709,cs),
(534,709,o),
(494,431,o),
(438,250,cs),
(367,23,o),
(265,-25,o),
(204,-25,cs),
(137,-25,o),
(125,40,o),
(125,105,cs),
(125,305,o),
(293,675,o),
(461,675,cs),
(507,675,o),
(542,640,o),
(542,552,c),
(566,584,l),
(559,680,o),
(527,719,o),
(456,719,cs),
(240,719,o),
(18,364,o),
(18,98,cs),
(18,-30,o),
(70,-87,o),
(164,-87,cs)
);
}
);
width = 572;
},
{
associatedMasterId = master01;
background = {
shapes = (
{
closed = 1;
nodes = (
(496,-99,o),
(518,-92,o),
(543,-75,c),
(486,-75,o),
(463,-50,o),
(463,42,cs),
(463,230,o),
(613,665,o),
(647,688,c),
(628,708,o),
(608,720,o),
(597,720,cs),
(543,720,o),
(471,423,o),
(423,224,cs),
(397,117,o),
(326,-47,o),
(216,-47,cs),
(156,-47,o),
(132,3,o),
(132,65,cs),
(132,134,o),
(162,230,o),
(193,327,cs),
(224,425,o),
(255,525,o),
(255,599,cs),
(255,672,o),
(225,720,o),
(152,720,cs),
(48,720,o),
(-39,622,o),
(-39,539,cs),
(-39,501,o),
(-21,470,o),
(30,470,c),
(25,482,o),
(22,500,o),
(22,519,cs),
(22,584,o),
(56,692,o),
(128,692,cs),
(166,692,o),
(184,661,o),
(184,604,cs),
(184,454,o),
(59,178,o),
(59,49,cs),
(59,-28,o),
(103,-87,o),
(189,-87,cs),
(286,-87,o),
(355,-11,o),
(405,98,c),
(399,58,o),
(396,25,o),
(396,7,cs),
(396,-50,o),
(427,-99,o),
(477,-99,cs)
);
}
);
};
layerId = "8D71919B-D3A4-4A36-87C5-E3136CC44C45";
name = "2 Jul 24 15:30";
shapes = (
{
closed = 1;
nodes = (
(254,-87,o),
(325,-27,o),
(398,78,c),
(396,62,o),
(395,43,o),
(395,29,cs),
(395,-49,o),
(423,-98,o),
(476,-98,cs),
(496,-98,o),
(518,-90,o),
(543,-75,c),
(458,-75,o),
(463,15,o),
(463,42,cs),
(463,201,o),
(559,511,o),
(637,678,c),
(618,698,o),
(604,709,o),
(590,709,cs),
(526,709,o),
(504,461,o),
(433,250,cs),
(364,46,o),
(276,-38,o),
(196,-38,cs),
(118,-38,o),
(109,40,o),
(109,80,cs),
(109,260,o),
(286,689,o),
(445,689,cs),
(491,689,o),
(532,654,o),
(532,566,c),
(563,584,l),
(556,675,o),
(521,719,o),
(454,719,cs),
(258,719,o),
(18,340,o),
(18,96,cs),
(18,-28,o),
(80,-87,o),
(167,-87,cs)
);
}
);
width = 540;
},
{
associatedMasterId = master01;
background = {
shapes = (
{
closed = 1;
nodes = (
(510,-99,o),
(532,-92,o),
(557,-75,c),
(500,-75,o),
(477,-50,o),
(477,42,cs),
(477,230,o),
(627,665,o),
(661,688,c),
(642,708,o),
(622,720,o),
(611,720,cs),
(557,720,o),
(485,423,o),
(437,224,cs),
(411,117,o),
(340,-47,o),
(230,-47,cs),
(170,-47,o),
(146,3,o),
(146,65,cs),
(146,134,o),
(176,230,o),
(207,327,cs),
(238,425,o),
(269,525,o),
(269,599,cs),
(269,672,o),
(239,720,o),
(166,720,cs),
(62,720,o),
(-25,622,o),
(-25,539,cs),
(-25,501,o),
(-7,470,o),
(44,470,c),
(39,482,o),
(36,500,o),
(36,519,cs),
(36,584,o),
(70,692,o),
(142,692,cs),
(180,692,o),
(198,661,o),
(198,604,cs),
(198,454,o),
(73,178,o),
(73,49,cs),
(73,-28,o),
(117,-87,o),
(203,-87,cs),
(300,-87,o),
(369,-11,o),
(419,98,c),
(413,58,o),
(410,25,o),
(410,7,cs),
(410,-50,o),
(441,-99,o),
(491,-99,cs)
);
}
);
};
layerId = "59DDB9A6-C2D8-4CD6-A0F8-6056DEFA1BAF";
name = "24 Jul 24, 3:23 PM";
shapes = (
{
closed = 1;
nodes = (
(261,-87,o),
(338,-40,o),
(414,98,c),
(411,74,o),
(410,62,o),
(410,42,cs),
(410,-54,o),
(434,-98,o),
(488,-98,cs),
(510,-98,o),
(530,-91,o),
(557,-75,c),
(472,-75,o),
(477,15,o),
(477,42,cs),
(477,201,o),
(573,511,o),
(651,678,c),
(632,698,o),
(618,709,o),
(605,709,cs),
(538,709,o),
(498,430,o),
(442,250,cs),
(369,16,o),
(273,-38,o),
(203,-38,cs),
(122,-38,o),
(107,35,o),
(107,86,cs),
(107,269,o),
(296,689,o),
(458,689,cs),
(505,689,o),
(546,654,o),
(546,566,c),
(570,584,l),
(564,675,o),
(530,719,o),
(466,719,cs),
(257,719,o),
(22,331,o),
(22,87,cs),
(22,-31,o),
(77,-87,o),
(173,-87,cs)
);
}
);
width = 554;
}
);
unicode = 11373;
},
{
color = 7;
glyphname = Astroke;
lastChange = "2024-08-23 05:09:05 +0000";
layers = (
{
background = {
shapes = (
{
closed = 1;
nodes = (
(-130,-30,o),
(-97,-36,o),
(-62,-22,cs),
(-13,0,o),
(31,17,o),
(76,47,cs),
(709,464,l),
(704,466,o),
(699,468,o),
(694,470,cs),
(665,481,o),
(627,482,o),
(609,469,cs),
(387,328,o),
(149,147,o),
(-88,20,cs),
(-121,3,o),
(-148,-8,o),
(-168,-13,c),
(-164,-15,o),
(-159,-17,o),
(-153,-20,cs)
);
}
);
};
layerId = master01;
shapes = (
{
ref = A;
},
{
pos = (278,34);
ref = UCdiagonalstroke_part;
}
);
width = 592;
},
{
background = {
shapes = (
{
closed = 1;
nodes = (
(-93,-12,o),
(-59,-16,o),
(-22,-5,cs),
(32,9,o),
(97,46,o),
(124,65,cs),
(750,499,l),
(735,507,o),
(730,510,o),
(724,512,cs),
(695,522,o),
(652,523,o),
(638,512,cs),
(434,354,o),
(216,182,o),
(-51,43,cs),
(-80,28,o),
(-118,20,o),
(-149,13,c),
(-135,5,o),
(-125,-1,o),
(-115,-5,cs)
);
}
);
};
layerId = master02;
shapes = (
{
ref = A;
},
{
pos = (311,34);
ref = UCdiagonalstroke_part;
}
);
width = 631;
}
);
unicode = 570;
},
{
color = 6;
glyphname = AE;
kernLeft = A;
kernRight = AE;
lastChange = "2024-08-23 05:09:21 +0000";
layers = (
{
anchors = (
{
name = bottom;
pos = (223,20);
},
{
name = top;
pos = (539,735);
}
);
layerId = master01;
shapes = (
{
closed = 1;
nodes = (
(67,31,o),
(128,157,o),
(191,273,c),
(232,268,o),
(280,262,o),
(339,253,c),
(328,198,o),
(322,147,o),
(322,104,cs),
(322,54,o),
(331,11,o),
(351,-9,c),
(389,-13,o),
(445,-13,o),
(500,-13,cs),
(581,-13,o),
(659,-7,o),
(670,23,c),
(625,34,o),
(482,40,o),
(398,53,c),
(396,64,o),
(395,78,o),
(395,94,cs),
(395,161,o),
(412,259,o),
(435,357,c),
(449,356,o),
(465,356,o),
(488,356,cs),
(569,356,o),
(647,362,o),
(658,392,c),
(613,398,o),
(542,413,o),
(450,415,c),
(478,521,o),
(511,618,o),
(534,663,c),
(565,662,o),
(601,661,o),
(637,661,cs),
(718,661,o),
(796,667,o),
(807,697,c),
(751,705,o),
(605,720,o),
(498,720,cs),
(454,720,o),
(305,534,o),
(168,328,c),
(142,332,o),
(118,335,o),
(96,335,cs),
(45,335,o),
(6,321,o),
(-8,283,c),
(27,283,ls),
(52,283,o),
(86,282,o),
(135,278,c),
(50,145,o),
(-17,20,o),
(-17,-35,cs),
(-17,-48,o),
(-13,-70,o),
(17,-87,c)
);
},
{
closed = 1;
nodes = (
(308,297,o),
(262,309,o),
(217,319,c),
(310,485,o),
(404,619,o),
(466,657,c),
(425,565,o),
(375,420,o),
(346,288,c)
);
}
);
userData = {
com.schriftgestaltung.hints = (
{
horizontal = 0;
options = 0;
place = (
322,
73
);
stem = -2;
},
{
horizontal = 1;
options = 0;
place = (
283,
52
);
stem = -2;
},
{
horizontal = 1;
options = 0;
place = (
356,
59
);
stem = -2;
},
{
horizontal = 1;
options = 0;
place = (
661,
59
);
stem = -2;
},
{
horizontal = 1;
options = 0;
place = (
-87,
21
);
stem = -2;
target = (
u,
p
);
type = BottomGhost;
},
{
horizontal = 1;
options = 0;
place = (
-13,
21
);
stem = -2;
target = (
u,
p
);
type = BottomGhost;
}
);
};
width = 747;
},
{
anchors = (
{
name = bottom;
pos = (283,6);
},
{
name = top;
pos = (599,721);
}
);
layerId = master02;
shapes = (
{
closed = 1;
nodes = (
(96,31,o),
(157,156,o),
(221,269,c),
(262,264,o),
(305,259,o),
(364,250,c),
(356,206,o),
(350,164,o),
(350,126,cs),
(350,68,o),
(360,16,o),
(387,-8,c),
(429,-12,o),
(487,-12,o),
(545,-12,cs),
(632,-12,o),
(716,-4,o),
(730,36,c),
(670,51,o),
(530,54,o),
(442,67,c),
(441,76,o),
(439,87,o),
(439,100,cs),
(439,164,o),
(453,257,o),
(474,351,c),
(489,350,o),
(501,350,o),
(525,350,cs),
(612,350,o),
(695,358,o),
(711,399,c),
(659,404,o),
(589,420,o),
(493,423,c),
(518,520,o),
(549,608,o),
(571,652,c),
(604,651,o),
(637,650,o),
(675,650,cs),
(762,650,o),
(846,658,o),
(861,699,c),
(799,707,o),
(640,722,o),
(528,722,cs),
(481,722,o),
(329,540,o),
(189,338,c),
(162,341,o),
(138,344,o),
(116,344,cs),
(60,344,o),
(17,327,o),
(-1,279,c),
(46,279,ls),
(69,279,o),
(101,278,o),
(146,275,c),
(62,146,o),
(-1,28,o),
(-1,-26,cs),
(-1,-41,o),
(5,-66,o),
(45,-87,c)
);
},
{
closed = 1;
nodes = (
(341,305,o),
(296,318,o),
(253,326,c),
(336,469,o),
(419,586,o),
(480,634,c),
(442,545,o),
(399,417,o),
(374,299,c)
);
}
);
userData = {
com.schriftgestaltung.hints = (
{
horizontal = 0;
options = 0;
place = (
350,
89
);
stem = -2;
},
{
horizontal = 1;
options = 0;
place = (
275,
69
);
stem = -2;
},
{
horizontal = 1;
options = 0;
place = (
350,
73
);
stem = -2;
},
{
horizontal = 1;
options = 0;
place = (
650,
72
);
stem = -2;
},
{
horizontal = 1;
options = 0;
place = (
-87,
21
);
stem = -2;
target = (
u,
p
);
type = BottomGhost;
},
{
horizontal = 1;
options = 0;
place = (
-12,
21
);
stem = -2;
target = (
u,
p
);
type = BottomGhost;
}
);
};
width = 790;
}
);
unicode = 198;
},
{
color = 6;
glyphname = B;
lastChange = "2024-08-30 21:25:08 +0000";
layers = (
{
anchors = (
{
name = bottom;
pos = (246,-30);
},
{
name = center;
pos = (149,162);
},
{
name = top;
pos = (379,715);
}
);
background = {
shapes = (
{
closed = 1;
nodes = (
(279,-87,o),
(563,10,o),
(563,205,cs),
(563,268,o),
(533,354,o),
(335,366,c),
(438,383,o),
(564,430,o),
(564,561,cs),
(564,700,o),
(422,720,o),
(333,720,cs),
(229,720,o),
(163,693,o),
(96,665,c),
(96,655,o),
(118,638,o),
(128,638,cs),
(141,638,o),
(182,677,o),
(266,692,c),
(178,521,o),
(74,197,o),
(54,131,cs),
(49,114,o),
(40,90,o),
(40,74,cs),
(40,47,o),
(66,26,o),
(99,26,c),
(129,129,o),
(158,240,o),
(189,348,c),
(211,348,o),
(238,349,o),
(264,349,cs),
(378,349,o),
(516,332,o),
(516,223,cs),
(516,102,o),
(348,-14,o),
(118,-14,cs),
(50,-14,o),
(33,-4,o),
(24,-4,cs),
(21,-4,o),
(19,-5,o),
(19,-7,cs),
(19,-64,o),
(57,-87,o),
(130,-87,cs)
);
},
{
closed = 1;
nodes = (
(230,490,o),
(268,604,o),
(316,698,c),
(322,699,o),
(328,699,o),
(335,699,cs),
(421,699,o),
(504,673,o),
(504,569,cs),
(504,423,o),
(341,376,o),
(195,371,c)
);
}
);
};
layerId = master01;
shapes = (
{
closed = 1;
nodes = (
(326,-71,o),
(563,22,o),
(563,203,cs),
(563,268,o),
(533,354,o),
(335,366,c),
(438,383,o),
(564,436,o),
(564,564,cs),
(564,699,o),
(422,720,o),
(332,720,cs),
(229,720,o),
(163,693,o),
(96,665,c),
(96,652,o),
(118,630,o),
(128,630,cs),
(141,630,o),
(182,677,o),
(266,684,c),
(259,668,o),
(103,321,o),
(53,133,cs),
(46,107,o),
(40,77,o),
(40,71,cs),
(40,48,o),
(66,26,o),
(99,26,c),
(127,123,o),
(155,228,o),
(184,330,c),
(206,330,o),
(223,333,o),
(259,334,cs),
(403,339,o),
(500,305,o),
(500,215,cs),
(500,116,o),
(382,-10,o),
(132,-10,cs),
(78,-10,o),
(29,-4,o),
(23,-4,cs),
(21,-4,o),
(19,-5,o),
(19,-7,cs),
(19,-54,o),
(57,-71,o),
(138,-71,cs)
);
},
{
closed = 1;
nodes = (
(230,487,o),
(268,598,o),
(316,690,c),
(322,691,o),
(328,691,o),
(331,691,cs),
(449,691,o),
(504,651,o),
(504,567,cs),
(504,424,o),
(347,377,o),
(195,371,c)
);
}
);
userData = {
com.schriftgestaltung.hints = (
{
horizontal = 0;
options = 0;
place = (
504,
59
);
stem = -2;
},
{
horizontal = 0;
options = 0;
place = (
516,
47
);
stem = -2;
},
{
horizontal = 1;
options = 0;
place = (
-87,
73
);
stem = -2;
},
{
horizontal = 1;
options = 0;
place = (
699,
21
);
stem = -2;
},
{
horizontal = 1;
options = 0;
place = (
348,
-20
);
stem = -2;
target = (
d,
o,
w,
n
);
type = TopGhost;
},
{
horizontal = 1;
options = 0;
place = (
349,
-20
);
stem = -2;
target = (
d,
o,
w,
n
);
type = TopGhost;
},
{
horizontal = 1;
options = 0;
place = (
-4,
21
);
stem = -2;
target = (
u,
p
);
type = BottomGhost;
}
);
};
width = 608;
},
{
anchors = (
{
name = bottom;
pos = (296,-48);
},
{
name = center;
pos = (148,160);
},
{
name = top;
pos = (429,717);
}
);
background = {
shapes = (
{
closed = 1;
nodes = (
(326,-87,o),
(617,11,o),
(617,207,cs),
(617,267,o),
(568,346,o),
(402,368,c),
(499,391,o),
(611,443,o),
(611,557,cs),
(611,700,o),
(455,720,o),
(360,720,cs),
(250,720,o),
(180,693,o),
(108,664,c),
(108,650,o),
(135,625,o),
(148,625,cs),
(164,625,o),
(198,658,o),
(278,676,c),
(190,505,o),
(96,199,o),
(75,137,cs),
(66.299,110.897,o),
(61,91,o),
(61,79,cs),
(61,48,o),
(95,24,o),
(135,24,c),
(165,128,o),
(192,239,o),
(222,340,c),
(244,340,o),
(271,341,o),
(296,341,cs),
(414,341,o),
(555,326,o),
(555,222,cs),
(555,108,o),
(385,0,o),
(150,0,cs),
(81,0,o),
(64,9,o),
(52,9,cs),
(45,9,o),
(41,6,o),
(41,-1,cs),
(42,-62,o),
(84,-87,o),
(165,-87,cs)
);
},
{
closed = 1;
nodes = (
(265,489,o),
(301,596,o),
(347,685,c),
(348,685,o),
(349,685,o),
(351,685,cs),
(446,684,o),
(535,661,o),
(535,565,cs),
(535,430,o),
(382,384,o),
(232,378,c)
);
}
);
};
layerId = master02;
shapes = (
{
closed = 1;
nodes = (
(327,-80,o),
(617,22,o),
(617,200,cs),
(617,288,o),
(546,348,o),
(402,368,c),
(499,391,o),
(611,442,o),
(611,560,cs),
(611,699,o),
(455,720,o),
(359,720,cs),
(250,720,o),
(177,696,o),
(108,664,c),
(108,647,o),
(131,617,o),
(144,617,cs),
(160,617,o),
(198,661,o),
(274,672,c),
(195,496,o),
(223,582,o),
(75,137,cs),
(66,111,o),
(61,89,o),
(61,78,cs),
(61,48,o),
(95,24,o),
(135,24,c),
(165,125,o),
(192,232,o),
(222,330,c),
(245,330,o),
(269,331,o),
(298,331,cs),
(408,331,o),
(544,316,o),
(544,214,cs),
(544,104,o),
(379,0,o),
(149,0,cs),
(82,0,o),
(64,9,o),
(51,9,cs),
(45,9,o),
(42,7,o),
(41,-1,cs),
(33,-50,o),
(84,-80,o),
(169,-80,cs)
);
},
{
closed = 1;
nodes = (
(264,487,o),
(299,594,o),
(343,681,c),
(350,682,o),
(359,683,o),
(368,683,cs),
(384,683,o),
(535,689,o),
(535,561,cs),
(535,429,o),
(382,384,o),
(232,378,c)
);
}
);
userData = {
com.schriftgestaltung.hints = (
{
horizontal = 0;
options = 0;
place = (
535,
82
);
stem = -2;
},
{
horizontal = 0;
options = 0;
place = (
555,
62
);
stem = -2;
},
{
horizontal = 1;
options = 0;
place = (
-87,
87
);
stem = -2;
},
{
horizontal = 1;
options = 0;
place = (
341,
37
);
stem = -2;
},
{
horizontal = 1;
options = 0;
place = (
625,
95
);
stem = -2;
},
{
horizontal = 1;
options = 0;
place = (
685,
35
);
stem = -2;
},
{
horizontal = 1;
options = 0;
place = (
340,
-20
);
stem = -2;
target = (
d,
o,
w,
n
);
type = TopGhost;
}
);
};
width = 650;
},
{
associatedMasterId = master01;
background = {
shapes = (
{
closed = 1;
nodes = (
(279,-87,o),
(563,10,o),
(563,205,cs),
(563,268,o),
(533,354,o),
(335,366,c),
(438,383,o),
(564,430,o),
(564,561,cs),
(564,700,o),
(422,720,o),
(333,720,cs),
(229,720,o),
(163,693,o),
(96,665,c),
(96,655,o),
(118,638,o),
(128,638,cs),
(141,638,o),
(182,677,o),
(266,692,c),
(178,521,o),
(74,197,o),
(54,131,cs),
(49,114,o),
(40,90,o),
(40,74,cs),
(40,47,o),
(66,26,o),
(99,26,c),
(129,129,o),
(158,240,o),
(189,348,c),
(211,348,o),
(238,349,o),
(264,349,cs),
(378,349,o),
(516,332,o),
(516,223,cs),
(516,102,o),
(348,-14,o),
(118,-14,cs),
(50,-14,o),
(33,-4,o),
(24,-4,cs),
(21,-4,o),
(19,-5,o),
(19,-7,cs),
(19,-64,o),
(57,-87,o),
(130,-87,cs)
);
},
{
closed = 1;
nodes = (
(230,490,o),
(268,604,o),
(316,698,c),
(322,699,o),
(328,699,o),
(335,699,cs),
(421,699,o),
(504,673,o),
(504,569,cs),
(504,423,o),
(341,376,o),
(195,371,c)
);
}
);
};
layerId = "3207D1B7-7442-43F3-8B7E-1F7D11489211";
name = "30 de may. de 23 21:36";
shapes = (
{
closed = 1;
nodes = (
(279,-87,o),
(563,10,o),
(563,205,cs),
(563,268,o),
(533,354,o),
(335,366,c),
(438,383,o),
(564,430,o),
(564,561,cs),
(564,700,o),
(422,720,o),
(333,720,cs),
(229,720,o),
(163,693,o),
(96,665,c),
(96,655,o),
(118,638,o),
(128,638,cs),
(141,638,o),
(182,677,o),
(266,692,c),
(178,521,o),
(74,197,o),
(54,131,cs),
(49,114,o),
(40,90,o),
(40,74,cs),
(40,47,o),
(66,26,o),
(99,26,c),
(129,129,o),
(158,240,o),
(189,348,c),
(211,348,o),
(238,349,o),
(264,349,cs),
(378,349,o),
(516,332,o),
(516,223,cs),
(516,102,o),
(348,-14,o),
(118,-14,cs),
(50,-14,o),
(33,-4,o),
(24,-4,cs),
(21,-4,o),
(19,-5,o),
(19,-7,cs),
(19,-64,o),
(57,-87,o),
(130,-87,cs)
);
},
{
closed = 1;
nodes = (
(230,490,o),
(268,604,o),
(316,698,c),
(322,699,o),
(328,699,o),
(335,699,cs),
(421,699,o),
(504,673,o),
(504,569,cs),
(504,423,o),
(341,376,o),
(195,371,c)
);
}
);
userData = {
com.schriftgestaltung.hints = (
{
horizontal = 0;
options = 0;
place = (
504,
59
);
stem = -2;
},
{
horizontal = 0;
options = 0;
place = (
516,
47
);
stem = -2;
},
{
horizontal = 1;
options = 0;
place = (
-87,
73
);
stem = -2;
},
{
horizontal = 1;
options = 0;
place = (
699,
21
);
stem = -2;
},
{
horizontal = 1;
options = 0;
place = (
348,
-20
);
stem = -2;
target = (
d,
o,
w,
n
);
type = TopGhost;
},
{
horizontal = 1;
options = 0;
place = (
349,
-20
);
stem = -2;
target = (
d,
o,
w,
n
);
type = TopGhost;
},
{
horizontal = 1;
options = 0;
place = (
-4,
21
);
stem = -2;
target = (
u,
p
);
type = BottomGhost;
}
);
};
width = 608;
},
{
associatedMasterId = master02;
background = {
shapes = (
{
closed = 1;
nodes = (
(326,-87,o),
(617,11,o),
(617,207,cs),
(617,267,o),
(568,346,o),
(402,368,c),
(499,391,o),
(611,443,o),
(611,557,cs),
(611,700,o),
(455,720,o),
(360,720,cs),
(250,720,o),
(180,693,o),
(108,664,c),
(108,650,o),
(135,625,o),
(148,625,cs),
(164,625,o),
(198,658,o),
(278,676,c),
(190,505,o),
(96,199,o),
(75,137,cs),
(66.299,110.897,o),
(61,91,o),
(61,79,cs),
(61,48,o),
(95,24,o),
(135,24,c),
(165,128,o),
(192,239,o),
(222,340,c),
(244,340,o),
(271,341,o),
(296,341,cs),
(414,341,o),
(555,326,o),
(555,222,cs),
(555,108,o),
(385,0,o),
(150,0,cs),
(81,0,o),
(64,9,o),
(52,9,cs),
(45,9,o),
(41,6,o),
(41,-1,cs),
(42,-62,o),
(84,-87,o),
(165,-87,cs)
);
},
{
closed = 1;
nodes = (
(265,489,o),
(301,596,o),
(347,685,c),
(348,685,o),
(349,685,o),
(351,685,cs),
(446,684,o),
(535,661,o),
(535,565,cs),
(535,430,o),
(382,384,o),
(232,378,c)
);
}
);
};
layerId = "BF605CB6-F24B-4352-BEEA-38B8F1978E27";
name = "30 de may. de 23 21:39";
shapes = (
{
closed = 1;
nodes = (
(326,-87,o),
(617,11,o),
(617,207,cs),
(617,267,o),
(568,346,o),
(402,368,c),
(499,391,o),
(611,443,o),
(611,557,cs),
(611,700,o),
(455,720,o),
(360,720,cs),
(250,720,o),
(180,693,o),
(108,664,c),
(108,650,o),
(135,625,o),
(148,625,cs),
(164,625,o),
(198,658,o),
(278,676,c),
(190,505,o),
(96,199,o),
(75,137,cs),
(66.299,110.897,o),
(61,91,o),
(61,79,cs),
(61,48,o),
(95,24,o),
(135,24,c),
(165,128,o),
(192,239,o),
(222,340,c),
(244,340,o),
(271,341,o),
(296,341,cs),
(414,341,o),
(555,326,o),
(555,222,cs),
(555,108,o),
(385,0,o),
(150,0,cs),
(81,0,o),
(64,9,o),
(52,9,cs),
(45,9,o),
(41,6,o),
(41,-1,cs),
(42,-62,o),
(84,-87,o),
(165,-87,cs)
);
},
{
closed = 1;
nodes = (
(265,489,o),
(301,596,o),
(347,685,c),
(348,685,o),
(349,685,o),
(351,685,cs),
(446,684,o),
(535,661,o),
(535,565,cs),
(535,430,o),
(382,384,o),
(232,378,c)
);
}
);
userData = {
com.schriftgestaltung.hints = (
{
horizontal = 0;
options = 0;
place = (
535,
82
);
stem = -2;
},
{
horizontal = 0;
options = 0;
place = (
555,
62
);
stem = -2;
},
{
horizontal = 1;
options = 0;
place = (
-87,
87
);
stem = -2;
},
{
horizontal = 1;
options = 0;
place = (
341,
37
);
stem = -2;
},
{
horizontal = 1;
options = 0;
place = (
625,
95
);
stem = -2;
},
{
horizontal = 1;
options = 0;
place = (
685,
35
);
stem = -2;
},
{
horizontal = 1;
options = 0;
place = (
340,
-20
);
stem = -2;
target = (
d,
o,
w,
n
);
type = TopGhost;
}
);
};
width = 650;
}
);
unicode = 66;
},
{
color = 4;
glyphname = Bhook;
lastChange = "2024-08-11 14:31:05 +0000";
layers = (
{
background = {
shapes = (
{
closed = 1;
nodes = (
(400,-71,o),
(637,22,o),
(637,203,cs),
(637,268,o),
(607,354,o),
(409,366,c),
(512,383,o),
(638,435,o),
(638,565,cs),
(638,704,o),
(495,725,o),
(377,725,cs),
(313,725,o),
(244,719,o),
(187,691,cs),
(117,656,o),
(89,608,o),
(89,563,cs),
(89,512,o),
(120,492,o),
(154,489,c),
(152,500,o),
(145,531,o),
(145,559,cs),
(145,631,o),
(196,693,o),
(342,691,c),
(321,643,o),
(163,279,o),
(126,134,cs),
(119,107,o),
(117,89,o),
(117,77,cs),
(117,42,o),
(134,26,o),
(173,26,c),
(201,123,o),
(229,228,o),
(258,330,c),
(283,330,o),
(306,334,o),
(353,334,cs),
(488,334,o),
(574,301,o),
(574,216,cs),
(574,116,o),
(456,-10,o),
(206,-10,cs),
(152,-10,o),
(103,-4,o),
(97,-4,cs),
(95,-4,o),
(93,-5,o),
(93,-7,cs),
(93,-54,o),
(131,-71,o),
(212,-71,cs)
);
},
{
closed = 1;
nodes = (
(304,487,o),
(342,598,o),
(390,690,c),
(396,691,o),
(402,691,o),
(405,691,cs),
(523,691,o),
(578,651,o),
(578,567,cs),
(578,424,o),
(421,377,o),
(269,371,c)
);
}
);
};
layerId = master01;
shapes = (
{
closed = 1;
nodes = (
(400,-71,o),
(637,22,o),
(637,203,cs),
(637,268,o),
(607,354,o),
(409,366,c),
(512,383,o),
(638,435,o),
(638,565,cs),
(638,702,o),
(497,725,o),
(382,725,cs),
(194,725,o),
(40,663,o),
(40,521,cs),
(40,461,o),
(68,440,o),
(103,440,cs),
(136,440,o),
(154,458,o),
(164,497,c),
(123,497,o),
(109,529,o),
(109,563,cs),
(109,648,o),
(194,692,o),
(342,691,c),
(321,643,o),
(163,279,o),
(126,134,cs),
(119,107,o),
(117,89,o),
(117,77,cs),
(117,42,o),
(134,26,o),
(173,26,c),
(201,123,o),
(229,228,o),
(258,330,c),
(283,330,o),
(306,334,o),
(353,334,cs),
(488,334,o),
(574,301,o),
(574,216,cs),
(574,116,o),
(456,-10,o),
(206,-10,cs),
(152,-10,o),
(103,-4,o),
(97,-4,cs),
(95,-4,o),
(93,-5,o),
(93,-7,cs),
(93,-54,o),
(131,-71,o),
(212,-71,cs)
);
},
{
closed = 1;
nodes = (
(304,487,o),
(342,598,o),
(390,690,c),
(396,691,o),
(402,691,o),
(405,691,cs),
(523,691,o),
(578,651,o),
(578,567,cs),
(578,424,o),
(421,377,o),
(269,371,c)
);
}
);
width = 682;
},
{
associatedMasterId = master01;
background = {
shapes = (
{
closed = 1;
nodes = (
(359,-71,o),
(596,22,o),
(596,203,cs),
(596,268,o),
(566,354,o),
(368,366,c),
(471,383,o),
(597,436,o),
(597,564,cs),
(597,701,o),
(454,720,o),
(356,720,cs),
(281,720,o),
(115,709,o),
(55,542,c),
(56,511,o),
(84,493,o),
(105,489,c),
(140,633,o),
(208,677,o),
(299,684,c),
(278,636,o),
(122,279,o),
(85,134,cs),
(78,107,o),
(76,89,o),
(76,77,cs),
(76,42,o),
(93,26,o),
(132,26,c),
(160,123,o),
(188,228,o),
(217,330,c),
(239,330,o),
(256,333,o),
(292,334,cs),
(438,338,o),
(533,305,o),
(533,216,cs),
(533,116,o),
(415,-10,o),
(165,-10,cs),
(111,-10,o),
(62,-4,o),
(56,-4,cs),
(54,-4,o),
(52,-5,o),
(52,-7,cs),
(52,-54,o),
(90,-71,o),
(171,-71,cs)
);
},
{
closed = 1;
nodes = (
(263,487,o),
(301,598,o),
(349,690,c),
(355,691,o),
(361,691,o),
(364,691,cs),
(482,691,o),
(537,651,o),
(537,567,cs),
(537,424,o),
(380,377,o),
(228,371,c)
);
}
);
};
layerId = "AA4429EB-66CD-4486-A062-E3626BBF68A5";
name = "29 Jun 24 23:44";
shapes = (
{
closed = 1;
nodes = (
(359,-71,o),
(596,22,o),
(596,203,cs),
(596,268,o),
(566,354,o),
(368,366,c),
(471,383,o),
(597,436,o),
(597,564,cs),
(597,701,o),
(454,725,o),
(356,725,cs),
(277,725,o),
(209,721,o),
(149,692,cs),
(80,659,o),
(60,595,o),
(60,554,cs),
(60,516,o),
(89,493,o),
(125,489,c),
(120,514,o),
(116,540,o),
(116,566,cs),
(116,690,o),
(237,692,o),
(301,691,c),
(280,643,o),
(122,279,o),
(85,134,cs),
(78,107,o),
(76,89,o),
(76,77,cs),
(76,42,o),
(93,26,o),
(132,26,c),
(160,123,o),
(188,228,o),
(217,330,c),
(243,330,o),
(262,334,o),
(315,334,cs),
(448,334,o),
(533,300,o),
(533,216,cs),
(533,116,o),
(415,-10,o),
(165,-10,cs),
(111,-10,o),
(62,-4,o),
(56,-4,cs),
(54,-4,o),
(52,-5,o),
(52,-7,cs),
(52,-54,o),
(90,-71,o),
(171,-71,cs)
);
},
{
closed = 1;
nodes = (
(263,487,o),
(301,598,o),
(349,690,c),
(355,691,o),
(361,691,o),
(364,691,cs),
(482,691,o),
(537,651,o),
(537,567,cs),
(537,424,o),
(380,377,o),
(228,371,c)
);
}
);
width = 641;
},
{
associatedMasterId = master01;
background = {
shapes = (
{
closed = 1;
nodes = (
(359,-71,o),
(596,22,o),
(596,203,cs),
(596,268,o),
(566,354,o),
(368,366,c),
(471,383,o),
(597,436,o),
(597,564,cs),
(597,699,o),
(455,720,o),
(365,720,cs),
(262,720,o),
(196,693,o),
(129,665,c),
(129,652,o),
(151,630,o),
(161,630,cs),
(174,630,o),
(215,677,o),
(299,684,c),
(292,668,o),
(136,321,o),
(86,133,cs),
(79,107,o),
(73,77,o),
(73,71,cs),
(73,48,o),
(99,26,o),
(132,26,c),
(160,123,o),
(188,228,o),
(217,330,c),
(239,330,o),
(256,333,o),
(292,334,cs),
(436,339,o),
(533,305,o),
(533,215,cs),
(533,116,o),
(415,-10,o),
(165,-10,cs),
(111,-10,o),
(62,-4,o),
(56,-4,cs),
(54,-4,o),
(52,-5,o),
(52,-7,cs),
(52,-54,o),
(90,-71,o),
(171,-71,cs)
);
},
{
closed = 1;
nodes = (
(263,487,o),
(301,598,o),
(349,690,c),
(355,691,o),
(361,691,o),
(364,691,cs),
(482,691,o),
(537,651,o),
(537,567,cs),
(537,424,o),
(380,377,o),
(228,371,c)
);
},
{
closed = 1;
nodes = (
(400,-87,o),
(646,153,o),
(646,454,cs),
(646,643,o),
(544,723,o),
(355,723,cs),
(220,723,o),
(82,675,o),
(55,542,c),
(58,514,o),
(75,500,o),
(105,489,c),
(123,624,o),
(213,696,o),
(351,696,cs),
(471,696,o),
(572,633,o),
(572,461,cs),
(572,198,o),
(371,-61,o),
(165,-61,cs),
(152,-61,o),
(140,-60,o),
(122,-57,c),
(169,156,o),
(273,485,o),
(366,696,c),
(356,703,o),
(349,706,o),
(342,706,cs),
(302,706,o),
(271,624,o),
(264,607,cs),
(231,527,o),
(105,172,o),
(59,-42,c),
(85,-79,o),
(124,-87,o),
(167,-87,cs)
);
}
);
};
layerId = "C5618BDF-519D-4F1D-ABC4-3FFA3F1E1BE2";
name = "29 Jun 24 21:57";
shapes = (
{
closed = 1;
nodes = (
(359,-71,o),
(596,22,o),
(596,203,cs),
(596,268,o),
(566,354,o),
(368,366,c),
(471,383,o),
(597,436,o),
(597,564,cs),
(597,701,o),
(454,720,o),
(356,720,cs),
(281,720,o),
(115,709,o),
(55,542,c),
(56,511,o),
(84,493,o),
(105,489,c),
(140,633,o),
(208,677,o),
(299,684,c),
(278,636,o),
(122,279,o),
(85,134,cs),
(78,107,o),
(76,89,o),
(76,77,cs),
(76,42,o),
(93,26,o),
(132,26,c),
(160,123,o),
(188,228,o),
(217,330,c),
(239,330,o),
(256,333,o),
(292,334,cs),
(438,338,o),
(533,305,o),
(533,216,cs),
(533,116,o),
(415,-10,o),
(165,-10,cs),
(111,-10,o),
(62,-4,o),
(56,-4,cs),
(54,-4,o),
(52,-5,o),
(52,-7,cs),
(52,-54,o),
(90,-71,o),
(171,-71,cs)
);
},
{
closed = 1;
nodes = (
(263,487,o),
(301,598,o),
(349,690,c),
(355,691,o),
(361,691,o),
(364,691,cs),
(482,691,o),
(537,651,o),
(537,567,cs),
(537,424,o),
(380,377,o),
(228,371,c)
);
}
);
width = 641;
},
{
background = {
shapes = (
{
closed = 1;
nodes = (
(447,-71,o),
(684,22,o),
(684,203,cs),
(684,268,o),
(654,354,o),
(456,366,c),
(559,383,o),
(685,435,o),
(685,565,cs),
(685,702,o),
(544,725,o),
(429,725,cs),
(241,725,o),
(87,663,o),
(87,521,cs),
(87,461,o),
(115,440,o),
(150,440,cs),
(183,440,o),
(201,458,o),
(211,497,c),
(170,497,o),
(156,529,o),
(156,563,cs),
(156,648,o),
(241,692,o),
(389,691,c),
(368,643,o),
(210,279,o),
(173,134,cs),
(166,107,o),
(164,89,o),
(164,77,cs),
(164,42,o),
(181,26,o),
(220,26,c),
(248,123,o),
(276,228,o),
(305,330,c),
(330,330,o),
(353,334,o),
(400,334,cs),
(535,334,o),
(621,301,o),
(621,216,cs),
(621,116,o),
(503,-10,o),
(253,-10,cs),
(199,-10,o),
(150,-4,o),
(144,-4,cs),
(142,-4,o),
(140,-5,o),
(140,-7,cs),
(140,-54,o),
(178,-71,o),
(259,-71,cs)
);
},
{
closed = 1;
nodes = (
(351,487,o),
(389,598,o),
(437,690,c),
(443,691,o),
(449,691,o),
(452,691,cs),
(570,691,o),
(625,651,o),
(625,567,cs),
(625,424,o),
(468,377,o),
(316,371,c)
);
}
);
};
layerId = master02;
shapes = (
{
closed = 1;
nodes = (
(412,-80,o),
(702,22,o),
(702,200,cs),
(702,288,o),
(631,348,o),
(487,368,c),
(584,391,o),
(696,442,o),
(696,561,cs),
(696,699,o),
(546,720,o),
(426,720,cs),
(117,720,o),
(40,594,o),
(40,512,cs),
(40,467,o),
(61,426,o),
(117,426,cs),
(164,426,o),
(177,456,o),
(187,499,c),
(148,499,o),
(139,524,o),
(139,549,cs),
(139,608,o),
(198,670,o),
(360,677,c),
(281,501,o),
(308,582,o),
(160,137,cs),
(150,107,o),
(146,89,o),
(146,78,cs),
(146,48,o),
(180,24,o),
(220,24,c),
(250,125,o),
(277,232,o),
(307,330,c),
(330,330,o),
(354,331,o),
(382,331,cs),
(492,331,o),
(629,316,o),
(629,214,cs),
(629,102,o),
(461,0,o),
(234,0,cs),
(167,0,o),
(149,9,o),
(136,9,cs),
(129,9,o),
(127,6,o),
(126,-1,cs),
(118,-50,o),
(169,-80,o),
(254,-80,cs)
);
},
{
closed = 1;
nodes = (
(349,487,o),
(384,594,o),
(428,681,c),
(435,682,o),
(444,683,o),
(453,683,cs),
(473,683,o),
(620,683,o),
(620,558,cs),
(620,429,o),
(462,383,o),
(317,378,c)
);
}
);
width = 735;
},
{
associatedMasterId = master01;
background = {
shapes = (
{
closed = 1;
nodes = (
(359,-71,o),
(596,22,o),
(596,203,cs),
(596,268,o),
(566,354,o),
(368,366,c),
(471,383,o),
(597,436,o),
(597,564,cs),
(597,701,o),
(454,720,o),
(356,720,cs),
(281,720,o),
(115,709,o),
(55,542,c),
(56,511,o),
(84,493,o),
(105,489,c),
(140,633,o),
(208,677,o),
(299,684,c),
(278,636,o),
(122,279,o),
(85,134,cs),
(78,107,o),
(76,89,o),
(76,77,cs),
(76,42,o),
(93,26,o),
(132,26,c),
(160,123,o),
(188,228,o),
(217,330,c),
(239,330,o),
(256,333,o),
(292,334,cs),
(438,338,o),
(533,305,o),
(533,216,cs),
(533,116,o),
(415,-10,o),
(165,-10,cs),
(111,-10,o),
(62,-4,o),
(56,-4,cs),
(54,-4,o),
(52,-5,o),
(52,-7,cs),
(52,-54,o),
(90,-71,o),
(171,-71,cs)
);
},
{
closed = 1;
nodes = (
(263,487,o),
(301,598,o),
(349,690,c),
(355,691,o),
(361,691,o),
(364,691,cs),
(482,691,o),
(537,651,o),
(537,567,cs),
(537,424,o),
(380,377,o),
(228,371,c)
);
}
);
};
layerId = "8767073C-E8F7-4D66-9947-92EE83B7C4A0";
name = "24 Jul 24, 5:39 PM";
shapes = (
{
closed = 1;
nodes = (
(359,-71,o),
(596,22,o),
(596,203,cs),
(596,268,o),
(566,354,o),
(368,366,c),
(471,383,o),
(597,435,o),
(597,565,cs),
(597,704,o),
(454,725,o),
(336,725,cs),
(272,725,o),
(203,719,o),
(146,691,cs),
(76,656,o),
(48,608,o),
(48,563,cs),
(48,512,o),
(79,492,o),
(113,489,c),
(111,500,o),
(104,531,o),
(104,559,cs),
(104,631,o),
(155,693,o),
(301,691,c),
(280,643,o),
(122,279,o),
(85,134,cs),
(78,107,o),
(76,89,o),
(76,77,cs),
(76,42,o),
(93,26,o),
(132,26,c),
(160,123,o),
(188,228,o),
(217,330,c),
(242,330,o),
(265,334,o),
(312,334,cs),
(447,334,o),
(533,301,o),
(533,216,cs),
(533,116,o),
(415,-10,o),
(165,-10,cs),
(111,-10,o),
(62,-4,o),
(56,-4,cs),
(54,-4,o),
(52,-5,o),
(52,-7,cs),
(52,-54,o),
(90,-71,o),
(171,-71,cs)
);
},
{
closed = 1;
nodes = (
(263,487,o),
(301,598,o),
(349,690,c),
(355,691,o),
(361,691,o),
(364,691,cs),
(482,691,o),
(537,651,o),
(537,567,cs),
(537,424,o),
(380,377,o),
(228,371,c)
);
}
);
width = 641;
},
{
associatedMasterId = master01;
background = {
shapes = (
{
closed = 1;
nodes = (
(359,-71,o),
(596,22,o),
(596,203,cs),
(596,268,o),
(566,354,o),
(368,366,c),
(471,383,o),
(597,435,o),
(597,565,cs),
(597,704,o),
(454,725,o),
(336,725,cs),
(272,725,o),
(203,719,o),
(146,691,cs),
(76,656,o),
(48,608,o),
(48,563,cs),
(48,512,o),
(79,492,o),
(113,489,c),
(111,500,o),
(104,531,o),
(104,559,cs),
(104,631,o),
(155,693,o),
(301,691,c),
(280,643,o),
(122,279,o),
(85,134,cs),
(78,107,o),
(76,89,o),
(76,77,cs),
(76,42,o),
(93,26,o),
(132,26,c),
(160,123,o),
(188,228,o),
(217,330,c),
(242,330,o),
(265,334,o),
(312,334,cs),
(447,334,o),
(533,301,o),
(533,216,cs),
(533,116,o),
(415,-10,o),
(165,-10,cs),
(111,-10,o),
(62,-4,o),
(56,-4,cs),
(54,-4,o),
(52,-5,o),
(52,-7,cs),
(52,-54,o),
(90,-71,o),
(171,-71,cs)
);
},
{
closed = 1;
nodes = (
(263,487,o),
(301,598,o),
(349,690,c),
(355,691,o),
(361,691,o),
(364,691,cs),
(482,691,o),
(537,651,o),
(537,567,cs),
(537,424,o),
(380,377,o),
(228,371,c)
);
}
);
};
layerId = "AC213995-67E9-43D5-9718-51C87AC79E93";
name = "24 Jul 24, 7:57 PM";
shapes = (
{
closed = 1;
nodes = (
(359,-71,o),
(596,22,o),
(596,203,cs),
(596,268,o),
(566,354,o),
(368,366,c),
(471,383,o),
(597,435,o),
(597,565,cs),
(597,703,o),
(453,725,o),
(346,725,cs),
(268,725,o),
(152,713,o),
(85,685,c),
(49,639,o),
(22,582,o),
(22,544,cs),
(22,507,o),
(47,476,o),
(84,476,cs),
(116,476,o),
(135,499,o),
(145,516,c),
(90,516,o),
(74,545,o),
(74,577,cs),
(74,615,o),
(97,658,o),
(102,667,c),
(143,683,o),
(236,692,o),
(301,691,c),
(280,643,o),
(122,279,o),
(85,134,cs),
(78,107,o),
(76,89,o),
(76,77,cs),
(76,42,o),
(93,26,o),
(132,26,c),
(160,123,o),
(188,228,o),
(217,330,c),
(242,330,o),
(265,334,o),
(312,334,cs),
(447,334,o),
(533,301,o),
(533,216,cs),
(533,116,o),
(415,-10,o),
(165,-10,cs),
(111,-10,o),
(62,-4,o),
(56,-4,cs),
(54,-4,o),
(52,-5,o),
(52,-7,cs),
(52,-54,o),
(90,-71,o),
(171,-71,cs)
);
},
{
closed = 1;
nodes = (
(263,487,o),
(301,598,o),
(349,690,c),
(355,691,o),
(361,691,o),
(364,691,cs),
(482,691,o),
(537,651,o),
(537,567,cs),
(537,424,o),
(380,377,o),
(228,371,c)
);
}
);
width = 641;
},
{
associatedMasterId = master01;
background = {
shapes = (
{
closed = 1;
nodes = (
(359,-71,o),
(596,22,o),
(596,203,cs),
(596,268,o),
(566,354,o),
(368,366,c),
(471,383,o),
(597,435,o),
(597,565,cs),
(597,704,o),
(454,725,o),
(336,725,cs),
(272,725,o),
(203,719,o),
(146,691,cs),
(76,656,o),
(48,608,o),
(48,563,cs),
(48,512,o),
(79,492,o),
(113,489,c),
(111,500,o),
(104,531,o),
(104,559,cs),
(104,631,o),
(155,693,o),
(301,691,c),
(280,643,o),
(122,279,o),
(85,134,cs),
(78,107,o),
(76,89,o),
(76,77,cs),
(76,42,o),
(93,26,o),
(132,26,c),
(160,123,o),
(188,228,o),
(217,330,c),
(242,330,o),
(265,334,o),
(312,334,cs),
(447,334,o),
(533,301,o),
(533,216,cs),
(533,116,o),
(415,-10,o),
(165,-10,cs),
(111,-10,o),
(62,-4,o),
(56,-4,cs),
(54,-4,o),
(52,-5,o),
(52,-7,cs),
(52,-54,o),
(90,-71,o),
(171,-71,cs)
);
},
{
closed = 1;
nodes = (
(263,487,o),
(301,598,o),
(349,690,c),
(355,691,o),
(361,691,o),
(364,691,cs),
(482,691,o),
(537,651,o),
(537,567,cs),
(537,424,o),
(380,377,o),
(228,371,c)
);
}
);
};
layerId = "960923D4-D420-40FA-8E20-732A7B852651";
name = "24 Jul 24, 8:02 PM";
shapes = (
{
closed = 1;
nodes = (
(359,-71,o),
(596,22,o),
(596,203,cs),
(596,268,o),
(566,354,o),
(368,366,c),
(471,383,o),
(597,435,o),
(597,565,cs),
(597,703,o),
(453,725,o),
(346,725,cs),
(172,725,o),
(9,685,o),
(9,539,cs),
(9,490,o),
(33,456,o),
(70,456,cs),
(101,456,o),
(124,476,o),
(133,506,c),
(82,506,o),
(68,540,o),
(68,577,cs),
(68,673,o),
(173,693,o),
(301,691,c),
(280,643,o),
(122,279,o),
(85,134,cs),
(78,107,o),
(76,89,o),
(76,77,cs),
(76,42,o),
(93,26,o),
(132,26,c),
(160,123,o),
(188,228,o),
(217,330,c),
(242,330,o),
(265,334,o),
(312,334,cs),
(447,334,o),
(533,301,o),
(533,216,cs),
(533,116,o),
(415,-10,o),
(165,-10,cs),
(111,-10,o),
(62,-4,o),
(56,-4,cs),
(54,-4,o),
(52,-5,o),
(52,-7,cs),
(52,-54,o),
(90,-71,o),
(171,-71,cs)
);
},
{
closed = 1;
nodes = (
(263,487,o),
(301,598,o),
(349,690,c),
(355,691,o),
(361,691,o),
(364,691,cs),
(482,691,o),
(537,651,o),
(537,567,cs),
(537,424,o),
(380,377,o),
(228,371,c)
);
}
);
width = 641;
}
);
unicode = 385;
},
{
color = 6;
glyphname = C;
kernLeft = C;
kernRight = C;
lastChange = "2024-08-23 07:24:05 +0000";
layers = (
{
anchors = (
{
name = bottom;
pos = (191,-77);
},
{
name = center;
pos = (165,330);
},
{
name = top;
pos = (437,715);
}
);
layerId = master01;
shapes = (
{
closed = 1;
nodes = (
(353,-87,o),
(462,21,o),
(529,152,c),
(515,162,l),
(462,48,o),
(349,-53,o),
(243,-53,cs),
(142,-53,o),
(102,41,o),
(102,140,cs),
(102,365,o),
(292,689,o),
(436,689,cs),
(470,689,o),
(485,671,o),
(485,644,cs),
(485,587,o),
(419,489,o),
(378,443,c),
(386,426,o),
(398,420,o),
(409,420,cs),
(464,420,o),
(525,555,o),
(525,633,cs),
(525,695,o),
(487,719,o),
(433,719,cs),
(243,719,o),
(22,421,o),
(22,157,cs),
(22,35,o),
(77,-87,o),
(219,-87,cs)
);
}
);
userData = {
com.schriftgestaltung.hints = (
{
horizontal = 0;
options = 0;
place = (
22,
80
);
stem = -2;
},
{
horizontal = 0;
options = 0;
place = (
485,
40
);
stem = -2;
},
{
horizontal = 1;
options = 0;
place = (
-87,
34
);
stem = -2;
},
{
horizontal = 1;
options = 0;
place = (
689,
30
);
stem = -2;
}
);
};
width = 534;
},
{
anchors = (
{
name = bottom;
pos = (211,-77);
},
{
name = center;
pos = (165,330);
},
{
name = top;
pos = (477,715);
}
);
background = {
shapes = (
{
closed = 1;
nodes = (
(382,-87,o),
(491,21,o),
(558,152,c),
(544,162,l),
(491,48,o),
(378,-53,o),
(272,-53,cs),
(171,-53,o),
(131,41,o),
(131,140,cs),
(131,365,o),
(321,689,o),
(465,689,cs),
(499,689,o),
(514,671,o),
(514,644,cs),
(514,587,o),
(448,489,o),
(407,443,c),
(415,426,o),
(427,420,o),
(438,420,cs),
(493,420,o),
(554,555,o),
(554,633,cs),
(554,695,o),
(516,719,o),
(462,719,cs),
(272,719,o),
(51,421,o),
(51,157,cs),
(51,35,o),
(106,-87,o),
(248,-87,cs)
);
}
);
};
layerId = master02;
shapes = (
{
closed = 1;
nodes = (
(392,-87,o),
(507,24,o),
(577,158,c),
(551,175,l),
(497,62,o),
(382,-39,o),
(274,-39,cs),
(169,-39,o),
(129,55,o),
(129,151,cs),
(129,369,o),
(315,675,o),
(461,675,cs),
(494,675,o),
(506,660,o),
(506,636,cs),
(506,582,o),
(438,487,o),
(397,442,c),
(409,419,o),
(424,411,o),
(438,411,cs),
(499,411,o),
(561,548,o),
(561,628,cs),
(561,694,o),
(516,719,o),
(457,719,cs),
(252,719,o),
(32,423,o),
(32,160,cs),
(32,37,o),
(97,-87,o),
(250,-87,cs)
);
}
);
userData = {
com.schriftgestaltung.hints = (
{
horizontal = 0;
options = 0;
place = (
32,
97
);
stem = -2;
},
{
horizontal = 0;
options = 0;
place = (
506,
55
);
stem = -2;
},
{
horizontal = 1;
options = 0;
place = (
-87,
48
);
stem = -2;
},
{
horizontal = 1;
options = 0;
place = (
675,
44
);
stem = -2;
}
);
};
width = 570;
}
);
unicode = 67;
},
{
color = 4;
glyphname = Chook;
kernLeft = C;
kernRight = C;
lastChange = "2024-08-11 15:45:15 +0000";
layers = (
{
layerId = master01;
shapes = (
{
closed = 1;
nodes = (
(353,-87,o),
(462,21,o),
(529,152,c),
(515,162,l),
(462,48,o),
(349,-53,o),
(243,-53,cs),
(142,-53,o),
(102,41,o),
(102,140,cs),
(102,365,o),
(292,689,o),
(436,689,cs),
(470,689,o),
(485,671,o),
(485,644,cs),
(485,587,o),
(419,489,o),
(378,443,c),
(386,426,o),
(398,420,o),
(409,420,cs),
(464,420,o),
(525,555,o),
(525,633,cs),
(525,695,o),
(487,719,o),
(433,719,cs),
(243,719,o),
(22,421,o),
(22,157,cs),
(22,35,o),
(77,-87,o),
(219,-87,cs)
);
},
{
closed = 1;
nodes = (
(504,537,l),
(550,657,o),
(602,737,o),
(669,737,cs),
(694,737,o),
(728,726,o),
(740,715,c),
(745,725,o),
(747,735,o),
(747,744,cs),
(747,772,o),
(725,794,o),
(688,794,cs),
(608,794,o),
(548,693,o),
(485,547,c)
);
}
);
width = 534;
},
{
background = {
shapes = (
{
closed = 1;
nodes = (
(381,-87,o),
(490,21,o),
(557,152,c),
(543,162,l),
(490,48,o),
(377,-53,o),
(271,-53,cs),
(170,-53,o),
(130,41,o),
(130,140,cs),
(130,365,o),
(320,689,o),
(464,689,cs),
(498,689,o),
(513,671,o),
(513,644,cs),
(513,587,o),
(447,489,o),
(406,443,c),
(414,426,o),
(426,420,o),
(437,420,cs),
(492,420,o),
(553,555,o),
(553,633,cs),
(553,695,o),
(515,719,o),
(461,719,cs),
(271,719,o),
(50,421,o),
(50,157,cs),
(50,35,o),
(105,-87,o),
(247,-87,cs)
);
},
{
closed = 1;
nodes = (
(532,537,l),
(578,657,o),
(630,737,o),
(697,737,cs),
(722,737,o),
(756,726,o),
(768,715,c),
(773,725,o),
(775,735,o),
(775,744,cs),
(775,772,o),
(753,794,o),
(716,794,cs),
(636,794,o),
(576,693,o),
(513,547,c)
);
}
);
};
layerId = master02;
shapes = (
{
closed = 1;
nodes = (
(392,-87,o),
(507,24,o),
(577,158,c),
(551,175,l),
(497,62,o),
(382,-39,o),
(274,-39,cs),
(169,-39,o),
(129,55,o),
(129,151,cs),
(129,369,o),
(315,675,o),
(461,675,cs),
(494,675,o),
(506,660,o),
(506,636,cs),
(506,582,o),
(438,487,o),
(397,442,c),
(409,419,o),
(424,411,o),
(438,411,cs),
(499,411,o),
(561,548,o),
(561,628,cs),
(561,694,o),
(516,719,o),
(457,719,cs),
(252,719,o),
(32,423,o),
(32,160,cs),
(32,37,o),
(97,-87,o),
(250,-87,cs)
);
},
{
closed = 1;
nodes = (
(532,513,l),
(578,633,o),
(630,713,o),
(697,713,cs),
(722,713,o),
(756,702,o),
(768,691,c),
(773,701,o),
(775,719,o),
(775,732,cs),
(775,767,o),
(753,794,o),
(716,794,cs),
(636,794,o),
(576,693,o),
(513,547,c)
);
}
);
width = 570;
},
{
associatedMasterId = master01;
layerId = "6B293F8F-D2BE-48A5-BDC1-727EB7C73E6F";
name = "30 Jun 24 00:24";
shapes = (
{
closed = 1;
nodes = (
(353,-87,o),
(462,21,o),
(529,152,c),
(515,162,l),
(462,48,o),
(349,-53,o),
(243,-53,cs),
(142,-53,o),
(102,41,o),
(102,140,cs),
(102,365,o),
(292,689,o),
(436,689,cs),
(470,689,o),
(485,671,o),
(485,644,cs),
(485,587,o),
(419,489,o),
(378,443,c),
(386,426,o),
(398,420,o),
(409,420,cs),
(464,420,o),
(525,555,o),
(525,633,cs),
(525,695,o),
(487,719,o),
(433,719,cs),
(243,719,o),
(22,421,o),
(22,157,cs),
(22,35,o),
(77,-87,o),
(219,-87,cs)
);
},
{
closed = 1;
nodes = (
(503,537,l),
(543,644,o),
(600,737,o),
(661,737,cs),
(689,737,o),
(708,728,o),
(708,713,cs),
(708,707,o),
(704,699,o),
(696,690,c),
(727,708,o),
(743,732,o),
(743,753,cs),
(743,776,o),
(723,794,o),
(682,794,cs),
(617,794,o),
(542,683,o),
(484,547,c)
);
}
);
width = 534;
}
);
unicode = 391;
},
{
color = 6;
glyphname = D;
kernLeft = D;
kernRight = D;
lastChange = "2024-08-22 18:25:00 +0000";
layers = (
{
anchors = (
{
name = bottom;
pos = (292,-60);
},
{
name = center;
pos = (191,315);
},
{
name = top;
pos = (424,715);
}
);
layerId = master01;
shapes = (
{
closed = 1;
nodes = (
(397,-87,o),
(643,157,o),
(643,446,cs),
(643,600,o),
(573,720,o),
(394,720,cs),
(221,720,o),
(80,610,o),
(80,517,cs),
(80,486,o),
(96,461,o),
(140,461,c),
(137,470,o),
(135,482,o),
(135,498,cs),
(135,608,o),
(233,693,o),
(364,693,cs),
(485,693,o),
(569,619,o),
(569,457,cs),
(569,209,o),
(374,-61,o),
(162,-61,cs),
(149,-61,o),
(137,-60,o),
(119,-57,c),
(161,136,o),
(252,431,o),
(335,622,c),
(325,629,o),
(316,632,o),
(307,632,cs),
(267,632,o),
(237,559,o),
(229,538,cs),
(200,461,o),
(96,148,o),
(56,-42,c),
(82,-79,o),
(121,-87,o),
(163,-87,cs)
);
}
);
userData = {
com.schriftgestaltung.hints = (
{
horizontal = 0;
options = 0;
place = (
80,
55
);
stem = -2;
},
{
horizontal = 0;
options = 0;
place = (
569,
74
);
stem = -2;
},
{
horizontal = 1;
options = 0;
place = (
-87,
26
);
stem = -2;
},
{
horizontal = 1;
options = 0;
place = (
693,
27
);
stem = -2;
}
);
};
width = 653;
},
{
anchors = (
{
name = bottom;
pos = (308,-66);
},
{
name = center;
pos = (199,316);
},
{
name = top;
pos = (435,715);
}
);
layerId = master02;
shapes = (
{
closed = 1;
nodes = (
(435,-87,o),
(686,153,o),
(686,440,cs),
(686,596,o),
(612,720,o),
(417,720,cs),
(231,720,o),
(85,608,o),
(85,515,cs),
(85,479,o),
(107,451,o),
(165,451,c),
(158,467,o),
(156,484,o),
(156,499,cs),
(156,602,o),
(253,679,o),
(384,679,cs),
(507,679,o),
(597,611,o),
(597,450,cs),
(597,241,o),
(417,-50,o),
(201,-50,cs),
(184,-50,o),
(162,-48,o),
(151,-44,c),
(192,145,o),
(281,432,o),
(364,620,c),
(349,630,o),
(336,634,o),
(326,634,cs),
(280,634,o),
(249,559,o),
(241,537,cs),
(212,462,o),
(82,59,o),
(70,-37,c),
(101,-78,o),
(144,-87,o),
(191,-87,cs)
);
}
);
userData = {
com.schriftgestaltung.hints = (
{
horizontal = 0;
options = 0;
place = (
85,
71
);
stem = -2;
},
{
horizontal = 0;
options = 0;
place = (
597,
89
);
stem = -2;
},
{
horizontal = 1;
options = 0;
place = (
-87,
37
);
stem = -2;
},
{
horizontal = 1;
options = 0;
place = (
679,
41
);
stem = -2;
}
);
};
width = 687;
}
);
unicode = 68;
},
{
color = 4;
glyphname = Dhook;
lastChange = "2024-08-11 14:33:09 +0000";
layers = (
{
background = {
shapes = (
{
closed = 1;
nodes = (
(429,-87,o),
(675,154,o),
(675,452,cs),
(675,643,o),
(574,726,o),
(383,726,cs),
(223,726,o),
(87,672,o),
(87,549,cs),
(87,510,o),
(122,489,o),
(152,489,c),
(147,512,o),
(145,533,o),
(145,551,cs),
(145,667,o),
(244,696,o),
(356,696,cs),
(500,696,o),
(601,644,o),
(601,459,cs),
(601,199,o),
(400,-61,o),
(194,-61,cs),
(181,-61,o),
(169,-60,o),
(151,-57,c),
(198,156,o),
(302,485,o),
(395,696,c),
(385,703,o),
(378,706,o),
(371,706,cs),
(331,706,o),
(300,624,o),
(293,607,cs),
(260,527,o),
(134,172,o),
(88,-42,c),
(114,-79,o),
(153,-87,o),
(196,-87,cs)
);
}
);
};
layerId = master01;
shapes = (
{
closed = 1;
nodes = (
(431,-87,o),
(675,155,o),
(675,453,cs),
(675,641,o),
(578,726,o),
(376,726,cs),
(150,726,o),
(40,619,o),
(40,515,cs),
(40,469,o),
(61,438,o),
(97,438,cs),
(124,438,o),
(156,456,o),
(164,493,c),
(120,498,o),
(110,539,o),
(110,565,cs),
(110,665,o),
(251,696,o),
(359,696,cs),
(502,696,o),
(601,642,o),
(601,459,cs),
(601,197,o),
(399,-61,o),
(194,-61,cs),
(181,-61,o),
(169,-60,o),
(151,-57,c),
(198,156,o),
(302,485,o),
(395,696,c),
(385,703,o),
(378,706,o),
(371,706,cs),
(331,706,o),
(300,624,o),
(293,607,cs),
(260,527,o),
(134,172,o),
(88,-42,c),
(114,-79,o),
(153,-87,o),
(196,-87,cs)
);
}
);
width = 632;
},
{
background = {
shapes = (
{
closed = 1;
nodes = (
(412,-80,o),
(702,22,o),
(702,200,cs),
(702,288,o),
(631,348,o),
(487,368,c),
(584,391,o),
(696,442,o),
(696,561,cs),
(696,699,o),
(546,722,o),
(426,722,cs),
(133,722,o),
(62,594,o),
(62,512,cs),
(62,467,o),
(83,426,o),
(139,426,cs),
(186,426,o),
(199,456,o),
(209,499,c),
(170,499,o),
(161,524,o),
(161,549,cs),
(161,608,o),
(213,670,o),
(360,677,c),
(281,501,o),
(308,582,o),
(160,137,cs),
(150,107,o),
(146,89,o),
(146,78,cs),
(146,48,o),
(180,24,o),
(220,24,c),
(250,125,o),
(277,232,o),
(307,330,c),
(330,330,o),
(354,331,o),
(382,331,cs),
(492,331,o),
(629,316,o),
(629,214,cs),
(629,102,o),
(461,0,o),
(234,0,cs),
(167,0,o),
(149,9,o),
(136,9,cs),
(129,9,o),
(127,6,o),
(126,-1,cs),
(118,-50,o),
(169,-80,o),
(254,-80,cs)
);
},
{
closed = 1;
nodes = (
(349,487,o),
(384,594,o),
(428,681,c),
(435,682,o),
(444,683,o),
(453,683,cs),
(473,683,o),
(620,683,o),
(620,558,cs),
(620,429,o),
(462,383,o),
(317,378,c)
);
}
);
};
layerId = master02;
shapes = (
{
closed = 1;
nodes = (
(489,-87,o),
(740,151,o),
(740,441,cs),
(740,600,o),
(655,720,o),
(397,720,cs),
(139,720,o),
(40,605,o),
(40,517,cs),
(40,477,o),
(59,426,o),
(114,426,cs),
(172,426,o),
(188,484,o),
(188,499,c),
(150,499,o),
(140,524,o),
(140,549,cs),
(140,610,o),
(209,679,o),
(396,679,cs),
(572,679,o),
(651,606,o),
(651,452,cs),
(651,211,o),
(458,-50,o),
(256,-50,cs),
(238,-50,o),
(216,-48,o),
(205,-44,c),
(246,145,o),
(335,455,o),
(433,692,c),
(414,704,o),
(408,705,o),
(398,701,cs),
(331,674,o),
(295,537,o),
(294,533,cs),
(263,448,o),
(136,59,o),
(124,-37,c),
(155,-78,o),
(198,-87,o),
(245,-87,cs)
);
}
);
width = 741;
},
{
associatedMasterId = master01;
background = {
shapes = (
{
closed = 1;
nodes = (
(397,-87,o),
(643,157,o),
(643,446,cs),
(643,600,o),
(573,720,o),
(394,720,cs),
(222,720,o),
(80,610,o),
(80,517,cs),
(80,486,o),
(96,461,o),
(140,461,c),
(137,470,o),
(135,482,o),
(135,498,cs),
(135,608,o),
(233,693,o),
(364,693,cs),
(485,693,o),
(569,619,o),
(569,457,cs),
(569,209,o),
(374,-61,o),
(162,-61,cs),
(149,-61,o),
(137,-60,o),
(119,-57,c),
(161,136,o),
(252,431,o),
(335,622,c),
(325,629,o),
(316,632,o),
(307,632,cs),
(267,632,o),
(237,559,o),
(229,538,cs),
(200,461,o),
(96,148,o),
(56,-42,c),
(82,-79,o),
(121,-87,o),
(163,-87,cs)
);
}
);
};
layerId = "2641497D-F884-4164-8E09-00E83142B46C";
name = "29 Jun 24 23:44";
shapes = (
{
closed = 1;
nodes = (
(397,-87,o),
(643,153,o),
(643,454,cs),
(643,643,o),
(541,723,o),
(352,723,cs),
(217,723,o),
(79,675,o),
(52,542,c),
(55,514,o),
(72,500,o),
(102,489,c),
(120,624,o),
(210,696,o),
(348,696,cs),
(468,696,o),
(569,633,o),
(569,461,cs),
(569,198,o),
(368,-61,o),
(162,-61,cs),
(149,-61,o),
(137,-60,o),
(119,-57,c),
(166,156,o),
(270,485,o),
(363,696,c),
(353,703,o),
(346,706,o),
(339,706,cs),
(299,706,o),
(268,624,o),
(261,607,cs),
(228,527,o),
(102,172,o),
(56,-42,c),
(82,-79,o),
(121,-87,o),
(164,-87,cs)
);
}
);
width = 600;
},
{
associatedMasterId = master01;
background = {
shapes = (
{
closed = 1;
nodes = (
(366,-71,o),
(603,22,o),
(603,203,cs),
(603,268,o),
(573,354,o),
(375,366,c),
(478,383,o),
(604,435,o),
(604,565,cs),
(604,704,o),
(461,725,o),
(343,725,cs),
(279,725,o),
(210,719,o),
(153,691,cs),
(89,659,o),
(65,608,o),
(65,563,cs),
(65,512,o),
(96,492,o),
(130,489,c),
(128,500,o),
(121,531,o),
(121,559,cs),
(121,631,o),
(169,693,o),
(308,691,c),
(287,643,o),
(129,279,o),
(92,134,cs),
(85,107,o),
(83,89,o),
(83,77,cs),
(83,42,o),
(100,26,o),
(139,26,c),
(167,123,o),
(195,228,o),
(224,330,c),
(249,330,o),
(272,334,o),
(319,334,cs),
(454,334,o),
(540,301,o),
(540,216,cs),
(540,116,o),
(422,-10,o),
(172,-10,cs),
(118,-10,o),
(69,-4,o),
(63,-4,cs),
(61,-4,o),
(59,-5,o),
(59,-7,cs),
(59,-54,o),
(97,-71,o),
(178,-71,cs)
);
},
{
closed = 1;
nodes = (
(270,487,o),
(308,598,o),
(356,690,c),
(362,691,o),
(368,691,o),
(371,691,cs),
(489,691,o),
(544,651,o),
(544,567,cs),
(544,424,o),
(387,377,o),
(235,371,c)
);
}
);
};
layerId = "30BD54FC-E320-4DFD-AFE5-692266D9E5AA";
name = "24 Jul 24, 5:39 PM";
shapes = (
{
closed = 1;
nodes = (
(397,-87,o),
(643,154,o),
(643,452,cs),
(643,643,o),
(542,726,o),
(351,726,cs),
(191,726,o),
(55,672,o),
(55,549,cs),
(55,510,o),
(90,489,o),
(120,489,c),
(115,512,o),
(113,533,o),
(113,551,cs),
(113,667,o),
(212,696,o),
(324,696,cs),
(468,696,o),
(569,644,o),
(569,459,cs),
(569,199,o),
(368,-61,o),
(162,-61,cs),
(149,-61,o),
(137,-60,o),
(119,-57,c),
(166,156,o),
(270,485,o),
(363,696,c),
(353,703,o),
(346,706,o),
(339,706,cs),
(299,706,o),
(268,624,o),
(261,607,cs),
(228,527,o),
(102,172,o),
(56,-42,c),
(82,-79,o),
(121,-87,o),
(164,-87,cs)
);
}
);
width = 600;
}
);
unicode = 394;
},
{
glyphname = Eth;
kernLeft = D;
kernRight = D;
lastChange = "2024-06-30 01:10:40 +0000";
layers = (
{
layerId = master01;
shapes = (
{
closed = 1;
nodes = (
(398,-87,o),
(644,157,o),
(644,446,cs),
(644,604,o),
(574,720,o),
(388,720,cs),
(307,720,o),
(252,695,o),
(215,645,c),
(255,673,o),
(307,690,o),
(365,690,cs),
(486,690,o),
(570,619,o),
(570,457,cs),
(570,209,o),
(375,-61,o),
(163,-61,cs),
(150,-61,o),
(138,-60,o),
(120,-57,c),
(141,40,o),
(174,162,o),
(213,285,c),
(286,285,ls),
(314,285,o),
(356,290,o),
(389,314,c),
(360,317,o),
(294,323,o),
(225,323,c),
(260,431,o),
(299,537,o),
(336,622,c),
(326,629,o),
(317,632,o),
(308,632,cs),
(268,632,o),
(238,559,o),
(230,538,cs),
(217,503,o),
(188,420,o),
(157,321,c),
(92,317,o),
(43,304,o),
(32,274,c),
(78,281,o),
(107,284,o),
(145,284,c),
(111,174,o),
(76,51,o),
(57,-42,c),
(83,-79,o),
(122,-87,o),
(164,-87,cs)
);
}
);
userData = {
com.schriftgestaltung.hints = (
{
horizontal = 0;
options = 0;
place = (
81,
55
);
stem = -2;
},
{
horizontal = 0;
options = 0;
place = (
570,
74
);
stem = -2;
},
{
horizontal = 1;
options = 0;
place = (
-87,
26
);
stem = -2;
},
{
horizontal = 1;
options = 0;
place = (
285,
38
);
stem = -2;
},
{
horizontal = 1;
options = 0;
place = (
693,
27
);
stem = -2;
}
);
};
width = 654;
},
{
background = {
shapes = (
{
closed = 1;
nodes = (
(245,645,c),
(285,673,o),
(337,690,o),
(395,690,cs),
(516,690,o),
(600,619,o),
(600,457,cs),
(600,209,o),
(405,-61,o),
(193,-61,cs),
(180,-61,o),
(168,-60,o),
(150,-57,c),
(171,40,o),
(204,162,o),
(243,285,c),
(316,285,ls),
(344,285,o),
(386,290,o),
(419,314,c),
(390,317,o),
(324,323,o),
(255,323,c),
(290,431,o),
(329,537,o),
(366,622,c),
(356,629,o),
(347,632,o),
(338,632,cs),
(298,632,o),
(268,559,o),
(260,538,cs),
(247,503,o),
(218,420,o),
(187,321,c),
(122,317,o),
(73,304,o),
(62,274,c),
(108,281,o),
(137,284,o),
(175,284,c),
(141,174,o),
(106,51,o),
(87,-42,c),
(113,-79,o),
(152,-87,o),
(194,-87,cs),
(428,-87,o),
(674,157,o),
(674,446,cs),
(674,604,o),
(604,720,o),
(418,720,cs),
(337,720,o),
(282,695,o)
);
}
);
};
layerId = master02;
shapes = (
{
closed = 1;
nodes = (
(435,-87,o),
(686,148,o),
(686,434,cs),
(686,591,o),
(610,720,o),
(420,720,cs),
(315,720,o),
(238,681,o),
(208,620,c),
(254,656,o),
(312,679,o),
(383,679,cs),
(510,679,o),
(597,606,o),
(597,446,cs),
(597,208,o),
(403,-47,o),
(189,-47,cs),
(176,-47,o),
(166,-46,o),
(151,-44,c),
(171,49,o),
(202,163,o),
(239,279,c),
(311,279,ls),
(341,279,o),
(388,286,o),
(438,320,c),
(401,323,o),
(325,330,o),
(255,330,c),
(288,432,o),
(326,534,o),
(364,620,c),
(349,630,o),
(336,634,o),
(325,634,cs),
(280,634,o),
(250,560,o),
(241,537,cs),
(229,506,o),
(199,420,o),
(170,328,c),
(103,324,o),
(51,310,o),
(28,265,c),
(72,271,o),
(118,277,o),
(154,278,c),
(121,172,o),
(88,54,o),
(70,-37,c),
(101,-78,o),
(144,-87,o),
(192,-87,cs)
);
}
);
userData = {
com.schriftgestaltung.hints = (
{
horizontal = 0;
options = 0;
place = (
85,
71
);
stem = -2;
},
{
horizontal = 0;
options = 0;
place = (
597,
89
);
stem = -2;
},
{
horizontal = 1;
options = 0;
place = (
-87,
40
);
stem = -2;
},
{
horizontal = 1;
options = 0;
place = (
279,
51
);
stem = -2;
},
{
horizontal = 1;
options = 0;
place = (
679,
41
);
stem = -2;
}
);
};
width = 688;
}
);
unicode = 208;
},
{
color = 6;
glyphname = E;
kernLeft = E;
kernRight = E;
lastChange = "2024-08-30 21:38:39 +0000";
layers = (
{
anchors = (
{
name = bottom;
pos = (162,-77);
},
{
name = center;
pos = (234,342);
},
{
name = ogonek;
pos = (299,-58);
},
{
name = top;
pos = (388,715);
},
{
name = topleft;
pos = (146,715);
}
);
layerId = master01;
shapes = (
{
closed = 1;
nodes = (
(314,-87,o),
(422,16,o),
(492,152,c),
(478,162,l),
(425,48,o),
(312,-53,o),
(206,-53,cs),
(112,-53,o),
(78,26,o),
(78,92,cs),
(78,198,o),
(165,322,o),
(299,344,c),
(251,385,o),
(241,447,o),
(241,495,cs),
(241,604,o),
(291,696,o),
(384,696,cs),
(431,696,o),
(455,672,o),
(455,631,cs),
(455,579,o),
(418,533,o),
(371,492,c),
(379,475,o),
(393,460,o),
(408,460,cs),
(441,460,o),
(488,536,o),
(488,611,cs),
(488,680,o),
(448,719,o),
(374,719,cs),
(255,719,o),
(168,618,o),
(168,512,cs),
(168,456,o),
(192,397,o),
(244,354,c),
(100,340,o),
(-15,218,o),
(-15,95,cs),
(-15,-4,o),
(60,-87,o),
(180,-87,cs)
);
}
);
userData = {
com.schriftgestaltung.hints = (
{
horizontal = 0;
options = 0;
place = (
-15,
93
);
stem = -2;
},
{
horizontal = 0;
options = 0;
place = (
168,
73
);
stem = -2;
},
{
horizontal = 0;
options = 0;
place = (
455,
33
);
stem = -2;
},
{
horizontal = 1;
options = 0;
place = (
-87,
34
);
stem = -2;
},
{
horizontal = 1;
options = 0;
place = (
696,
23
);
stem = -2;
}
);
};
width = 498;
},
{
anchors = (
{
name = bottom;
pos = (184,-54);
},
{
name = center;
pos = (256,336);
},
{
name = ogonek;
pos = (327,-62);
},
{
name = top;
pos = (418,715);
},
{
name = topleft;
pos = (153,715);
}
);
layerId = master02;
shapes = (
{
closed = 1;
nodes = (
(352,-87,o),
(466,19,o),
(540,158,c),
(513,175,l),
(459,62,o),
(345,-42,o),
(236,-42,cs),
(140,-42,o),
(106,38,o),
(106,99,cs),
(106,199,o),
(197,316,o),
(342,339,c),
(286,382,o),
(268,444,o),
(268,501,cs),
(268,591,o),
(314,686,o),
(405,686,cs),
(448,686,o),
(477,665,o),
(477,625,cs),
(477,577,o),
(438,531,o),
(389,491,c),
(401,470,o),
(418,450,o),
(437,450,cs),
(474,450,o),
(523,526,o),
(523,604,cs),
(523,679,o),
(477,719,o),
(396,719,cs),
(266,719,o),
(179,616,o),
(179,510,cs),
(179,455,o),
(203,401,o),
(251,359,c),
(104,338,o),
(-4,219,o),
(-4,101,cs),
(-4,-3,o),
(81,-87,o),
(209,-87,cs)
);
}
);
userData = {
com.schriftgestaltung.hints = (
{
horizontal = 0;
options = 0;
place = (
-4,
110
);
stem = -2;
},
{
horizontal = 0;
options = 0;
place = (
179,
89
);
stem = -2;
},
{
horizontal = 0;
options = 0;
place = (
477,
46
);
stem = -2;
},
{
horizontal = 1;
options = 0;
place = (
-87,
45
);
stem = -2;
},
{
horizontal = 1;
options = 0;
place = (
686,
33
);
stem = -2;
}
);
};
width = 533;
}
);
unicode = 69;
},
{
color = 4;
glyphname = Eopen;
lastChange = "2024-08-12 02:15:38 +0000";
layers = (
{
background = {
shapes = (
{
closed = 1;
nodes = (
(314,-87,o),
(422,16,o),
(492,152,c),
(478,162,l),
(425,48,o),
(312,-53,o),
(206,-53,cs),
(112,-53,o),
(78,26,o),
(78,92,cs),
(78,198,o),
(165,322,o),
(299,344,c),
(251,385,o),
(241,447,o),
(241,495,cs),
(241,604,o),
(291,696,o),
(384,696,cs),
(431,696,o),
(455,672,o),
(455,631,cs),
(455,579,o),
(418,533,o),
(371,492,c),
(379,475,o),
(393,460,o),
(408,460,cs),
(441,460,o),
(488,536,o),
(488,611,cs),
(488,680,o),
(448,719,o),
(374,719,cs),
(255,719,o),
(168,618,o),
(168,512,cs),
(168,456,o),
(192,397,o),
(244,354,c),
(100,340,o),
(-15,218,o),
(-15,95,cs),
(-15,-4,o),
(60,-87,o),
(180,-87,cs)
);
},
{
closed = 1;
nodes = (
(314,-87,o),
(422,16,o),
(492,152,c),
(478,162,l),
(425,48,o),
(312,-53,o),
(206,-53,cs),
(112,-53,o),
(78,26,o),
(78,92,cs),
(78,198,o),
(165,322,o),
(299,344,c),
(251,385,o),
(241,447,o),
(241,496,cs),
(241,604,o),
(291,696,o),
(381,696,cs),
(432,696,o),
(451,667,o),
(451,631,cs),
(451,606,o),
(442,577,o),
(426,551,c),
(469,559,o),
(495,592,o),
(495,630,cs),
(495,678,o),
(452,719,o),
(375,719,cs),
(255,719,o),
(168,618,o),
(168,512,cs),
(168,456,o),
(192,397,o),
(244,354,c),
(100,340,o),
(-15,218,o),
(-15,95,cs),
(-15,-4,o),
(60,-87,o),
(180,-87,cs)
);
}
);
};
layerId = master01;
shapes = (
{
closed = 1;
nodes = (
(281,-88,o),
(378,15,o),
(441,151,c),
(429,161,l),
(381,47,o),
(279,-54,o),
(184,-54,cs),
(99,-54,o),
(69,25,o),
(69,91,cs),
(69,197,o),
(147,321,o),
(268,343,c),
(223,385,o),
(213,446,o),
(213,499,cs),
(213,603,o),
(252,695,o),
(329,695,cs),
(377,695,o),
(413,660,o),
(416,602,c),
(435,605,o),
(452,627,o),
(452,650,cs),
(452,686,o),
(409,718,o),
(343,718,cs),
(225,718,o),
(150,617,o),
(150,511,cs),
(150,455,o),
(171,396,o),
(218,353,c),
(89,339,o),
(-15,217,o),
(-15,94,cs),
(-15,-5,o),
(53,-88,o),
(161,-88,cs)
);
}
);
width = 408;
},
{
background = {
shapes = (
{
closed = 1;
nodes = (
(281,-88,o),
(378,15,o),
(441,151,c),
(429,161,l),
(381,47,o),
(279,-54,o),
(184,-54,cs),
(99,-54,o),
(69,25,o),
(69,91,cs),
(69,197,o),
(147,321,o),
(268,343,c),
(223,385,o),
(213,446,o),
(213,499,cs),
(213,603,o),
(252,695,o),
(329,695,cs),
(377,695,o),
(413,660,o),
(416,602,c),
(435,605,o),
(452,627,o),
(452,650,cs),
(452,686,o),
(409,718,o),
(343,718,cs),
(225,718,o),
(150,617,o),
(150,511,cs),
(150,455,o),
(171,396,o),
(218,353,c),
(89,339,o),
(-15,217,o),
(-15,94,cs),
(-15,-5,o),
(53,-88,o),
(161,-88,cs)
);
}
);
};
layerId = master02;
shapes = (
{
closed = 1;
nodes = (
(290,-88,o),
(395,15,o),
(463,151,c),
(429,175,l),
(383,61,o),
(286,-40,o),
(195,-40,cs),
(118,-40,o),
(91,31,o),
(91,91,cs),
(91,197,o),
(169,321,o),
(290,343,c),
(245,385,o),
(235,446,o),
(235,499,cs),
(235,596,o),
(271,681,o),
(340,681,cs),
(382,681,o),
(413,646,o),
(416,588,c),
(447,592,o),
(474,620,o),
(474,650,cs),
(474,686,o),
(422,718,o),
(343,718,cs),
(225,718,o),
(150,617,o),
(150,511,cs),
(150,455,o),
(171,396,o),
(218,353,c),
(89,339,o),
(-15,217,o),
(-15,94,cs),
(-15,-5,o),
(53,-88,o),
(161,-88,cs)
);
}
);
width = 430;
},
{
associatedMasterId = master01;
background = {
shapes = (
{
closed = 1;
nodes = (
(314,-87,o),
(422,16,o),
(492,152,c),
(478,162,l),
(425,48,o),
(312,-53,o),
(206,-53,cs),
(112,-53,o),
(78,26,o),
(78,92,cs),
(78,198,o),
(165,322,o),
(299,344,c),
(251,385,o),
(241,447,o),
(241,495,cs),
(241,604,o),
(291,696,o),
(384,696,cs),
(431,696,o),
(455,672,o),
(455,631,cs),
(455,579,o),
(418,533,o),
(371,492,c),
(379,475,o),
(393,460,o),
(408,460,cs),
(441,460,o),
(488,536,o),
(488,611,cs),
(488,680,o),
(448,719,o),
(374,719,cs),
(255,719,o),
(168,618,o),
(168,512,cs),
(168,456,o),
(192,397,o),
(244,354,c),
(100,340,o),
(-15,218,o),
(-15,95,cs),
(-15,-4,o),
(60,-87,o),
(180,-87,cs)
);
}
);
};
layerId = "519FB1F4-16EA-4E5A-B7AC-802D97936AEA";
name = "24 Jul 24, 6:32 PM";
shapes = (
{
closed = 1;
nodes = (
(314,-87,o),
(422,16,o),
(492,152,c),
(478,162,l),
(425,48,o),
(312,-53,o),
(206,-53,cs),
(112,-53,o),
(78,26,o),
(78,92,cs),
(78,198,o),
(165,322,o),
(299,344,c),
(251,385,o),
(241,447,o),
(241,496,cs),
(241,604,o),
(291,696,o),
(381,696,cs),
(432,696,o),
(451,667,o),
(451,631,cs),
(451,606,o),
(442,577,o),
(426,551,c),
(469,559,o),
(495,592,o),
(495,630,cs),
(495,678,o),
(452,719,o),
(375,719,cs),
(255,719,o),
(168,618,o),
(168,512,cs),
(168,456,o),
(192,397,o),
(244,354,c),
(100,340,o),
(-15,218,o),
(-15,95,cs),
(-15,-4,o),
(60,-87,o),
(180,-87,cs)
);
}
);
width = 498;
}
);
unicode = 400;
},
{
color = 4;
glyphname = Ereversed;
lastChange = "2024-08-30 21:37:36 +0000";
layers = (
{
anchors = (
{
name = bottom;
pos = (123,-74);
},
{
name = top;
pos = (367,715);
}
);
background = {
shapes = (
{
closed = 1;
nodes = (
(166,719,o),
(58,616,o),
(-12,480,c),
(2,470,l),
(55,584,o),
(168,685,o),
(274,685,cs),
(368,685,o),
(402,606,o),
(402,540,cs),
(402,434,o),
(315,310,o),
(181,288,c),
(229,247,o),
(239,185,o),
(239,136,cs),
(239,28,o),
(189,-64,o),
(99,-64,cs),
(48,-64,o),
(29,-35,o),
(29,1,cs),
(29,26,o),
(38,55,o),
(54,81,c),
(11,73,o),
(-15,40,o),
(-15,2,cs),
(-15,-46,o),
(28,-87,o),
(105,-87,cs),
(225,-87,o),
(312,14,o),
(312,120,cs),
(312,176,o),
(288,235,o),
(236,278,c),
(380,292,o),
(495,414,o),
(495,537,cs),
(495,636,o),
(420,719,o),
(300,719,cs)
);
}
);
};
layerId = master01;
shapes = (
{
closed = 1;
nodes = (
(283,-87,o),
(427,19,o),
(429,158,cs),
(430,227,o),
(397,306,o),
(300,344,c),
(416,382,o),
(512,497,o),
(514,591,cs),
(515,671,o),
(445,719,o),
(356,719,cs),
(259,719,o),
(171,663,o),
(170,589,cs),
(169,556,o),
(187,536,o),
(226,520,c),
(217,541,o),
(216,562,o),
(216,573,cs),
(218,666,o),
(291,696,o),
(340,696,cs),
(405,696,o),
(440,642,o),
(439,584,cs),
(437,496,o),
(353,396,o),
(243,341,c),
(318,311,o),
(335,258,o),
(334,191,cs),
(331,33,o),
(228,-63,o),
(129,-63,cs),
(65,-63,o),
(45,-22,o),
(46,23,cs),
(46,58,o),
(60,95,o),
(76,115,c),
(9,107,o),
(-20,47,o),
(-20,10,cs),
(-21,-52,o),
(53,-87,o),
(137,-87,cs)
);
}
);
width = 485;
},
{
anchors = (
{
name = bottom;
pos = (133,-74);
},
{
name = top;
pos = (377,715);
}
);
background = {
shapes = (
{
closed = 1;
nodes = (
(283,-87,o),
(427,19,o),
(429,158,cs),
(430,227,o),
(397,306,o),
(300,344,c),
(416,382,o),
(512,497,o),
(514,591,cs),
(515,671,o),
(445,719,o),
(356,719,cs),
(259,719,o),
(171,663,o),
(170,589,cs),
(169,556,o),
(187,536,o),
(226,520,c),
(217,541,o),
(216,562,o),
(216,573,cs),
(218,666,o),
(291,696,o),
(340,696,cs),
(405,696,o),
(440,642,o),
(439,584,cs),
(437,496,o),
(353,396,o),
(243,341,c),
(318,311,o),
(335,258,o),
(334,191,cs),
(331,33,o),
(228,-63,o),
(129,-63,cs),
(65,-63,o),
(45,-22,o),
(46,23,cs),
(46,58,o),
(60,95,o),
(76,115,c),
(9,107,o),
(-20,47,o),
(-20,10,cs),
(-21,-52,o),
(53,-87,o),
(137,-87,cs)
);
}
);
};
layerId = master02;
shapes = (
{
closed = 1;
nodes = (
(298,-87,o),
(446,14,o),
(451,154,cs),
(454,231,o),
(415,310,o),
(328,344,c),
(444,382,o),
(534,497,o),
(536,591,cs),
(537,671,o),
(462,719,o),
(367,719,cs),
(264,719,o),
(171,663,o),
(170,589,cs),
(169,549,o),
(194,522,o),
(248,506,c),
(239,527,o),
(238,548,o),
(238,559,cs),
(240,652,o),
(306,682,o),
(351,682,cs),
(409,682,o),
(440,635,o),
(439,584,cs),
(437,496,o),
(353,396,o),
(243,341,c),
(318,311,o),
(335,258,o),
(334,191,cs),
(331,42,o),
(234,-49,o),
(140,-49,cs),
(87,-49,o),
(67,-11,o),
(68,30,cs),
(68,62,o),
(82,106,o),
(98,124,c),
(16,116,o),
(-20,47,o),
(-20,10,cs),
(-21,-52,o),
(56,-87,o),
(146,-87,cs)
);
}
);
width = 507;
},
{
associatedMasterId = master01;
background = {
shapes = (
{
closed = 1;
nodes = (
(166,719,o),
(58,616,o),
(-12,480,c),
(2,470,l),
(55,584,o),
(168,685,o),
(274,685,cs),
(368,685,o),
(402,606,o),
(402,540,cs),
(402,434,o),
(315,310,o),
(181,288,c),
(229,247,o),
(239,185,o),
(239,136,cs),
(239,28,o),
(189,-64,o),
(99,-64,cs),
(48,-64,o),
(29,-35,o),
(29,1,cs),
(29,26,o),
(38,55,o),
(54,81,c),
(11,73,o),
(-15,40,o),
(-15,2,cs),
(-15,-46,o),
(28,-87,o),
(105,-87,cs),
(225,-87,o),
(312,14,o),
(312,120,cs),
(312,176,o),
(288,235,o),
(236,278,c),
(380,292,o),
(495,414,o),
(495,537,cs),
(495,636,o),
(420,719,o),
(300,719,cs)
);
}
);
};
layerId = "0719F795-1045-4D28-BE60-83A29BB7C88F";
name = "2 Jul 24 18:20";
shapes = (
{
closed = 1;
nodes = (
(308,-87,o),
(440,50,o),
(440,187,cs),
(440,252,o),
(410,326,o),
(307,351,c),
(418,388,o),
(509,500,o),
(509,591,cs),
(509,671,o),
(438,719,o),
(349,719,cs),
(252,719,o),
(165,663,o),
(165,589,cs),
(165,556,o),
(183,536,o),
(222,520,c),
(213,541,o),
(212,562,o),
(212,573,cs),
(212,666,o),
(284,696,o),
(333,696,cs),
(398,696,o),
(434,642,o),
(434,584,cs),
(434,496,o),
(352,396,o),
(243,341,c),
(318,331,o),
(336,258,o),
(336,191,cs),
(336,33,o),
(235,-63,o),
(136,-63,cs),
(72,-63,o),
(51,-22,o),
(51,23,cs),
(51,58,o),
(64,95,o),
(80,115,c),
(13,107,o),
(-15,47,o),
(-15,10,cs),
(-15,-52,o),
(60,-87,o),
(143,-87,cs)
);
}
);
width = 485;
}
);
unicode = 398;
},
{
color = 4;
glyphname = Esh;
lastChange = "2024-08-30 21:37:55 +0000";
layers = (
{
anchors = (
{
name = bottom;
pos = (123,-74);
},
{
name = top;
pos = (327,715);
}
);
background = {
shapes = (
{
closed = 1;
nodes = (
(294,-87,o),
(402,16,o),
(472,152,c),
(458,162,l),
(405,48,o),
(292,-53,o),
(186,-53,cs),
(92,-53,o),
(58,26,o),
(58,92,cs),
(58,198,o),
(145,322,o),
(279,344,c),
(231,385,o),
(221,447,o),
(221,495,cs),
(221,604,o),
(271,696,o),
(364,696,cs),
(411,696,o),
(435,672,o),
(435,631,cs),
(435,579,o),
(398,533,o),
(351,492,c),
(359,475,o),
(373,460,o),
(388,460,cs),
(421,460,o),
(468,536,o),
(468,611,cs),
(468,680,o),
(428,719,o),
(354,719,cs),
(235,719,o),
(148,618,o),
(148,512,cs),
(148,456,o),
(172,397,o),
(224,354,c),
(80,340,o),
(-35,218,o),
(-35,95,cs),
(-35,-4,o),
(40,-87,o),
(160,-87,cs)
);
}
);
};
layerId = master01;
shapes = (
{
closed = 1;
nodes = (
(-65,-32,o),
(-79,-63,o),
(-79,-80,cs),
(-79,-83,o),
(-79,-86,o),
(-78,-88,c),
(27,-69,o),
(159,-71,o),
(276,-71,cs),
(306,-71,o),
(346,-48,o),
(369,-9,c),
(331,-8,o),
(210,-4,o),
(142,-4,cs),
(83,-4,o),
(31,-7,o),
(3,-14,c),
(157,219,o),
(240,285,o),
(293,338,cs),
(315,360,o),
(322,373,o),
(309,398,cs),
(294,426,o),
(215,548,o),
(165,674,c),
(254,677,o),
(380,676,o),
(437,676,cs),
(463,676,o),
(490,701,o),
(502,722,c),
(418,709,o),
(322,716,o),
(188,716,cs),
(155,716,o),
(124,715,o),
(112,710,cs),
(96,704,o),
(93,695,o),
(93,690,cs),
(93,679,o),
(105,651,o),
(117,619,cs),
(143,553,o),
(194,461,o),
(256,359,c),
(121,234,o),
(32,105,o),
(-59,-24,cs)
);
}
);
width = 435;
},
{
anchors = (
{
name = bottom;
pos = (133,-74);
},
{
name = top;
pos = (337,715);
}
);
background = {
shapes = (
{
closed = 1;
nodes = (
(-65,-32,o),
(-79,-63,o),
(-79,-80,cs),
(-79,-83,o),
(-79,-86,o),
(-78,-88,c),
(27,-69,o),
(159,-71,o),
(276,-71,cs),
(306,-71,o),
(346,-48,o),
(369,-9,c),
(331,-8,o),
(210,-4,o),
(142,-4,cs),
(83,-4,o),
(31,-7,o),
(3,-14,c),
(157,219,o),
(240,285,o),
(293,338,cs),
(315,360,o),
(322,373,o),
(309,398,cs),
(294,426,o),
(215,548,o),
(165,674,c),
(254,677,o),
(380,676,o),
(437,676,cs),
(463,676,o),
(490,701,o),
(502,722,c),
(418,709,o),
(322,716,o),
(188,716,cs),
(155,716,o),
(124,715,o),
(112,710,cs),
(96,704,o),
(93,695,o),
(93,690,cs),
(93,679,o),
(105,651,o),
(117,619,cs),
(143,553,o),
(194,461,o),
(256,359,c),
(121,234,o),
(32,105,o),
(-59,-24,cs)
);
}
);
};
layerId = master02;
shapes = (
{
closed = 1;
nodes = (
(-65,-32,o),
(-79,-63,o),
(-79,-80,cs),
(-79,-83,o),
(-79,-86,o),
(-78,-88,c),
(34,-69,o),
(174,-71,o),
(298,-71,cs),
(328,-71,o),
(368,-43,o),
(391,5,c),
(353,6,o),
(232,10,o),
(164,10,cs),
(105,10,o),
(53,7,o),
(25,0,c),
(179,224,o),
(263,286,o),
(315,338,cs),
(337,360,o),
(344,373,o),
(331,398,cs),
(317,425,o),
(237,540,o),
(187,660,c),
(276,663,o),
(402,662,o),
(459,662,cs),
(463,662,o),
(512,695,o),
(524,722,c),
(434,709,o),
(331,716,o),
(188,716,cs),
(155,716,o),
(124,715,o),
(112,710,cs),
(96,704,o),
(93,695,o),
(93,690,cs),
(93,679,o),
(105,651,o),
(117,619,cs),
(143,553,o),
(194,461,o),
(256,359,c),
(121,234,o),
(32,105,o),
(-59,-24,cs)
);
}
);
width = 457;
}
);
unicode = 425;
},
{
glyphname = Schwa;
lastChange = "2024-05-29 00:14:48 +0000";
layers = (
{
layerId = master01;
shapes = (
{
closed = 1;
nodes = (
(366,-87,o),
(587,211,o),
(587,475,cs),
(587,598,o),
(526,720,o),
(377,720,cs),
(204,720,o),
(81,560,o),
(81,473,cs),
(81,442,o),
(106,433,o),
(132,433,c),
(160,566,o),
(253,685,o),
(377,685,cs),
(473,685,o),
(507,597,o),
(507,492,cs),
(507,267,o),
(319,-57,o),
(177,-57,cs),
(143,-57,o),
(124,-29,o),
(124,17,cs),
(124,183,o),
(303,327,o),
(517,411,c),
(511,432,l),
(267,388,o),
(44,229,o),
(44,47,cs),
(44,-31,o),
(90,-87,o),
(176,-87,cs)
);
}
);
userData = {
com.schriftgestaltung.hints = (
{
horizontal = 0;
options = 0;
place = (
529,
-80
);
stem = -2;
},
{
horizontal = 0;
options = 0;
place = (
66,
-40
);
stem = -2;
},
{
horizontal = 1;
options = 0;
place = (
719,
-34
);
stem = -2;
},
{
horizontal = 1;
options = 0;
place = (
-57,
-30
);
stem = -2;
}
);
};
width = 593;
},
{
layerId = master02;
shapes = (
{
closed = 1;
nodes = (
(357,-87,o),
(577,209,o),
(577,472,cs),
(577,602,o),
(505,719,o),
(354,719,cs),
(199,719,o),
(49,574,o),
(49,481,cs),
(49,446,o),
(77,433,o),
(110,433,c),
(140,572,o),
(235,671,o),
(350,671,cs),
(449,671,o),
(480,583,o),
(480,481,cs),
(480,263,o),
(300,-43,o),
(158,-43,cs),
(125,-43,o),
(106,-20,o),
(106,17,cs),
(106,183,o),
(282,327,o),
(493,411,c),
(487,432,l),
(237,388,o),
(9,230,o),
(9,49,cs),
(9,-30,o),
(61,-87,o),
(152,-87,cs)
);
}
);
userData = {
com.schriftgestaltung.hints = (
{
horizontal = 0;
options = 0;
place = (
577,
-97
);
stem = -2;
},
{
horizontal = 0;
options = 0;
place = (
103,
-55
);
stem = -2;
},
{
horizontal = 1;
options = 0;
place = (
719,
-48
);
stem = -2;
},
{
horizontal = 1;
options = 0;
place = (
-43,
-44
);
stem = -2;
}
);
};
width = 571;
}
);
unicode = 399;
},
{
color = 6;
glyphname = Ezh;
lastChange = "2024-08-30 21:38:50 +0000";
layers = (
{
anchors = (
{
name = bottom;
pos = (85,-35);
},
{
name = top;
pos = (374,715);
}
);
background = {
shapes = (
{
closed = 1;
nodes = (
(191,-87,o),
(390,10,o),
(390,205,cs),
(390,284,o),
(368,387,o),
(162,396,c),
(245,446,o),
(318,496,o),
(363,552,cs),
(382,576,o),
(397,604,o),
(397,631,cs),
(397,689,o),
(337,720,o),
(252,720,cs),
(154,720,o),
(82,686,o),
(29,551,cs),
(-38,382,o),
(-104,181,o),
(-207,-151,cs),
(-212,-168,o),
(-221,-192,o),
(-221,-208,cs),
(-221,-235,o),
(-195,-256,o),
(-162,-256,c),
(-131,-151,o),
(-14,244,o),
(18,354,cs),
(45,446,o),
(68,516,o),
(90,577,cs),
(124,672,o),
(168,693,o),
(240,693,cs),
(295,693,o),
(347,674,o),
(347,641,cs),
(347,619,o),
(335,597,o),
(321,577,cs),
(285,526,o),
(213,479,o),
(143,422,cs),
(134,414,o),
(129,408,o),
(129,399,cs),
(129,384,o),
(142,379,o),
(161,379,cs),
(250,379,o),
(343,343,o),
(343,223,cs),
(343,102,o),
(230,-14,o),
(75,-14,cs),
(17,-14,o),
(0,-4,o),
(-9,-4,cs),
(-12,-4,o),
(-14,-5,o),
(-14,-7,cs),
(-14,-64,o),
(24,-87,o),
(87,-87,cs)
);
}
);
};
layerId = master01;
shapes = (
{
closed = 1;
nodes = (
(298,554,o),
(196,452,o),
(143,404,cs),
(132,394,o),
(128,387,o),
(128,380,cs),
(128,368,o),
(138,364,o),
(146,364,cs),
(150,364,o),
(156,365,o),
(161,366,cs),
(175,369,o),
(209,379,o),
(246,379,cs),
(324,379,o),
(343,335,o),
(343,280,cs),
(343,152,o),
(242,-14,o),
(53,-14,cs),
(-4,-14,o),
(-44,1,o),
(-50,1,cs),
(-52,1,o),
(-54,0,o),
(-54,-2,cs),
(-54,-59,o),
(-6,-87,o),
(61,-87,cs),
(213,-87,o),
(395,58,o),
(395,265,cs),
(395,332,o),
(376,410,o),
(267,410,cs),
(237,410,o),
(205,404,o),
(172,394,c),
(246,474,o),
(457,644,o),
(548,714,c),
(513,706,o),
(462,705,o),
(410,705,cs),
(399,705,o),
(319,708,o),
(292,708,cs),
(237,708,o),
(203,695,o),
(153,621,c),
(194,627,o),
(257,628,o),
(305,628,cs),
(353,628,o),
(382,628,o),
(395,627,c)
);
}
);
width = 440;
},
{
anchors = (
{
name = bottom;
pos = (85,-35);
},
{
name = top;
pos = (374,715);
}
);
background = {
shapes = (
{
closed = 1;
nodes = (
(298,554,o),
(196,452,o),
(143,404,cs),
(132,394,o),
(128,387,o),
(128,380,cs),
(128,368,o),
(138,364,o),
(146,364,cs),
(150,364,o),
(156,365,o),
(161,366,cs),
(175,369,o),
(209,379,o),
(246,379,cs),
(324,379,o),
(343,335,o),
(343,280,cs),
(343,152,o),
(242,-14,o),
(53,-14,cs),
(-4,-14,o),
(-44,1,o),
(-50,1,cs),
(-52,1,o),
(-54,0,o),
(-54,-2,cs),
(-54,-59,o),
(-6,-87,o),
(61,-87,cs),
(213,-87,o),
(395,58,o),
(395,265,cs),
(395,332,o),
(376,410,o),
(267,410,cs),
(237,410,o),
(205,404,o),
(172,394,c),
(246,474,o),
(457,644,o),
(548,714,c),
(513,706,o),
(462,705,o),
(410,705,cs),
(399,705,o),
(319,708,o),
(292,708,cs),
(237,708,o),
(203,695,o),
(153,621,c),
(194,627,o),
(257,628,o),
(305,628,cs),
(353,628,o),
(382,628,o),
(395,627,c)
);
}
);
};
layerId = master02;
shapes = (
{
closed = 1;
nodes = (
(288,545,o),
(193,449,o),
(143,404,cs),
(131,393,o),
(128,383,o),
(128,374,cs),
(128,362,o),
(138,358,o),
(146,358,cs),
(150,358,o),
(156,359,o),
(161,360,cs),
(175,363,o),
(209,373,o),
(247,373,cs),
(324,373,o),
(343,332,o),
(343,280,cs),
(343,158,o),
(242,0,o),
(53,0,cs),
(-4,0,o),
(-44,15,o),
(-50,15,cs),
(-52,15,o),
(-54,14,o),
(-54,12,cs),
(-54,-51,o),
(-8,-87,o),
(76,-87,cs),
(248,-87,o),
(417,66,o),
(417,267,cs),
(417,335,o),
(398,416,o),
(289,416,cs),
(259,416,o),
(227,410,o),
(194,400,c),
(268,479,o),
(479,645,o),
(570,714,c),
(529,706,o),
(470,705,o),
(410,705,cs),
(399,705,o),
(318,708,o),
(293,708,cs),
(237,708,o),
(203,693,o),
(153,607,c),
(189,613,o),
(245,614,o),
(288,614,cs),
(336,614,o),
(365,614,o),
(378,613,c)
);
}
);
width = 462;
}
);
unicode = 439;
},
{
color = 6;
glyphname = F;
lastChange = "2024-08-22 23:50:47 +0000";
layers = (
{
anchors = (
{
name = bottom;
pos = (113,-32);
},
{
name = top;
pos = (374,715);
}
);
layerId = master01;
shapes = (
{
closed = 1;
nodes = (
(153,-12,o),
(177,77,o),
(206,180,cs),
(213,204,o),
(235,280,o),
(248,323,c),
(396,326,o),
(416,327,o),
(438,358,c),
(390,359,o),
(330,370,o),
(263,374,c),
(296,478,o),
(332,591,o),
(359,657,c),
(420,651,o),
(470,640,o),
(501,640,cs),
(536,640,o),
(565,654,o),
(614,710,c),
(590,703,o),
(568,700,o),
(540,700,cs),
(477,700,o),
(411,715,o),
(341,715,cs),
(189,715,o),
(66,643,o),
(66,539,cs),
(66,497,o),
(86,469,o),
(132,461,c),
(123,487,o),
(119,510,o),
(119,540,cs),
(119,623,o),
(150,662,o),
(279,662,cs),
(292,662,o),
(305,661,o),
(318,660,c),
(279,579,o),
(239,477,o),
(202,375,c),
(130,373,o),
(74,356,o),
(71,305,c),
(135,314,o),
(158,317,o),
(182,319,c),
(136,194,o),
(84,63,o),
(84,-8,cs),
(84,-52,o),
(91,-82,o),
(152,-87,c)
);
}
);
userData = {
com.schriftgestaltung.hints = (
{
horizontal = 0;
options = 0;
place = (
66,
53
);
stem = -2;
},
{
horizontal = 0;
options = 0;
place = (
84,
68
);
stem = -2;
},
{
horizontal = 1;
options = 0;
place = (
323,
35
);
stem = -2;
},
{
horizontal = 1;
options = 0;
place = (
640,
60
);
stem = -2;
},
{
horizontal = 1;
options = 0;
place = (
662,
53
);
stem = -2;
},
{
horizontal = 1;
options = 0;
place = (
323,
52
);
stem = -2;
},
{
horizontal = 1;
options = 0;
place = (
-87,
21
);
stem = -2;
target = (
u,
p
);
type = BottomGhost;
}
);
};
width = 482;
},
{
anchors = (
{
name = bottom;
pos = (147,-27);
},
{
name = top;
pos = (407,715);
}
);
layerId = master02;
shapes = (
{
closed = 1;
nodes = (
(188,-27,o),
(200,47,o),
(237,175,cs),
(240,185,o),
(261,255,o),
(278,316,c),
(430,319,o),
(453,321,o),
(484,364,c),
(416,366,o),
(366,375,o),
(297,380,c),
(329,481,o),
(360,579,o),
(387,643,c),
(446,639,o),
(499,627,o),
(531,627,cs),
(570,627,o),
(605,645,o),
(669,716,c),
(629,705,o),
(601,701,o),
(568,701,cs),
(507,701,o),
(434,715,o),
(363,715,cs),
(199,715,o),
(73,641,o),
(73,537,cs),
(73,492,o),
(97,460,o),
(160,450,c),
(147,482,o),
(140,506,o),
(140,540,cs),
(140,609,o),
(170,649,o),
(293,649,cs),
(312,649,o),
(321,648,o),
(329,647,c),
(292,571,o),
(255,477,o),
(220,381,c),
(144,379,o),
(78,359,o),
(73,298,c),
(103,303,o),
(173,309,o),
(195,311,c),
(145,194,o),
(102,68,o),
(102,-6,cs),
(102,-50,o),
(117,-82,o),
(188,-87,c)
);
}
);
userData = {
com.schriftgestaltung.hints = (
{
horizontal = 0;
options = 0;
place = (
73,
67
);
stem = -2;
},
{
horizontal = 0;
options = 0;
place = (
102,
86
);
stem = -2;
},
{
horizontal = 1;
options = 0;
place = (
316,
48
);
stem = -2;
},
{
horizontal = 1;
options = 0;
place = (
627,
74
);
stem = -2;
},
{
horizontal = 1;
options = 0;
place = (
649,
52
);
stem = -2;
},
{
horizontal = 1;
options = 0;
place = (
649,
66
);
stem = -2;
},
{
horizontal = 1;
options = 0;
place = (
316,
65
);
stem = -2;
},
{
horizontal = 1;
options = 0;
place = (
-87,
21
);
stem = -2;
target = (
u,
p
);
type = BottomGhost;
},
{
horizontal = 1;
options = 0;
place = (
716,
-20
);
stem = -2;
target = (
d,
o,
w,
n
);
type = TopGhost;
}
);
};
width = 522;
}
);
unicode = 70;
},
{
color = 4;
glyphname = Fhook;
lastChange = "2024-08-11 18:19:05 +0000";
layers = (
{
background = {
shapes = (
{
closed = 1;
nodes = (
(29,-281,o),
(99,-175,o),
(127,-83,cs),
(148,-14,o),
(184,102,o),
(206,180,cs),
(213,204,o),
(235,280,o),
(248,323,c),
(396,326,o),
(416,327,o),
(438,358,c),
(390,359,o),
(330,370,o),
(263,374,c),
(296,478,o),
(332,591,o),
(359,657,c),
(420,651,o),
(470,640,o),
(501,640,cs),
(536,640,o),
(565,654,o),
(614,710,c),
(590,703,o),
(568,700,o),
(540,700,cs),
(477,700,o),
(410,715,o),
(342,715,cs),
(236,715,o),
(202,679,o),
(179,653,c),
(192,654,o),
(221,662,o),
(273,662,cs),
(292,662,o),
(305,661,o),
(318,660,c),
(279,579,o),
(239,477,o),
(202,375,c),
(130,373,o),
(74,356,o),
(71,305,c),
(135,314,o),
(158,317,o),
(182,319,c),
(152,222,o),
(118,122,o),
(98,46,cs),
(82,-14,o),
(48,-138,o),
(37,-176,cs),
(20,-233,o),
(9,-250,o),
(-11,-250,cs),
(-30,-250,o),
(-115,-225,o),
(-128,-158,c),
(-153,-178,o),
(-163,-196,o),
(-163,-212,cs),
(-163,-253,o),
(-95,-281,o),
(-40,-281,cs)
);
}
);
};
layerId = master01;
shapes = (
{
closed = 1;
nodes = (
(29,-281,o),
(99,-175,o),
(127,-83,cs),
(148,-14,o),
(184,102,o),
(206,180,cs),
(213,204,o),
(235,280,o),
(248,323,c),
(396,326,o),
(416,327,o),
(438,358,c),
(390,359,o),
(330,370,o),
(263,374,c),
(296,478,o),
(332,591,o),
(359,657,c),
(420,651,o),
(470,640,o),
(501,640,cs),
(536,640,o),
(565,654,o),
(614,710,c),
(590,703,o),
(568,700,o),
(540,700,cs),
(477,700,o),
(410,715,o),
(342,715,cs),
(236,715,o),
(202,679,o),
(179,653,c),
(192,654,o),
(221,662,o),
(273,662,cs),
(292,662,o),
(305,661,o),
(318,660,c),
(279,579,o),
(239,477,o),
(202,375,c),
(130,373,o),
(74,356,o),
(71,305,c),
(135,314,o),
(158,317,o),
(182,319,c),
(152,222,o),
(118,122,o),
(98,46,cs),
(82,-14,o),
(48,-138,o),
(37,-176,cs),
(20,-233,o),
(9,-250,o),
(-11,-250,cs),
(-30,-250,o),
(-115,-225,o),
(-128,-158,c),
(-153,-178,o),
(-163,-196,o),
(-163,-212,cs),
(-163,-253,o),
(-95,-281,o),
(-40,-281,cs)
);
}
);
width = 482;
},
{
background = {
shapes = (
{
closed = 1;
nodes = (
(47,-280,o),
(115,-174,o),
(143,-83,cs),
(164,-14,o),
(200,102,o),
(222,180,cs),
(229,204,o),
(251,280,o),
(264,323,c),
(412,326,o),
(432,327,o),
(454,358,c),
(406,359,o),
(346,370,o),
(279,374,c),
(312,478,o),
(348,591,o),
(375,657,c),
(436,651,o),
(486,640,o),
(517,640,cs),
(552,640,o),
(581,654,o),
(630,710,c),
(606,703,o),
(584,700,o),
(556,700,cs),
(493,700,o),
(426,715,o),
(358,715,cs),
(252,715,o),
(218,679,o),
(195,653,c),
(208,654,o),
(237,662,o),
(289,662,cs),
(308,662,o),
(321,661,o),
(334,660,c),
(295,579,o),
(255,477,o),
(218,375,c),
(146,373,o),
(90,356,o),
(87,305,c),
(151,314,o),
(174,317,o),
(198,319,c),
(168,222,o),
(134,122,o),
(114,46,cs),
(98,-14,o),
(64,-138,o),
(53,-176,cs),
(36,-233,o),
(25,-250,o),
(5,-250,cs),
(-14,-250,o),
(-99,-225,o),
(-112,-158,c),
(-203,-229,o),
(-99,-282,o),
(-22,-281,cs)
);
}
);
};
layerId = master02;
shapes = (
{
closed = 1;
nodes = (
(44,-281,o),
(99,-236,o),
(149,-109,cs),
(181,-28,o),
(206,72,o),
(237,175,cs),
(240,185,o),
(261,255,o),
(278,316,c),
(430,319,o),
(453,321,o),
(484,364,c),
(416,366,o),
(366,375,o),
(297,380,c),
(329,481,o),
(360,579,o),
(387,643,c),
(446,639,o),
(499,627,o),
(531,627,cs),
(570,627,o),
(605,645,o),
(669,716,c),
(629,705,o),
(601,701,o),
(568,701,cs),
(506,701,o),
(436,715,o),
(361,715,cs),
(262,715,o),
(219,691,o),
(177,626,c),
(206,642,o),
(251,649,o),
(294,649,cs),
(310,649,o),
(321,648,o),
(329,647,c),
(292,571,o),
(255,477,o),
(220,381,c),
(144,379,o),
(78,359,o),
(73,298,c),
(103,303,o),
(173,309,o),
(195,311,c),
(149,146,o),
(131,89,o),
(113,25,cs),
(96,-34,o),
(78,-97,o),
(56,-156,cs),
(38,-204,o),
(22,-236,o),
(5,-236,cs),
(-32,-236,o),
(-111,-226,o),
(-135,-146,c),
(-164,-169,o),
(-176,-190,o),
(-176,-208,cs),
(-176,-254,o),
(-98,-281,o),
(-35,-281,cs)
);
}
);
width = 522;
},
{
associatedMasterId = master01;
background = {
shapes = (
{
closed = 1;
nodes = (
(153,-12,o),
(177,77,o),
(206,180,cs),
(213,204,o),
(235,280,o),
(248,323,c),
(396,326,o),
(416,327,o),
(438,358,c),
(390,359,o),
(330,370,o),
(263,374,c),
(296,478,o),
(332,591,o),
(359,657,c),
(420,651,o),
(470,640,o),
(501,640,cs),
(536,640,o),
(565,654,o),
(614,710,c),
(590,703,o),
(568,700,o),
(540,700,cs),
(477,700,o),
(411,715,o),
(341,715,cs),
(189,715,o),
(66,643,o),
(66,539,cs),
(66,497,o),
(86,469,o),
(132,461,c),
(123,487,o),
(119,510,o),
(119,540,cs),
(119,623,o),
(150,662,o),
(279,662,cs),
(292,662,o),
(305,661,o),
(318,660,c),
(279,579,o),
(239,477,o),
(202,375,c),
(130,373,o),
(74,356,o),
(71,305,c),
(135,314,o),
(158,317,o),
(182,319,c),
(136,194,o),
(84,63,o),
(84,-8,cs),
(84,-52,o),
(91,-82,o),
(152,-87,c)
);
}
);
};
layerId = "739A8F52-BFBB-4231-80CD-0D84CB94A1E8";
name = "29 May 24 00:07";
shapes = (
{
closed = 1;
nodes = (
(71,-281,o),
(99,-174,o),
(127,-83,cs),
(148,-14,o),
(184,102,o),
(206,180,cs),
(213,204,o),
(235,280,o),
(248,323,c),
(396,326,o),
(416,327,o),
(438,358,c),
(390,359,o),
(330,370,o),
(263,374,c),
(296,478,o),
(332,591,o),
(359,657,c),
(420,651,o),
(470,640,o),
(501,640,cs),
(536,640,o),
(565,654,o),
(614,710,c),
(590,703,o),
(568,700,o),
(540,700,cs),
(477,700,o),
(411,715,o),
(341,715,cs),
(189,715,o),
(66,643,o),
(66,539,cs),
(66,497,o),
(86,469,o),
(132,461,c),
(123,487,o),
(119,510,o),
(119,540,cs),
(119,623,o),
(150,662,o),
(279,662,cs),
(292,662,o),
(305,661,o),
(318,660,c),
(279,579,o),
(239,477,o),
(202,375,c),
(130,373,o),
(74,356,o),
(71,305,c),
(135,314,o),
(158,317,o),
(182,319,c),
(152,222,o),
(118,122,o),
(98,46,cs),
(82,-14,o),
(48,-138,o),
(37,-176,cs),
(20,-233,o),
(9,-250,o),
(-11,-250,cs),
(-32,-250,o),
(-47,-231,o),
(-47,-201,cs),
(-47,-165,o),
(-25,-134,o),
(-9,-118,cs),
(2,-107,o),
(12,-101,o),
(20,-96,c),
(6,-82,o),
(-7,-77,o),
(-20,-76,cs),
(-36,-75,o),
(-47,-81,o),
(-62,-96,cs),
(-85,-119,o),
(-96,-142,o),
(-96,-173,cs),
(-96,-244,o),
(-38,-281,o),
(2,-281,cs)
);
}
);
width = 600;
}
);
unicode = 401;
},
{
color = 6;
glyphname = G;
lastChange = "2024-08-22 23:52:13 +0000";
layers = (
{
anchors = (
{
name = bottom;
pos = (220,-74);
},
{
name = top;
pos = (433,715);
}
);
layerId = master01;
shapes = (
{
closed = 1;
nodes = (
(288,-87,o),
(350,-36,o),
(398,31,c),
(393,14,o),
(391,-1,o),
(391,-15,cs),
(391,-51,o),
(412,-74,o),
(445,-87,c),
(444,-60,o),
(441,-36,o),
(441,-9,cs),
(441,39,o),
(451,102,o),
(502,235,c),
(509,267,l),
(464,278,o),
(396,314,o),
(340,314,cs),
(305,314,o),
(281,300,o),
(272,262,c),
(297,262,o),
(315,263,o),
(333,263,cs),
(359,263,o),
(387,261,o),
(436,250,c),
(426,119,o),
(341,-53,o),
(236,-53,cs),
(159,-53,o),
(102,20,o),
(102,141,cs),
(102,363,o),
(292,689,o),
(436,689,cs),
(480,689,o),
(496,666,o),
(496,636,cs),
(496,582,o),
(446,503,o),
(418,483,c),
(426,466,o),
(438,460,o),
(449,460,cs),
(497,460,o),
(537,536,o),
(537,606,cs),
(537,665,o),
(509,719,o),
(433,719,cs),
(243,719,o),
(22,418,o),
(22,161,cs),
(22,4,o),
(104,-87,o),
(209,-87,cs)
);
}
);
userData = {
com.schriftgestaltung.hints = (
{
horizontal = 0;
options = 0;
place = (
22,
80
);
stem = -2;
},
{
horizontal = 0;
options = 0;
place = (
391,
50
);
stem = -2;
},
{
horizontal = 0;
options = 0;
place = (
496,
41
);
stem = -2;
},
{
horizontal = 1;
options = 0;
place = (
-87,
34
);
stem = -2;
},
{
horizontal = 1;
options = 0;
place = (
263,
51
);
stem = -2;
},
{
horizontal = 1;
options = 0;
place = (
689,
30
);
stem = -2;
}
);
};
width = 554;
},
{
anchors = (
{
name = bottom;
pos = (249,-56);
},
{
name = top;
pos = (456,715);
}
);
layerId = master02;
shapes = (
{
closed = 1;
nodes = (
(314,-87,o),
(374,-46,o),
(421,11,c),
(420,4,o),
(420,-2,o),
(420,-9,cs),
(420,-43,o),
(427,-86,o),
(488,-93,c),
(487,-52,o),
(485,-26,o),
(485,1,cs),
(485,60,o),
(493,97,o),
(542,243,c),
(552,274,l),
(491,287,o),
(427,322,o),
(368,322,cs),
(325,322,o),
(300,301,o),
(288,254,c),
(312,255,o),
(333,256,o),
(354,256,cs),
(393,256,o),
(427,253,o),
(461,246,c),
(450,119,o),
(372,-39,o),
(262,-39,cs),
(188,-39,o),
(128,32,o),
(128,153,cs),
(128,365,o),
(312,675,o),
(463,675,cs),
(501,675,o),
(517,655,o),
(517,628,cs),
(517,579,o),
(466,503,o),
(437,483,c),
(450,458,o),
(463,450,o),
(479,450,cs),
(531,450,o),
(573,530,o),
(573,601,cs),
(573,663,o),
(541,719,o),
(454,719,cs),
(252,719,o),
(32,421,o),
(32,164,cs),
(32,5,o),
(125,-87,o),
(238,-87,cs)
);
}
);
userData = {
com.schriftgestaltung.hints = (
{
horizontal = 0;
options = 0;
place = (
32,
96
);
stem = -2;
},
{
horizontal = 0;
options = 0;
place = (
517,
56
);
stem = -2;
},
{
horizontal = 1;
options = 0;
place = (
-87,
48
);
stem = -2;
},
{
horizontal = 1;
options = 0;
place = (
256,
66
);
stem = -2;
},
{
horizontal = 1;
options = 0;
place = (
675,
44
);
stem = -2;
},
{
horizontal = 1;
options = 0;
place = (
-93,
21
);
stem = -2;
target = (
u,
p
);
type = BottomGhost;
}
);
};
width = 585;
}
);
unicode = 71;
},
{
color = 4;
glyphname = Ghook;
lastChange = "2024-08-11 18:21:34 +0000";
layers = (
{
layerId = master01;
shapes = (
{
closed = 1;
nodes = (
(288,-87,o),
(350,-36,o),
(398,31,c),
(393,14,o),
(391,-1,o),
(391,-15,cs),
(391,-51,o),
(412,-74,o),
(445,-87,c),
(444,-60,o),
(441,-36,o),
(441,-9,cs),
(441,39,o),
(451,102,o),
(502,235,c),
(509,267,l),
(464,278,o),
(396,314,o),
(340,314,cs),
(305,314,o),
(281,300,o),
(272,262,c),
(297,262,o),
(315,263,o),
(333,263,cs),
(359,263,o),
(387,261,o),
(436,250,c),
(426,119,o),
(341,-53,o),
(236,-53,cs),
(159,-53,o),
(102,20,o),
(102,141,cs),
(102,363,o),
(292,689,o),
(436,689,cs),
(480,689,o),
(496,666,o),
(496,636,cs),
(496,582,o),
(446,503,o),
(418,483,c),
(426,466,o),
(438,460,o),
(449,460,cs),
(497,460,o),
(537,536,o),
(537,606,cs),
(537,665,o),
(509,719,o),
(433,719,cs),
(243,719,o),
(22,418,o),
(22,161,cs),
(22,4,o),
(104,-87,o),
(209,-87,cs)
);
},
{
closed = 1;
nodes = (
(525,537,l),
(571,657,o),
(623,737,o),
(690,737,cs),
(715,737,o),
(749,726,o),
(761,715,c),
(766,725,o),
(768,735,o),
(768,744,cs),
(768,772,o),
(746,794,o),
(709,794,cs),
(629,794,o),
(569,693,o),
(506,547,c)
);
}
);
width = 600;
},
{
layerId = master02;
shapes = (
{
closed = 1;
nodes = (
(314,-87,o),
(374,-46,o),
(421,11,c),
(420,4,o),
(420,-2,o),
(420,-9,cs),
(420,-43,o),
(427,-86,o),
(488,-93,c),
(487,-52,o),
(485,-26,o),
(485,1,cs),
(485,60,o),
(493,97,o),
(542,243,c),
(552,274,l),
(491,287,o),
(427,322,o),
(368,322,cs),
(325,322,o),
(300,301,o),
(288,254,c),
(312,255,o),
(333,256,o),
(354,256,cs),
(393,256,o),
(427,253,o),
(461,246,c),
(450,119,o),
(372,-39,o),
(262,-39,cs),
(188,-39,o),
(128,32,o),
(128,153,cs),
(128,365,o),
(312,675,o),
(463,675,cs),
(501,675,o),
(517,655,o),
(517,628,cs),
(517,579,o),
(466,503,o),
(437,483,c),
(450,458,o),
(463,450,o),
(479,450,cs),
(531,450,o),
(573,530,o),
(573,601,cs),
(573,663,o),
(541,719,o),
(454,719,cs),
(252,719,o),
(32,421,o),
(32,164,cs),
(32,5,o),
(125,-87,o),
(238,-87,cs)
);
},
{
closed = 1;
nodes = (
(570,571,l),
(611,656,o),
(658,713,o),
(718,713,cs),
(743,713,o),
(777,702,o),
(789,691,c),
(794,701,o),
(796,719,o),
(796,732,cs),
(796,767,o),
(774,794,o),
(737,794,cs),
(657,794,o),
(597,693,o),
(534,547,c)
);
}
);
width = 585;
},
{
associatedMasterId = master01;
layerId = "DAC59F08-C9CE-465B-A6E2-C47B7A377898";
name = "30 Jun 24 00:24";
shapes = (
{
closed = 1;
nodes = (
(288,-87,o),
(350,-36,o),
(398,31,c),
(393,14,o),
(391,-1,o),
(391,-15,cs),
(391,-51,o),
(412,-74,o),
(445,-87,c),
(444,-60,o),
(441,-36,o),
(441,-9,cs),
(441,39,o),
(451,102,o),
(502,235,c),
(509,267,l),
(464,278,o),
(396,314,o),
(340,314,cs),
(305,314,o),
(281,300,o),
(272,262,c),
(297,262,o),
(315,263,o),
(333,263,cs),
(359,263,o),
(387,261,o),
(436,250,c),
(426,119,o),
(341,-53,o),
(236,-53,cs),
(159,-53,o),
(102,20,o),
(102,141,cs),
(102,363,o),
(292,689,o),
(436,689,cs),
(480,689,o),
(496,666,o),
(496,636,cs),
(496,582,o),
(446,503,o),
(418,483,c),
(426,466,o),
(438,460,o),
(449,460,cs),
(497,460,o),
(537,536,o),
(537,606,cs),
(537,665,o),
(509,719,o),
(433,719,cs),
(243,719,o),
(22,418,o),
(22,161,cs),
(22,4,o),
(104,-87,o),
(209,-87,cs)
);
},
{
closed = 1;
nodes = (
(522,537,l),
(562,644,o),
(619,737,o),
(680,737,cs),
(708,737,o),
(727,728,o),
(727,713,cs),
(727,707,o),
(723,699,o),
(715,690,c),
(746,708,o),
(762,732,o),
(762,753,cs),
(762,776,o),
(742,794,o),
(701,794,cs),
(636,794,o),
(561,683,o),
(503,547,c)
);
}
);
width = 600;
}
);
unicode = 403;
},
{
color = 6;
glyphname = H;
lastChange = "2024-08-22 23:54:25 +0000";
layers = (
{
anchors = (
{
name = bottom;
pos = (272,0);
},
{
name = center;
pos = (387,509);
},
{
name = top;
pos = (454,715);
},
{
name = topleft;
pos = (20,715);
}
);
layerId = master01;
shapes = (
{
closed = 1;
nodes = (
(76,-87,o),
(110,-69,o),
(124,-23,cs),
(132,4,o),
(182,165,o),
(231,320,c),
(290,325,o),
(342,326,o),
(464,327,c),
(441,252,o),
(421,182,o),
(411,142,cs),
(395,80,o),
(387,26,o),
(387,-9,cs),
(387,-60,o),
(404,-82,o),
(456,-87,c),
(455,-78,o),
(454,-67,o),
(454,-51,cs),
(454,-2,o),
(463,77,o),
(487,191,cs),
(495,232,o),
(506,279,o),
(518,328,c),
(544,328,o),
(572,329,o),
(602,360,c),
(578,360,o),
(553,363,o),
(527,364,c),
(562,500,o),
(604,646,o),
(632,720,c),
(603,720,o),
(584,683,o),
(577,668,cs),
(559,630,o),
(515,496,o),
(476,368,c),
(425,373,o),
(369,377,o),
(306,377,cs),
(286,377,o),
(266,376,o),
(248,375,c),
(326,629,ls),
(330,642,o),
(334,657,o),
(334,672,cs),
(334,696,o),
(324,720,o),
(288,720,cs),
(213,720,o),
(88,618,o),
(88,527,cs),
(88,495,o),
(104,470,o),
(148,470,c),
(145,479,o),
(143,492,o),
(143,504,cs),
(143,570,o),
(202,692,o),
(267,692,cs),
(279,692,o),
(281,688,o),
(281,678,cs),
(281,658,o),
(272,634,o),
(267,619,cs),
(233,521,o),
(205,438,o),
(182,368,c),
(133,358,o),
(100,340,o),
(99,307,c),
(121,309,o),
(143,312,o),
(165,314,c),
(94,96,o),
(71,5,o),
(55,-87,c)
);
}
);
userData = {
com.schriftgestaltung.hints = (
{
horizontal = 0;
options = 0;
place = (
88,
55
);
stem = -2;
},
{
horizontal = 0;
options = 0;
place = (
281,
53
);
stem = -2;
},
{
horizontal = 0;
options = 0;
place = (
387,
67
);
stem = -2;
},
{
horizontal = 1;
options = 0;
place = (
327,
37
);
stem = -2;
},
{
horizontal = 1;
options = 0;
place = (
470,
250
);
stem = -2;
},
{
horizontal = 1;
options = 0;
place = (
692,
28
);
stem = -2;
},
{
horizontal = 1;
options = 0;
place = (
327,
50
);
stem = -2;
},
{
horizontal = 1;
options = 0;
place = (
-87,
21
);
stem = -2;
target = (
u,
p
);
type = BottomGhost;
},
{
horizontal = 1;
options = 0;
place = (
360,
-20
);
stem = -2;
target = (
d,
o,
w,
n
);
type = TopGhost;
},
{
horizontal = 1;
options = 0;
place = (
328,
-20
);
stem = -2;
target = (
d,
o,
w,
n
);
type = TopGhost;
}
);
};
width = 617;
},
{
anchors = (
{
name = bottom;
pos = (321,0);
},
{
name = center;
pos = (414,482);
},
{
name = top;
pos = (474,715);
},
{
name = topleft;
pos = (164,715);
}
);
layerId = master02;
shapes = (
{
closed = 1;
nodes = (
(97,-87,o),
(141,-68,o),
(156,-19,cs),
(246,268,o),
(255,301,o),
(259,313,c),
(319,318,o),
(368,319,o),
(490,320,c),
(463,234,o),
(445,172,o),
(434,123,cs),
(422,72,o),
(418,36,o),
(418,6,cs),
(418,-59,o),
(438,-80,o),
(506,-87,c),
(503,-71,o),
(501,-55,o),
(501,-34,cs),
(501,6,o),
(508,69,o),
(524,155,cs),
(532,203,o),
(544,259,o),
(559,321,c),
(586,321,o),
(616,325,o),
(658,367,c),
(629,367,o),
(590,370,o),
(571,370,c),
(604,501,o),
(650,650,o),
(676,721,c),
(628,721,o),
(611,681,o),
(604,665,cs),
(581,611,o),
(556,542,o),
(506,375,c),
(453,380,o),
(396,383,o),
(331,383,cs),
(314,383,o),
(297,383,o),
(281,382,c),
(354,622,ls),
(358,635,o),
(362,650,o),
(362,665,cs),
(362,693,o),
(349,720,o),
(306,720,cs),
(223,720,o),
(96,616,o),
(96,526,cs),
(96,487,o),
(119,460,o),
(175,460,c),
(167,483,o),
(165,494,o),
(165,505,cs),
(165,566,o),
(226,678,o),
(280,678,cs),
(290,678,o),
(293,674,o),
(293,664,cs),
(293,646,o),
(283,622,o),
(281,616,cs),
(207,398,o),
(213,419,o),
(198,374,c),
(146,363,o),
(111,342,o),
(111,300,c),
(131,301,o),
(156,304,o),
(176,306,c),
(109,100,o),
(87,8,o),
(72,-87,c)
);
}
);
userData = {
com.schriftgestaltung.hints = (
{
horizontal = 0;
options = 0;
place = (
96,
69
);
stem = -2;
},
{
horizontal = 0;
options = 0;
place = (
293,
69
);
stem = -2;
},
{
horizontal = 0;
options = 0;
place = (
418,
83
);
stem = -2;
},
{
horizontal = 1;
options = 0;
place = (
320,
47
);
stem = -2;
},
{
horizontal = 1;
options = 0;
place = (
678,
42
);
stem = -2;
},
{
horizontal = 1;
options = 0;
place = (
320,
63
);
stem = -2;
},
{
horizontal = 1;
options = 0;
place = (
721,
-20
);
stem = -2;
target = (
d,
o,
w,
n
);
type = TopGhost;
},
{
horizontal = 1;
options = 0;
place = (
-87,
21
);
stem = -2;
target = (
u,
p
);
type = BottomGhost;
},
{
horizontal = 1;
options = 0;
place = (
321,
-20
);
stem = -2;
target = (
d,
o,
w,
n
);
type = TopGhost;
},
{
horizontal = 1;
options = 0;
place = (
370,
-20
);
stem = -2;
target = (
d,
o,
w,
n
);
type = TopGhost;
}
);
};
width = 663;
}
);
unicode = 72;
},
{
glyphname = Hbar;
lastChange = "2024-05-29 00:14:48 +0000";
layers = (
{
background = {
shapes = (
{
closed = 1;
nodes = (
(76,-87,o),
(110,-69,o),
(124,-23,cs),
(132,4,o),
(183,168,o),
(231,320,c),
(230,320,l),
(326,629,ls),
(330,642,o),
(334,657,o),
(334,672,cs),
(334,696,o),
(322,720,o),
(277,720,cs),
(206,720,o),
(114,658,o),
(114,575,cs),
(114,550,o),
(129,530,o),
(172,530,c),
(170,538,o),
(169,551,o),
(169,562,cs),
(169,622,o),
(220,692,o),
(267,692,cs),
(277,692,o),
(281,687,o),
(281,678,cs),
(281,658,o),
(272,634,o),
(267,619,cs),
(228,507,o),
(190,393,o),
(164,314,c),
(165,314,l),
(93,94,o),
(71,4,o),
(55,-87,c)
);
},
{
closed = 1;
nodes = (
(455,-78,o),
(454,-67,o),
(454,-51,cs),
(454,-2,o),
(463,77,o),
(487,191,cs),
(495,231,o),
(505,276,o),
(517,324,c),
(517,324,l),
(554,467,o),
(603,643,o),
(632,720,c),
(603,720,o),
(584,683,o),
(577,668,cs),
(557,627,o),
(500,447,o),
(458,308,c),
(458,308,l),
(437,240,o),
(420,178,o),
(411,142,cs),
(395,80,o),
(387,26,o),
(387,-9,cs),
(387,-60,o),
(404,-82,o),
(456,-87,c)
);
},
{
closed = 1;
nodes = (
(76,-87,o),
(110,-69,o),
(124,-23,cs),
(132,4,o),
(182.708,167.778,o),
(326,629,cs),
(330,642,o),
(334,657,o),
(334,672,cs),
(334,696,o),
(322,720,o),
(277,720,cs),
(206,720,o),
(114,658,o),
(114,575,cs),
(114,550,o),
(129,530,o),
(172,530,c),
(170,538,o),
(169,551,o),
(169,562,cs),
(169,622,o),
(220,692,o),
(267,692,cs),
(277,692,o),
(281,687,o),
(281,678,cs),
(281,658,o),
(272,634,o),
(267,619,cs),
(119.452,195.271,o),
(76.749,36.695,o),
(55,-87,c)
);
},
{
closed = 1;
nodes = (
(455,-78,o),
(454,-67,o),
(454,-51,cs),
(454,-2,o),
(463,77,o),
(487,191,cs),
(518.883,350.416,o),
(593.286,617.208,o),
(632,720,c),
(603,720,o),
(584,683,o),
(577,668,cs),
(547.198,606.905,o),
(438.363,251.451,o),
(411,142,cs),
(395,80,o),
(387,26,o),
(387,-9,cs),
(387,-60,o),
(404,-82,o),
(456,-87,c)
);
},
{
closed = 1;
nodes = (
(282.925,305.793,o),
(336,306,o),
(482,307,c),
(503,308,l),
(532,308,o),
(564,304,o),
(598,340,c),
(570,340,o),
(540,344,o),
(510,344,c),
(483,347,l),
(429,352,o),
(370,357,o),
(302,357,cs),
(244.621,357,o),
(96.829,356.486,o),
(95,287,c)
);
},
{
closed = 1;
nodes = (
(167,426,o),
(229,431,o),
(343,431,cs),
(548,431,o),
(633,434,o),
(643,472,c),
(571,480,o),
(495,483,o),
(406,483,cs),
(241,483,o),
(120,463,o),
(116,412,c)
);
}
);
};
layerId = master01;
shapes = (
{
closed = 1;
nodes = (
(76,-87,o),
(110,-69,o),
(124,-23,cs),
(132,4,o),
(182.708,167.778,o),
(326,629,cs),
(330,642,o),
(334,657,o),
(334,672,cs),
(334,696,o),
(322,720,o),
(277,720,cs),
(206,720,o),
(114,658,o),
(114,575,cs),
(114,550,o),
(129,530,o),
(172,530,c),
(170,538,o),
(169,551,o),
(169,562,cs),
(169,622,o),
(220,692,o),
(267,692,cs),
(277,692,o),
(281,687,o),
(281,678,cs),
(281,658,o),
(272,634,o),
(267,619,cs),
(119.452,195.271,o),
(76.749,36.695,o),
(55,-87,c)
);
},
{
closed = 1;
nodes = (
(455,-78,o),
(454,-67,o),
(454,-51,cs),
(454,-2,o),
(463,77,o),
(487,191,cs),
(518.883,350.416,o),
(593.286,617.208,o),
(632,720,c),
(603,720,o),
(584,683,o),
(577,668,cs),
(547.198,606.905,o),
(438.363,251.451,o),
(411,142,cs),
(395,80,o),
(387,26,o),
(387,-9,cs),
(387,-60,o),
(404,-82,o),
(456,-87,c)
);
},
{
closed = 1;
nodes = (
(173,299,o),
(246,303,o),
(310,304,cs),
(466,307,o),
(575,295,o),
(598,340,c),
(543,340,o),
(442,357,o),
(302,357,cs),
(245,357,o),
(97,356,o),
(95,287,c)
);
},
{
closed = 1;
nodes = (
(167,426,o),
(229,431,o),
(343,431,cs),
(548,431,o),
(633,434,o),
(643,472,c),
(571,480,o),
(495,483,o),
(406,483,cs),
(241,483,o),
(120,463,o),
(116,412,c)
);
}
);
userData = {
com.schriftgestaltung.hints = (
{
horizontal = 0;
options = 0;
place = (
88,
55
);
stem = -2;
},
{
horizontal = 0;
options = 0;
place = (
281,
53
);
stem = -2;
},
{
horizontal = 0;
options = 0;
place = (
387,
67
);
stem = -2;
},
{
horizontal = 1;
options = 0;
place = (
327,
37
);
stem = -2;
},
{
horizontal = 1;
options = 0;
place = (
470,
250
);
stem = -2;
},
{
horizontal = 1;
options = 0;
place = (
692,
28
);
stem = -2;
},
{
horizontal = 1;
options = 0;
place = (
327,
50
);
stem = -2;
},
{
horizontal = 1;
options = 0;
place = (
-87,
21
);
stem = -2;
target = (
u,
p
);
type = BottomGhost;
},
{
horizontal = 1;
options = 0;
place = (
360,
-20
);
stem = -2;
target = (
d,
o,
w,
n
);
type = TopGhost;
},
{
horizontal = 1;
options = 0;
place = (
328,
-20
);
stem = -2;
target = (
d,
o,
w,
n
);
type = TopGhost;
}
);
};
width = 618;
},
{
layerId = master02;
shapes = (
{
closed = 1;
nodes = (
(97,-87,o),
(141,-68,o),
(156,-19,cs),
(251,285,o),
(257,308,o),
(354,622,cs),
(358,635,o),
(362,650,o),
(362,665,cs),
(362,693,o),
(343,720,o),
(280,720,cs),
(205,720,o),
(106,659,o),
(106,585,cs),
(106,555,o),
(131,538,o),
(176,535,c),
(175,544,o),
(175,554,o),
(175,563,cs),
(175,625,o),
(230,678,o),
(280,678,cs),
(290,678,o),
(293,674,o),
(293,664,cs),
(293,646,o),
(283,622,o),
(281,616,cs),
(156,247,o),
(103,102,o),
(72,-87,c)
);
},
{
closed = 1;
nodes = (
(503,-71,o),
(501,-55,o),
(501,-34,cs),
(501,28,o),
(516,123,o),
(538,226,cs),
(576,403,o),
(634,605,o),
(676,721,c),
(628,721,o),
(611,681,o),
(604,665,cs),
(567,574,o),
(495,356,o),
(452,190,cs),
(432,110,o),
(418,43,o),
(418,6,cs),
(418,-59,o),
(438,-80,o),
(506,-87,c)
);
},
{
closed = 1;
nodes = (
(165,282,o),
(265,287,o),
(353,287,cs),
(553,287,o),
(611,292,o),
(658,342,c),
(528,342,o),
(408,354,o),
(309,354,cs),
(204,354,o),
(111,343,o),
(111,275,c)
);
},
{
closed = 1;
nodes = (
(202,433,o),
(269,437,o),
(394,437,cs),
(598,437,o),
(683,441,o),
(693,488,c),
(593,494,o),
(490,496,o),
(366,496,cs),
(259,496,o),
(149,469,o),
(146,421,c)
);
}
);
userData = {
com.schriftgestaltung.hints = (
{
horizontal = 0;
options = 0;
place = (
96,
69
);
stem = -2;
},
{
horizontal = 0;
options = 0;
place = (
293,
69
);
stem = -2;
},
{
horizontal = 0;
options = 0;
place = (
418,
83
);
stem = -2;
},
{
horizontal = 1;
options = 0;
place = (
320,
47
);
stem = -2;
},
{
horizontal = 1;
options = 0;
place = (
678,
42
);
stem = -2;
},
{
horizontal = 1;
options = 0;
place = (
320,
63
);
stem = -2;
},
{
horizontal = 1;
options = 0;
place = (
721,
-20
);
stem = -2;
target = (
d,
o,
w,
n
);
type = TopGhost;
},
{
horizontal = 1;
options = 0;
place = (
-87,
21
);
stem = -2;
target = (
u,
p
);
type = BottomGhost;
},
{
horizontal = 1;
options = 0;
place = (
321,
-20
);
stem = -2;
target = (
d,
o,
w,
n
);
type = TopGhost;
},
{
horizontal = 1;
options = 0;
place = (
370,
-20
);
stem = -2;
target = (
d,
o,
w,
n
);
type = TopGhost;
}
);
};
width = 664;
}
);
unicode = 294;
},
{
color = 4;
glyphname = Hhook;
lastChange = "2024-08-11 16:33:49 +0000";
layers = (
{
background = {
shapes = (
{
closed = 1;
nodes = (
(107,-87,o),
(133,-68,o),
(151,-23,cs),
(153,-18,o),
(154,-16,o),
(154,-16,cs),
(156,-16,o),
(143,-46,o),
(143,-54,cs),
(143,-57,o),
(163,18,o),
(258,320,c),
(317,325,o),
(369,326,o),
(491,327,c),
(468,252,o),
(448,182,o),
(438,142,cs),
(422,79,o),
(414,27,o),
(414,-8,cs),
(414,-60,o),
(431,-82,o),
(483,-87,c),
(482,-78,o),
(481,-67,o),
(481,-51,cs),
(481,-3,o),
(490,76,o),
(514,192,cs),
(523,235,o),
(531,270,o),
(545,328,c),
(571,328,o),
(599,329,o),
(629,360,c),
(605,360,o),
(580,363,o),
(554,364,c),
(589,500,o),
(631,646,o),
(659,720,c),
(630,720,o),
(611,683,o),
(604,668,cs),
(586,630,o),
(542,496,o),
(503,368,c),
(452,373,o),
(393,377,o),
(338,377,cs),
(311,377,o),
(293,376,o),
(275,375,c),
(326,541,o),
(358,639,o),
(371,687,cs),
(374,698,o),
(376,706,o),
(376,710,cs),
(376,717,o),
(370,719,o),
(346,719,cs),
(214,719,o),
(38,657,o),
(38,516,cs),
(38,466,o),
(60,440,o),
(98,440,cs),
(129,440,o),
(151,457,o),
(162,493,c),
(115,499,o),
(109,536,o),
(109,557,cs),
(109,655,o),
(237,689,o),
(293,689,cs),
(307,689,o),
(312,687,o),
(312,682,cs),
(312,660,o),
(218,395,o),
(209,368,c),
(160,358,o),
(127,340,o),
(126,307,c),
(148,309,o),
(170,312,o),
(192,314,c),
(121,96,o),
(98,5,o),
(82,-87,c)
);
}
);
};
layerId = master01;
shapes = (
{
closed = 1;
nodes = (
(106,-87,o),
(135,-68,o),
(151,-23,cs),
(200,117,o),
(169,38,o),
(258,320,c),
(317,325,o),
(369,326,o),
(491,327,c),
(468,252,o),
(448,182,o),
(438,142,cs),
(422,79,o),
(414,27,o),
(414,-8,cs),
(414,-60,o),
(431,-82,o),
(483,-87,c),
(482,-78,o),
(481,-67,o),
(481,-51,cs),
(481,-3,o),
(490,76,o),
(514,192,cs),
(523,235,o),
(531,270,o),
(545,328,c),
(571,328,o),
(599,329,o),
(629,360,c),
(605,360,o),
(580,363,o),
(554,364,c),
(589,500,o),
(631,646,o),
(659,720,c),
(630,720,o),
(611,683,o),
(604,668,cs),
(586,630,o),
(542,496,o),
(503,368,c),
(452,373,o),
(393,377,o),
(338,377,cs),
(311,377,o),
(293,376,o),
(275,375,c),
(326,541,o),
(358,639,o),
(371,687,cs),
(374,698,o),
(376,706,o),
(376,710,cs),
(376,717,o),
(370,719,o),
(346,719,cs),
(214,719,o),
(38,657,o),
(38,516,cs),
(38,466,o),
(60,440,o),
(98,440,cs),
(129,440,o),
(151,457,o),
(162,493,c),
(115,499,o),
(109,536,o),
(109,557,cs),
(109,655,o),
(237,689,o),
(293,689,cs),
(307,689,o),
(312,687,o),
(312,682,cs),
(312,680,o),
(311,675,o),
(309,669,cs),
(294,610,o),
(217,392,o),
(209,368,c),
(160,358,o),
(127,340,o),
(126,307,c),
(148,309,o),
(170,312,o),
(192,314,c),
(138,136,o),
(112,45,o),
(81,-87,c)
);
}
);
width = 644;
},
{
background = {
shapes = (
{
closed = 1;
nodes = (
(150,-87,o),
(176,-68,o),
(194,-23,cs),
(196,-18,o),
(197,-16,o),
(197,-16,cs),
(199,-16,o),
(186,-56,o),
(186,-54,cs),
(186,-51,o),
(206,18,o),
(301,320,c),
(360,325,o),
(412,326,o),
(534,327,c),
(511,252,o),
(491,182,o),
(481,142,cs),
(465,79,o),
(457,27,o),
(457,-8,cs),
(457,-60,o),
(474,-82,o),
(526,-87,c),
(525,-78,o),
(524,-67,o),
(524,-51,cs),
(524,-3,o),
(533,76,o),
(557,192,cs),
(566,235,o),
(574,270,o),
(588,328,c),
(614,328,o),
(642,329,o),
(672,360,c),
(648,360,o),
(623,363,o),
(597,364,c),
(632,500,o),
(674,646,o),
(702,720,c),
(673,720,o),
(654,683,o),
(647,668,cs),
(629,630,o),
(585,496,o),
(546,368,c),
(495,373,o),
(436,377,o),
(381,377,cs),
(354,377,o),
(336,376,o),
(318,375,c),
(366,541,o),
(401,639,o),
(414,687,cs),
(417,698,o),
(419,706,o),
(419,710,cs),
(419,717,o),
(413,719,o),
(389,719,cs),
(257,719,o),
(81,657,o),
(81,516,cs),
(81,466,o),
(103,440,o),
(141,440,cs),
(172,440,o),
(194,457,o),
(205,493,c),
(158,499,o),
(152,536,o),
(152,557,cs),
(152,655,o),
(280,689,o),
(336,689,cs),
(350,689,o),
(355,687,o),
(355,682,cs),
(355,660,o),
(261,395,o),
(252,368,c),
(203,358,o),
(170,340,o),
(169,307,c),
(191,309,o),
(213,312,o),
(235,314,c),
(164,96,o),
(141,5,o),
(125,-87,c)
);
}
);
};
layerId = master02;
shapes = (
{
closed = 1;
nodes = (
(140,-87,o),
(183,-72,o),
(199,-19,cs),
(247,138,o),
(256,171,o),
(302,313,c),
(362,318,o),
(411,319,o),
(533,320,c),
(506,234,o),
(488,172,o),
(477,123,cs),
(465,72,o),
(461,36,o),
(461,6,cs),
(461,-59,o),
(481,-80,o),
(549,-87,c),
(546,-71,o),
(544,-55,o),
(544,-34,cs),
(544,6,o),
(551,69,o),
(567,155,cs),
(575,203,o),
(587,259,o),
(602,321,c),
(629,321,o),
(659,325,o),
(701,367,c),
(672,367,o),
(633,370,o),
(614,370,c),
(647,501,o),
(693,650,o),
(719,721,c),
(671,721,o),
(654,681,o),
(647,665,cs),
(624,611,o),
(599,542,o),
(549,375,c),
(496,380,o),
(439,383,o),
(374,383,cs),
(357,383,o),
(340,383,o),
(324,382,c),
(348,462,o),
(373,542,o),
(397,622,cs),
(401,635,o),
(405,650,o),
(405,665,cs),
(405,693,o),
(392,720,o),
(349,720,cs),
(186,720,o),
(40,618,o),
(40,524,cs),
(40,476,o),
(52,440,o),
(106,440,cs),
(141,440,o),
(173,456,o),
(183,493,c),
(139,501,o),
(130,532,o),
(130,557,cs),
(130,619,o),
(199,678,o),
(323,678,cs),
(333,678,o),
(336,674,o),
(336,664,cs),
(336,646,o),
(326,622,o),
(324,616,cs),
(250,398,o),
(256,419,o),
(241,374,c),
(189,363,o),
(154,342,o),
(154,300,c),
(174,301,o),
(199,304,o),
(219,306,c),
(160,100,o),
(138,8,o),
(115,-87,c)
);
}
);
width = 687;
},
{
associatedMasterId = master01;
background = {
shapes = (
{
closed = 1;
nodes = (
(139,19,o),
(176,159,o),
(216,296,c),
(226,296,ls),
(291,296,o),
(607,320,o),
(607,524,cs),
(607,655,o),
(476,720,o),
(339,720,cs),
(256,720,o),
(111,696,o),
(55,542,c),
(55,513,o),
(86,489,o),
(105,489,c),
(147,652,o),
(222,687,o),
(299,693,c),
(198,465,o),
(139,285,o),
(53,19,cs),
(43,-12,o),
(39,-25,o),
(39,-36,cs),
(39,-67,o),
(74,-87,o),
(108,-87,c)
);
},
{
closed = 1;
nodes = (
(263,459,o),
(310,602,o),
(359,699,c),
(453,698,o),
(540,652,o),
(540,544,cs),
(540,391,o),
(367,320,o),
(220,312,c)
);
}
);
};
layerId = "EBF7081B-B5E1-4B5A-B445-E67B06469870";
name = "29 Jun 24 23:44";
shapes = (
{
closed = 1;
nodes = (
(77,-87,o),
(103,-68,o),
(121,-23,cs),
(143,33,o),
(41,-275,o),
(228,320,c),
(287,325,o),
(339,326,o),
(461,327,c),
(438,252,o),
(418,182,o),
(408,142,cs),
(392,79,o),
(384,27,o),
(384,-8,cs),
(384,-60,o),
(401,-82,o),
(453,-87,c),
(452,-78,o),
(451,-67,o),
(451,-51,cs),
(451,-3,o),
(460,76,o),
(484,192,cs),
(493,235,o),
(501,270,o),
(515,328,c),
(541,328,o),
(569,329,o),
(599,360,c),
(575,360,o),
(550,363,o),
(524,364,c),
(559,500,o),
(601,646,o),
(629,720,c),
(600,720,o),
(581,683,o),
(574,668,cs),
(556,630,o),
(512,496,o),
(473,368,c),
(422,373,o),
(363,377,o),
(308,377,cs),
(281,377,o),
(263,376,o),
(245,375,c),
(291,533,o),
(309,581,o),
(341,687,cs),
(345,701,o),
(346,705,o),
(346,708,cs),
(346,717,o),
(339,719,o),
(319,719,cs),
(195,719,o),
(92,645,o),
(55,542,c),
(59,510,o),
(81,494,o),
(105,489,c),
(126,594,o),
(200,689,o),
(268,689,cs),
(278,689,o),
(282,687,o),
(282,682,cs),
(282,660,o),
(188,395,o),
(179,368,c),
(130,358,o),
(97,340,o),
(96,307,c),
(118,309,o),
(140,312,o),
(162,314,c),
(91,96,o),
(68,5,o),
(52,-87,c)
);
}
);
width = 614;
},
{
associatedMasterId = master01;
background = {
shapes = (
{
closed = 1;
nodes = (
(367,-71,o),
(604,22,o),
(604,203,cs),
(604,268,o),
(574,354,o),
(376,366,c),
(479,383,o),
(605,435,o),
(605,565,cs),
(605,704,o),
(462,725,o),
(344,725,cs),
(280,725,o),
(211,719,o),
(154,691,cs),
(90,659,o),
(66,608,o),
(66,563,cs),
(66,512,o),
(97,492,o),
(131,489,c),
(129,500,o),
(122,531,o),
(122,559,cs),
(122,631,o),
(170,693,o),
(309,691,c),
(288,643,o),
(130,279,o),
(93,134,cs),
(86,107,o),
(84,89,o),
(84,77,cs),
(84,42,o),
(101,26,o),
(140,26,c),
(168,123,o),
(196,228,o),
(225,330,c),
(250,330,o),
(273,334,o),
(320,334,cs),
(455,334,o),
(541,301,o),
(541,216,cs),
(541,116,o),
(423,-10,o),
(173,-10,cs),
(119,-10,o),
(70,-4,o),
(64,-4,cs),
(62,-4,o),
(60,-5,o),
(60,-7,cs),
(60,-54,o),
(98,-71,o),
(179,-71,cs)
);
},
{
closed = 1;
nodes = (
(271,487,o),
(309,598,o),
(357,690,c),
(363,691,o),
(369,691,o),
(372,691,cs),
(490,691,o),
(545,651,o),
(545,567,cs),
(545,424,o),
(388,377,o),
(236,371,c)
);
}
);
};
layerId = "97CC1C38-7712-4488-BBE7-EB5CA971B8BC";
name = "25 Jul 24, 4:05 PM";
shapes = (
{
closed = 1;
nodes = (
(77,-87,o),
(103,-68,o),
(121,-23,cs),
(123,-18,o),
(124,-16,o),
(124,-16,cs),
(126,-16,o),
(113,-56,o),
(113,-54,cs),
(113,-51,o),
(133,18,o),
(228,320,c),
(287,325,o),
(339,326,o),
(461,327,c),
(438,252,o),
(418,182,o),
(408,142,cs),
(392,79,o),
(384,27,o),
(384,-8,cs),
(384,-60,o),
(401,-82,o),
(453,-87,c),
(452,-78,o),
(451,-67,o),
(451,-51,cs),
(451,-3,o),
(460,76,o),
(484,192,cs),
(493,235,o),
(501,270,o),
(515,328,c),
(541,328,o),
(569,329,o),
(599,360,c),
(575,360,o),
(550,363,o),
(524,364,c),
(559,500,o),
(601,646,o),
(629,720,c),
(600,720,o),
(581,683,o),
(574,668,cs),
(556,630,o),
(512,496,o),
(473,368,c),
(422,373,o),
(363,377,o),
(308,377,cs),
(281,377,o),
(263,376,o),
(245,375,c),
(293,540,o),
(324,627,o),
(341,687,cs),
(345,702,o),
(346,707,o),
(346,710,cs),
(346,717,o),
(340,719,o),
(314,719,cs),
(182,719,o),
(56,670,o),
(56,567,cs),
(56,511,o),
(92,496,o),
(121,489,c),
(115,512,o),
(113,532,o),
(113,550,cs),
(113,657,o),
(206,689,o),
(264,689,cs),
(278,689,o),
(282,687,o),
(282,682,cs),
(282,660,o),
(188,395,o),
(179,368,c),
(130,358,o),
(97,340,o),
(96,307,c),
(118,309,o),
(140,312,o),
(162,314,c),
(91,96,o),
(68,5,o),
(52,-87,c)
);
}
);
width = 614;
}
);
unicode = 42922;
},
{
color = 4;
glyphname = Hturned;
lastChange = "2024-08-11 15:50:12 +0000";
layers = (
{
background = {
shapes = (
{
closed = 1;
nodes = (
(-11,-87,o),
(23,-69,o),
(37,-23,cs),
(45,4,o),
(95,165,o),
(144,320,c),
(203,325,o),
(255,326,o),
(377,327,c),
(354,252,o),
(334,182,o),
(324,142,cs),
(308,80,o),
(300,26,o),
(300,-9,cs),
(300,-60,o),
(317,-82,o),
(369,-87,c),
(368,-78,o),
(367,-67,o),
(367,-51,cs),
(367,-2,o),
(376,77,o),
(400,191,cs),
(408,232,o),
(419,279,o),
(431,328,c),
(457,328,o),
(485,329,o),
(515,360,c),
(491,360,o),
(466,363,o),
(440,364,c),
(475,500,o),
(517,646,o),
(545,720,c),
(516,720,o),
(497,683,o),
(490,668,cs),
(472,630,o),
(428,496,o),
(389,368,c),
(338,373,o),
(282,377,o),
(219,377,cs),
(199,377,o),
(179,376,o),
(161,375,c),
(239,629,ls),
(243,642,o),
(247,657,o),
(247,672,cs),
(247,696,o),
(237,720,o),
(201,720,cs),
(126,720,o),
(1,618,o),
(1,527,cs),
(1,495,o),
(17,470,o),
(61,470,c),
(58,479,o),
(56,492,o),
(56,504,cs),
(56,570,o),
(115,692,o),
(180,692,cs),
(192,692,o),
(194,688,o),
(194,678,cs),
(194,658,o),
(185,634,o),
(180,619,cs),
(146,521,o),
(118,438,o),
(95,368,c),
(46,358,o),
(13,340,o),
(12,307,c),
(34,309,o),
(56,312,o),
(78,314,c),
(7,96,o),
(-16,5,o),
(-32,-87,c)
);
}
);
};
layerId = master01;
shapes = (
{
closed = 1;
nodes = (
(385,356,cs),
(426,492,o),
(472,629,o),
(490,668,cs),
(497,683,o),
(516,720,o),
(545,720,c),
(527,676,o),
(415,293,o),
(400,191,cs),
(379,47,o),
(367,-32,o),
(367,-56,cs),
(367,-63,o),
(368,-79,o),
(369,-87,c),
(336,-84,o),
(299,-75,o),
(299,-5,cs),
(299,27,o),
(307,70,o),
(325,142,cs),
(341,205,o),
(360,272,o)
);
},
{
closed = 1;
nodes = (
(418,400,l),
(343,329,o),
(258,297,o),
(207,297,cs),
(156,297,o),
(95,300,o),
(95,396,cs),
(95,438,o),
(127,560,o),
(150,619,cs),
(170,671,o),
(204,720,o),
(241,720,c),
(204,605,o),
(160,436,o),
(161,391,cs),
(162,352,o),
(190,335,o),
(228,335,cs),
(285,335,o),
(348,366,o),
(419,431,c)
);
}
);
width = 542;
},
{
background = {
shapes = (
{
closed = 1;
nodes = (
(399,356,cs),
(440,492,o),
(486,629,o),
(504,668,cs),
(511,683,o),
(530,720,o),
(559,720,c),
(541,676,o),
(429,293,o),
(414,191,cs),
(393,47,o),
(381,-32,o),
(381,-56,cs),
(381,-63,o),
(382,-79,o),
(383,-87,c),
(350,-84,o),
(313,-75,o),
(313,-5,cs),
(313,27,o),
(321,70,o),
(339,142,cs),
(355,205,o),
(374,272,o)
);
},
{
closed = 1;
nodes = (
(432,400,l),
(357,329,o),
(272,297,o),
(221,297,cs),
(170,297,o),
(109,300,o),
(109,396,cs),
(109,438,o),
(141,560,o),
(164,619,cs),
(184,671,o),
(218,720,o),
(255,720,c),
(218,605,o),
(174,436,o),
(175,391,cs),
(176,352,o),
(204,335,o),
(242,335,cs),
(299,335,o),
(362,366,o),
(433,431,c)
);
}
);
};
layerId = master02;
shapes = (
{
closed = 1;
nodes = (
(397,356,cs),
(438,492,o),
(484,629,o),
(502,668,cs),
(509,683,o),
(532,720,o),
(581,720,c),
(563,676,o),
(451,293,o),
(436,191,cs),
(415,47,o),
(403,-32,o),
(403,-56,cs),
(403,-63,o),
(404,-79,o),
(405,-87,c),
(354,-84,o),
(311,-75,o),
(311,-5,cs),
(311,27,o),
(319,70,o),
(337,142,cs),
(353,205,o),
(372,272,o)
);
},
{
closed = 1;
nodes = (
(454,388,l),
(371,317,o),
(287,285,o),
(231,285,cs),
(175,285,o),
(107,288,o),
(107,396,cs),
(107,438,o),
(139,560,o),
(162,619,cs),
(182,671,o),
(225,720,o),
(277,720,c),
(240,605,o),
(196,436,o),
(197,391,cs),
(198,352,o),
(226,335,o),
(264,335,cs),
(321,335,o),
(384,366,o),
(455,431,c)
);
}
);
width = 566;
}
);
unicode = 42893;
},
{
color = 6;
glyphname = I;
kernLeft = I;
kernRight = I;
lastChange = "2024-08-30 21:23:31 +0000";
layers = (
{
anchors = (
{
name = bottom;
pos = (134,-48);
},
{
name = ogonek;
pos = (189,-56);
},
{
name = top;
pos = (341,724);
},
{
name = topleft;
pos = (20,720);
}
);
layerId = master01;
shapes = (
{
closed = 1;
nodes = (
(59,-69,o),
(155,-72,o),
(263,-71,cs),
(291,-71,o),
(337,-67,o),
(376,-28,c),
(313,-27,o),
(228,-13,o),
(159,-9,c),
(196,16,o),
(221,76,o),
(243,162,cs),
(276,295,o),
(329,591,o),
(342,661,c),
(373,662,o),
(409,662,o),
(451,662,cs),
(478,662,o),
(516,665,o),
(548,697,c),
(501,704,o),
(385,718,o),
(286,718,cs),
(151,718,o),
(91,692,o),
(82,641,c),
(156,655,o),
(203,659,o),
(307,661,c),
(266,544,o),
(198,149,o),
(125,-8,c),
(41,-8,o),
(-31,-15,o),
(-38,-88,c)
);
}
);
userData = {
com.schriftgestaltung.hints = (
{
horizontal = 1;
options = 0;
place = (
-71,
43
);
stem = -2;
},
{
horizontal = 1;
options = 0;
place = (
661,
57
);
stem = -2;
},
{
horizontal = 1;
options = 0;
place = (
-71,
63
);
stem = -2;
},
{
horizontal = 1;
options = 0;
place = (
-88,
21
);
stem = -2;
target = (
u,
p
);
type = BottomGhost;
}
);
};
width = 459;
},
{
anchors = (
{
name = bottom;
pos = (186,-48);
},
{
name = ogonek;
pos = (234,-53);
},
{
name = top;
pos = (371,724);
},
{
name = topleft;
pos = (20,715);
}
);
layerId = master02;
shapes = (
{
closed = 1;
nodes = (
(83,-71,o),
(125,-70,o),
(303,-70,cs),
(334,-70,o),
(385,-64,o),
(438,-14,c),
(351,-12,o),
(282,-1,o),
(212,4,c),
(243,33,o),
(267,95,o),
(284,164,cs),
(311,272,o),
(355,536,o),
(377,649,c),
(409,650,o),
(441,650,o),
(485,650,cs),
(514,650,o),
(556,654,o),
(601,697,c),
(547,704,o),
(417,719,o),
(311,719,cs),
(168,719,o),
(103,692,o),
(89,625,c),
(163,639,o),
(224,647,o),
(326,649,c),
(283,521,o),
(225,159,o),
(154,6,c),
(65,6,o),
(-11,-3,o),
(-18,-88,c)
);
}
);
userData = {
com.schriftgestaltung.hints = (
{
horizontal = 1;
options = 0;
place = (
-70,
56
);
stem = -2;
},
{
horizontal = 1;
options = 0;
place = (
649,
70
);
stem = -2;
},
{
horizontal = 1;
options = 0;
place = (
-70,
76
);
stem = -2;
},
{
horizontal = 1;
options = 0;
place = (
-88,
21
);
stem = -2;
target = (
u,
p
);
type = BottomGhost;
}
);
};
width = 503;
}
);
unicode = 73;
},
{
color = 4;
glyphname = "Iota-latin";
lastChange = "2024-08-11 16:49:03 +0000";
layers = (
{
background = {
shapes = (
{
closed = 1;
nodes = (
(-36,-69,o),
(60,-72,o),
(168,-71,cs),
(196,-71,o),
(242,-67,o),
(281,-28,c),
(218,-27,o),
(133,-13,o),
(64,-9,c),
(101,16,o),
(126,76,o),
(148,162,cs),
(181,295,o),
(234,591,o),
(247,661,c),
(278,662,o),
(314,662,o),
(356,662,cs),
(383,662,o),
(421,665,o),
(453,697,c),
(406,704,o),
(290,718,o),
(191,718,cs),
(56,718,o),
(-4,692,o),
(-13,641,c),
(61,655,o),
(108,659,o),
(212,661,c),
(171,544,o),
(103,149,o),
(30,-8,c),
(-54,-8,o),
(-126,-15,o),
(-133,-88,c)
);
}
);
};
layerId = master01;
shapes = (
{
closed = 1;
nodes = (
(240,-74,o),
(263,-51,o),
(269,3,c),
(228,-9,o),
(193,-16,o),
(165,-16,cs),
(131,-16,o),
(108,-3,o),
(106,28,cs),
(103,89,o),
(189,378,o),
(227,499,cs),
(255,588,o),
(290,666,o),
(290,691,cs),
(290,705,o),
(279,713,o),
(269,713,cs),
(235,713,o),
(199,610,o),
(165,502,cs),
(126,378,o),
(57,130,o),
(57,57,cs),
(57,-19,o),
(113,-74,o),
(180,-74,cs)
);
}
);
width = 364;
},
{
background = {
shapes = (
{
closed = 1;
nodes = (
(240,-74,o),
(263,-51,o),
(269,3,c),
(228,-9,o),
(193,-16,o),
(165,-16,cs),
(131,-16,o),
(108,-3,o),
(106,28,cs),
(103,89,o),
(189,378,o),
(227,499,cs),
(255,588,o),
(290,666,o),
(290,691,cs),
(290,705,o),
(279,713,o),
(269,713,cs),
(235,713,o),
(199,610,o),
(165,502,cs),
(126,378,o),
(57,130,o),
(57,57,cs),
(57,-19,o),
(113,-74,o),
(180,-74,cs)
);
}
);
};
layerId = master02;
shapes = (
{
closed = 1;
nodes = (
(253,-74,o),
(286,-47,o),
(291,17,c),
(250,5,o),
(215,-2,o),
(187,-2,cs),
(153,-2,o),
(130,11,o),
(128,42,cs),
(125,103,o),
(212,381,o),
(249,499,cs),
(277,588,o),
(312,666,o),
(312,691,cs),
(312,705,o),
(289,713,o),
(269,713,cs),
(235,713,o),
(199,610,o),
(165,502,cs),
(126,378,o),
(57,130,o),
(57,57,cs),
(57,-19,o),
(113,-74,o),
(186,-74,cs)
);
}
);
width = 386;
}
);
unicode = 406;
},
{
color = 6;
glyphname = J;
lastChange = "2024-08-23 01:15:01 +0000";
layers = (
{
anchors = (
{
name = bottom;
pos = (206,0);
},
{
name = top;
pos = (371,715);
}
);
layerId = master01;
shapes = (
{
closed = 1;
nodes = (
(136,-86,o),
(188,-58,o),
(241,61,cs),
(320,237,o),
(383,576,o),
(383,620,cs),
(383,635,o),
(376,656,o),
(362,667,c),
(383,667,o),
(406,668,o),
(433,668,cs),
(454,668,o),
(495,672,o),
(510,697,c),
(473,704,o),
(380,718,o),
(301,718,cs),
(193,718,o),
(145,692,o),
(138,647,c),
(201,662,o),
(241,666,o),
(340,667,c),
(315,535,o),
(242,200,o),
(189,54,cs),
(159,-28,o),
(134,-51,o),
(100,-51,cs),
(59,-51,o),
(37,-16,o),
(37,44,cs),
(37,89,o),
(49,143,o),
(73,204,c),
(63,209,o),
(54,212,o),
(45,212,cs),
(-2,212,o),
(-31,122,o),
(-31,44,cs),
(-31,-68,o),
(30,-86,o),
(77,-86,cs)
);
}
);
userData = {
com.schriftgestaltung.hints = (
{
horizontal = 0;
options = 0;
place = (
-31,
68
);
stem = -2;
},
{
horizontal = 1;
options = 0;
place = (
-86,
35
);
stem = -2;
},
{
horizontal = 1;
options = 0;
place = (
667,
51
);
stem = -2;
}
);
};
width = 411;
},
{
anchors = (
{
name = bottom;
pos = (220,0);
},
{
name = top;
pos = (391,715);
}
);
layerId = master02;
shapes = (
{
closed = 1;
nodes = (
(166,-86,o),
(225,-54,o),
(278,63,cs),
(357,238,o),
(415,571,o),
(416,615,cs),
(416,627,o),
(412,642,o),
(403,654,c),
(414,654,o),
(440,655,o),
(461,655,cs),
(485,655,o),
(530,660,o),
(552,696,c),
(510,703,o),
(405,718,o),
(322,718,cs),
(206,718,o),
(151,694,o),
(142,631,c),
(205,645,o),
(259,652,o),
(356,654,c),
(332,521,o),
(263,204,o),
(212,61,cs),
(185,-13,o),
(159,-37,o),
(127,-37,cs),
(89,-37,o),
(65,-5,o),
(65,49,cs),
(65,92,o),
(77,147,o),
(103,210,c),
(87,217,o),
(74,221,o),
(64,221,cs),
(10,221,o),
(-18,129,o),
(-18,49,cs),
(-18,-67,o),
(52,-86,o),
(104,-86,cs)
);
}
);
userData = {
com.schriftgestaltung.hints = (
{
horizontal = 0;
options = 0;
place = (
-18,
83
);
stem = -2;
},
{
horizontal = 1;
options = 0;
place = (
-86,
49
);
stem = -2;
},
{
horizontal = 1;
options = 0;
place = (
654,
64
);
stem = -2;
}
);
};
width = 440;
}
);
unicode = 74;
},
{
color = 6;
glyphname = K;
lastChange = "2024-08-30 21:26:08 +0000";
layers = (
{
anchors = (
{
name = bottom;
pos = (283,-19);
},
{
name = center;
pos = (332,586);
},
{
name = top;
pos = (430,696);
}
);
layerId = master01;
shapes = (
{
closed = 1;
nodes = (
(518,-87,o),
(540,-72,o),
(549,-54,c),
(378,86,o),
(322,185,o),
(241,322,c),
(366,406,o),
(605,574,o),
(605,676,cs),
(605,687,o),
(602,712,o),
(596,720,c),
(534,621,o),
(412,504,o),
(323,433,cs),
(287,404,o),
(256,383,o),
(237,357,c),
(321,629,ls),
(325,642,o),
(329,657,o),
(329,672,cs),
(329,696,o),
(319,720,o),
(283,720,cs),
(208,720,o),
(83,618,o),
(83,527,cs),
(83,495,o),
(99,470,o),
(143,470,c),
(140,479,o),
(138,492,o),
(138,504,cs),
(138,570,o),
(197,692,o),
(262,692,cs),
(280,692,o),
(286,682,o),
(286,668,cs),
(286,652,o),
(277,630,o),
(273,619,cs),
(116,161,o),
(72,24,o),
(30,-69,c),
(63,-69,o),
(105,-69,o),
(119,-23,cs),
(216,291,l),
(275,160,o),
(422,-87,o),
(495,-87,cs)
);
}
);
userData = {
com.schriftgestaltung.hints = (
{
horizontal = 0;
options = 0;
place = (
83,
55
);
stem = -2;
},
{
horizontal = 0;
options = 0;
place = (
286,
43
);
stem = -2;
},
{
horizontal = 1;
options = 0;
place = (
470,
250
);
stem = -2;
},
{
horizontal = 1;
options = 0;
place = (
692,
28
);
stem = -2;
},
{
horizontal = 1;
options = 0;
place = (
-87,
21
);
stem = -2;
target = (
u,
p
);
type = BottomGhost;
},
{
horizontal = 1;
options = 0;
place = (
-69,
21
);
stem = -2;
target = (
u,
p
);
type = BottomGhost;
}
);
};
width = 590;
},
{
anchors = (
{
name = bottom;
pos = (315,-19);
},
{
name = center;
pos = (329,575);
},
{
name = top;
pos = (457,690);
}
);
layerId = master02;
shapes = (
{
closed = 1;
nodes = (
(565,-87,o),
(592,-68,o),
(604,-45,c),
(422,94,o),
(360,189,o),
(276,320,c),
(406,403,o),
(645,566,o),
(645,669,cs),
(645,682,o),
(641,708,o),
(625,723,c),
(560,625,o),
(457,520,o),
(345,433,cs),
(306,403,o),
(291,391,o),
(276,382,c),
(350,622,ls),
(354,634,o),
(357,647,o),
(357,662,cs),
(357,690,o),
(347,720,o),
(302,720,cs),
(219,720,o),
(91,615,o),
(91,525,cs),
(91,487,o),
(114,460,o),
(171,460,c),
(165,474,o),
(161,491,o),
(161,506,cs),
(161,564,o),
(217,678,o),
(280,678,cs),
(295,678,o),
(300,671,o),
(300,659,cs),
(300,644,o),
(291,625,o),
(288,616,cs),
(121,153,o),
(91,33,o),
(43,-69,c),
(83,-69,o),
(136,-67,o),
(151,-19,cs),
(242,275,l),
(312,142,o),
(463,-87,o),
(542,-87,cs)
);
}
);
userData = {
com.schriftgestaltung.hints = (
{
horizontal = 0;
options = 0;
place = (
91,
70
);
stem = -2;
},
{
horizontal = 0;
options = 0;
place = (
300,
57
);
stem = -2;
},
{
horizontal = 1;
options = 0;
place = (
678,
42
);
stem = -2;
},
{
horizontal = 1;
options = 0;
place = (
723,
-20
);
stem = -2;
target = (
d,
o,
w,
n
);
type = TopGhost;
},
{
horizontal = 1;
options = 0;
place = (
-69,
21
);
stem = -2;
target = (
u,
p
);
type = BottomGhost;
},
{
horizontal = 1;
options = 0;
place = (
-87,
21
);
stem = -2;
target = (
u,
p
);
type = BottomGhost;
}
);
};
width = 637;
}
);
unicode = 75;
},
{
color = 4;
glyphname = Khook;
lastChange = "2024-08-30 21:39:55 +0000";
layers = (
{
anchors = (
{
name = bottom;
pos = (205,0);
},
{
name = top;
pos = (413,715);
}
);
background = {
shapes = (
{
closed = 1;
nodes = (
(456,-87,o),
(479,-72,o),
(488,-54,c),
(317,86,o),
(261,185,o),
(180,322,c),
(289,440,o),
(463,662,o),
(549,662,cs),
(571,662,o),
(598,648,o),
(621,614,c),
(650,634,o),
(659,653,o),
(659,669,cs),
(659,702,o),
(614,720,o),
(585,720,cs),
(470,720,o),
(240,436,o),
(176,357,c),
(197,429,o),
(279,691,o),
(287,717,c),
(238,719,o),
(226,692,o),
(213,654,cs),
(180,556,o),
(59,142,o),
(-31,-69,c),
(2,-69,o),
(44,-69,o),
(58,-23,cs),
(155,291,l),
(217,153,o),
(361,-87,o),
(437,-87,cs)
);
}
);
};
layerId = master01;
shapes = (
{
closed = 1;
nodes = (
(456,-87,o),
(479,-72,o),
(488,-54,c),
(317,86,o),
(261,185,o),
(180,322,c),
(332,490,o),
(455,657,o),
(552,657,cs),
(599,657,o),
(628,639,o),
(631,584,c),
(663,604,o),
(685,627,o),
(685,656,cs),
(685,693,o),
(648,720,o),
(601,720,cs),
(470,720,o),
(240,436,o),
(176,357,c),
(197,429,o),
(279,691,o),
(287,717,c),
(238,719,o),
(226,692,o),
(213,654,cs),
(182,563,o),
(60,143,o),
(-31,-69,c),
(2,-69,o),
(44,-69,o),
(58,-23,cs),
(155,291,l),
(217,153,o),
(361,-87,o),
(437,-87,cs)
);
}
);
width = 590;
},
{
anchors = (
{
name = bottom;
pos = (235,0);
},
{
name = top;
pos = (443,715);
}
);
background = {
shapes = (
{
closed = 1;
nodes = (
(547,-87,o),
(570,-72,o),
(579,-54,c),
(408,86,o),
(352,185,o),
(271,322,c),
(423,490,o),
(546,657,o),
(643,657,cs),
(690,657,o),
(719,639,o),
(722,584,c),
(754,604,o),
(776,627,o),
(776,656,cs),
(776,693,o),
(739,720,o),
(692,720,cs),
(561,720,o),
(331,436,o),
(267,357,c),
(288,429,o),
(370,691,o),
(378,717,c),
(329,719,o),
(317,692,o),
(304,654,cs),
(273,563,o),
(151,143,o),
(60,-69,c),
(93,-69,o),
(135,-69,o),
(149,-23,cs),
(246,291,l),
(308,153,o),
(452,-87,o),
(528,-87,cs)
);
}
);
};
layerId = master02;
shapes = (
{
closed = 1;
nodes = (
(526,-87,o),
(553,-68,o),
(565,-45,c),
(383,94,o),
(321,189,o),
(237,320,c),
(336,443,o),
(501,643,o),
(611,643,cs),
(650,643,o),
(671,618,o),
(677,569,c),
(719,590,o),
(756,623,o),
(756,657,cs),
(756,680,o),
(739,723,o),
(669,723,cs),
(497,723,o),
(309,465,o),
(237,382,c),
(270,494,o),
(304,615,o),
(338,717,c),
(294,720,o),
(265,702,o),
(236,616,cs),
(204,521,o),
(111,166,o),
(4,-69,c),
(44,-69,o),
(97,-67,o),
(112,-19,cs),
(203,275,l),
(273,142,o),
(424,-87,o),
(503,-87,cs)
);
}
);
width = 637;
},
{
associatedMasterId = master01;
background = {
shapes = (
{
closed = 1;
nodes = (
(457,-87,o),
(479,-72,o),
(488,-54,c),
(317,86,o),
(261,185,o),
(180,322,c),
(270,420,o),
(465,662,o),
(546,662,cs),
(573,662,o),
(598,648,o),
(621,614,c),
(645,634,o),
(654,653,o),
(654,669,cs),
(654,699,o),
(621,720,o),
(578,720,cs),
(470,720,o),
(240,436,o),
(176,357,c),
(260,629,ls),
(264,642,o),
(268,657,o),
(268,672,cs),
(268,696,o),
(258,720,o),
(222,720,cs),
(147,720,o),
(136,692,o),
(201,692,cs),
(219,692,o),
(225,682,o),
(225,668,cs),
(225,652,o),
(216,630,o),
(212,619,cs),
(55,161,o),
(11,24,o),
(-31,-69,c),
(2,-69,o),
(44,-69,o),
(58,-23,cs),
(155,291,l),
(214,160,o),
(361,-87,o),
(434,-87,cs)
);
}
);
};
layerId = "4F1D57A4-9F89-47FE-A76F-15079107C14D";
name = "24 Jul 24, 3:45 PM";
shapes = (
{
closed = 1;
nodes = (
(456,-87,o),
(479,-72,o),
(488,-54,c),
(317,86,o),
(261,185,o),
(180,322,c),
(289,440,o),
(463,662,o),
(549,662,cs),
(571,662,o),
(598,648,o),
(621,614,c),
(650,634,o),
(659,653,o),
(659,669,cs),
(659,702,o),
(614,720,o),
(585,720,cs),
(470,720,o),
(240,436,o),
(176,357,c),
(197,429,o),
(279,691,o),
(287,717,c),
(238,719,o),
(226,692,o),
(213,654,cs),
(180,556,o),
(59,142,o),
(-31,-69,c),
(2,-69,o),
(44,-69,o),
(58,-23,cs),
(155,291,l),
(217,153,o),
(361,-87,o),
(437,-87,cs)
);
}
);
width = 589;
}
);
unicode = 408;
},
{
color = 6;
glyphname = L;
lastChange = "2024-08-30 21:26:29 +0000";
layers = (
{
anchors = (
{
name = bottom;
pos = (177,0);
},
{
name = center;
pos = (263,272);
},
{
name = top;
pos = (480,714);
},
{
name = topright;
pos = (598,588);
}
);
layerId = master01;
shapes = (
{
closed = 1;
nodes = (
(445,-87,o),
(480,-64,o),
(502,-2,c),
(481,-13,o),
(459,-18,o),
(431,-18,cs),
(357,-18,o),
(258,16,o),
(166,44,c),
(224,131,o),
(269,265,o),
(310,388,c),
(324,388,o),
(328,388,o),
(329,388,cs),
(492,390,o),
(566,527,o),
(566,618,cs),
(566,698,o),
(509,720,o),
(469,720,cs),
(368,720,o),
(306,580,o),
(254,421,c),
(221,439,o),
(197,473,o),
(197,524,cs),
(197,542,o),
(200,572,o),
(210,586,c),
(172,586,o),
(148,542,o),
(148,507,cs),
(148,462,o),
(185,420,o),
(247,400,c),
(206,274,o),
(169,140,o),
(122,57,c),
(77,69,o),
(34,78,o),
(-1,78,cs),
(-55,78,o),
(-74,58,o),
(-74,34,cs),
(-74,1,o),
(-39,-53,o),
(26,-53,cs),
(68,-53,o),
(104,-31,o),
(137,6,c),
(227,-34,o),
(324,-87,o),
(397,-87,cs)
);
},
{
closed = 1;
nodes = (
(-19,-24,o),
(-48,10,o),
(-48,33,cs),
(-48,45,o),
(-40,52,o),
(-15,52,cs),
(17,52,o),
(57,39,o),
(99,22,c),
(77,-7,o),
(51,-24,o),
(22,-24,cs)
);
},
{
closed = 1;
nodes = (
(367,561,o),
(414,695,o),
(476,695,cs),
(495,695,o),
(512,683,o),
(512,645,cs),
(512,566,o),
(437,408,o),
(316,407,c)
);
}
);
userData = {
com.schriftgestaltung.hints = (
{
horizontal = 0;
options = 0;
place = (
-74,
26
);
stem = -2;
},
{
horizontal = 0;
options = 0;
place = (
148,
49
);
stem = -2;
},
{
horizontal = 0;
options = 0;
place = (
512,
54
);
stem = -2;
},
{
horizontal = 1;
options = 0;
place = (
-87,
69
);
stem = -2;
},
{
horizontal = 1;
options = 0;
place = (
-53,
35
);
stem = -2;
},
{
horizontal = 1;
options = 0;
place = (
52,
26
);
stem = -2;
},
{
horizontal = 1;
options = 0;
place = (
695,
25
);
stem = -2;
},
{
horizontal = 1;
options = 0;
place = (
388,
-20
);
stem = -2;
target = (
d,
o,
w,
n
);
type = TopGhost;
},
{
horizontal = 1;
options = 0;
place = (
-24,
21
);
stem = -2;
target = (
u,
p
);
type = BottomGhost;
}
);
};
width = 570;
},
{
anchors = (
{
name = bottom;
pos = (237,0);
},
{
name = center;
pos = (266,272);
},
{
name = top;
pos = (500,714);
},
{
name = topright;
pos = (643,588);
}
);
layerId = master02;
shapes = (
{
closed = 1;
nodes = (
(492,-87,o),
(530,-57,o),
(557,18,c),
(526,3,o),
(501,-4,o),
(469,-4,cs),
(396,-4,o),
(281,31,o),
(204,54,c),
(259,138,o),
(303,264,o),
(341,380,c),
(344,380,o),
(347,380,o),
(350,380,cs),
(533,385,o),
(607,522,o),
(607,612,cs),
(607,697,o),
(541,720,o),
(496,720,cs),
(387,720,o),
(325,581,o),
(275,429,c),
(246,446,o),
(223,477,o),
(223,521,cs),
(223,537,o),
(226,567,o),
(243,589,c),
(190,589,o),
(159,542,o),
(159,503,cs),
(159,461,o),
(196,416,o),
(263,394,c),
(225,280,o),
(189,150,o),
(144,70,c),
(98,82,o),
(54,90,o),
(18,90,cs),
(-44,90,o),
(-64,66,o),
(-64,40,cs),
(-64,3,o),
(-22,-53,o),
(49,-53,cs),
(93,-53,o),
(131,-32,o),
(165,4,c),
(256,-34,o),
(363,-87,o),
(437,-87,cs)
);
},
{
closed = 1;
nodes = (
(3,-16,o),
(-28,4,o),
(-28,26,cs),
(-28,39,o),
(-18,50,o),
(8,50,cs),
(34,50,o),
(72,39,o),
(113,24,c),
(91,1,o),
(73,-16,o),
(39,-16,cs)
);
},
{
closed = 1;
nodes = (
(400,558,o),
(445,681,o),
(504,681,cs),
(521,681,o),
(537,671,o),
(537,636,cs),
(537,564,o),
(468,422,o),
(352,413,c)
);
}
);
userData = {
com.schriftgestaltung.hints = (
{
horizontal = 0;
options = 0;
place = (
-64,
36
);
stem = -2;
},
{
horizontal = 0;
options = 0;
place = (
159,
64
);
stem = -2;
},
{
horizontal = 0;
options = 0;
place = (
537,
70
);
stem = -2;
},
{
horizontal = 1;
options = 0;
place = (
-87,
83
);
stem = -2;
},
{
horizontal = 1;
options = 0;
place = (
-53,
37
);
stem = -2;
},
{
horizontal = 1;
options = 0;
place = (
50,
40
);
stem = -2;
},
{
horizontal = 1;
options = 0;
place = (
380,
33
);
stem = -2;
},
{
horizontal = 1;
options = 0;
place = (
681,
39
);
stem = -2;
}
);
};
width = 610;
}
);
unicode = 76;
},
{
glyphname = Lslash;
lastChange = "2024-05-29 00:14:48 +0000";
layers = (
{
layerId = master01;
shapes = (
{
closed = 1;
nodes = (
(445,-87,o),
(480,-64,o),
(502,-2,c),
(481,-13,o),
(459,-18,o),
(431,-18,cs),
(357,-18,o),
(258,16,o),
(166,44,c),
(211,112,o),
(244,191,o),
(314,400,cs),
(366,557,o),
(428,668,o),
(469,720,c),
(367,720,o),
(299,562,o),
(244,395,cs),
(200,264,o),
(163,128,o),
(122,57,c),
(77,69,o),
(34,78,o),
(-1,78,cs),
(-55,78,o),
(-74,58,o),
(-74,34,cs),
(-74,1,o),
(-39,-53,o),
(26,-53,cs),
(68,-53,o),
(104,-31,o),
(137,6,c),
(227,-34,o),
(324,-87,o),
(397,-87,cs)
);
},
{
closed = 1;
nodes = (
(-19,-24,o),
(-48,10,o),
(-48,33,cs),
(-48,45,o),
(-40,52,o),
(-15,52,cs),
(17,52,o),
(57,39,o),
(99,22,c),
(77,-7,o),
(51,-24,o),
(22,-24,cs)
);
},
{
closed = 1;
nodes = (
(170,295,o),
(210,308,o),
(308,338,cs),
(424,374,o),
(454,379,o),
(447,414,c),
(432,413,o),
(398,408,o),
(372,402,cs),
(201,366,o),
(85,319,o),
(84,258,c)
);
}
);
userData = {
com.schriftgestaltung.hints = (
{
horizontal = 0;
options = 0;
place = (
-74,
26
);
stem = -2;
},
{
horizontal = 0;
options = 0;
place = (
148,
49
);
stem = -2;
},
{
horizontal = 0;
options = 0;
place = (
512,
54
);
stem = -2;
},
{
horizontal = 1;
options = 0;
place = (
-87,
69
);
stem = -2;
},
{
horizontal = 1;
options = 0;
place = (
-53,
35
);
stem = -2;
},
{
horizontal = 1;
options = 0;
place = (
52,
26
);
stem = -2;
},
{
horizontal = 1;
options = 0;
place = (
695,
25
);
stem = -2;
},
{
horizontal = 1;
options = 0;
place = (
388,
-20
);
stem = -2;
target = (
d,
o,
w,
n
);
type = TopGhost;
},
{
horizontal = 1;
options = 0;
place = (
-24,
21
);
stem = -2;
target = (
u,
p
);
type = BottomGhost;
}
);
};
width = 571;
},
{
layerId = master02;
shapes = (
{
closed = 1;
nodes = (
(492,-87,o),
(530,-57,o),
(557,18,c),
(526,3,o),
(501,-4,o),
(469,-4,cs),
(396,-4,o),
(281,31,o),
(204,54,c),
(252,122,o),
(297,249,o),
(338,373,cs),
(386,520,o),
(430,645,o),
(507,720,c),
(427,720,o),
(349,674,o),
(261,389,cs),
(223,265,o),
(183,138,o),
(144,70,c),
(98,82,o),
(54,90,o),
(18,90,cs),
(-44,90,o),
(-64,66,o),
(-64,40,cs),
(-64,3,o),
(-22,-53,o),
(49,-53,cs),
(93,-53,o),
(131,-32,o),
(165,4,c),
(256,-34,o),
(363,-87,o),
(437,-87,cs)
);
},
{
closed = 1;
nodes = (
(3,-16,o),
(-28,4,o),
(-28,26,cs),
(-28,39,o),
(-18,50,o),
(8,50,cs),
(34,50,o),
(72,39,o),
(113,24,c),
(91,1,o),
(73,-16,o),
(39,-16,cs)
);
},
{
closed = 1;
nodes = (
(200,304,o),
(242,319,o),
(347,355,cs),
(462,394,o),
(492,403,o),
(481,445,c),
(467,442,o),
(433,436,o),
(407,429,cs),
(227,385,o),
(105,328,o),
(108,260,c)
);
}
);
userData = {
com.schriftgestaltung.hints = (
{
horizontal = 0;
options = 0;
place = (
-64,
36
);
stem = -2;
},
{
horizontal = 0;
options = 0;
place = (
159,
64
);
stem = -2;
},
{
horizontal = 0;
options = 0;
place = (
537,
70
);
stem = -2;
},
{
horizontal = 1;
options = 0;
place = (
-87,
83
);
stem = -2;
},
{
horizontal = 1;
options = 0;
place = (
-53,
37
);
stem = -2;
},
{
horizontal = 1;
options = 0;
place = (
50,
40
);
stem = -2;
},
{
horizontal = 1;
options = 0;
place = (
380,
33
);
stem = -2;
},
{
horizontal = 1;
options = 0;
place = (
681,
39
);
stem = -2;
}
);
};
width = 611;
}
);
unicode = 321;
},
{
color = 6;
glyphname = M;
lastChange = "2024-08-23 07:22:56 +0000";
layers = (
{
anchors = (
{
name = bottom;
pos = (350,0);
},
{
name = top;
pos = (500,677);
}
);
layerId = master01;
shapes = (
{
closed = 1;
nodes = (
(56,-87,o),
(114,105,o),
(327,602,c),
(328,588,o),
(329,572,o),
(329,546,cs),
(329,440,o),
(313,231,o),
(313,121,cs),
(313,44,o),
(321,-1,o),
(357,-1,cs),
(363,-1,o),
(364,0,o),
(372,3,c),
(413,125,o),
(544,441,o),
(640,564,c),
(588,368,o),
(540,184,o),
(540,25,cs),
(540,-57,o),
(553,-87,o),
(622,-87,c),
(613,-54,o),
(607,-50,o),
(607,-5,cs),
(607,122,o),
(656,396,o),
(698,560,cs),
(715,628,o),
(733,676,o),
(743,700,c),
(730,705,o),
(719,707,o),
(711,707,cs),
(689,707,o),
(679,692,o),
(661,666,cs),
(616,600,o),
(429,306,o),
(376,102,c),
(380,214,o),
(397,371,o),
(397,496,cs),
(397,677,o),
(361,720,o),
(296,720,cs),
(208,720,o),
(101,640,o),
(101,552,cs),
(101,519,o),
(116,470,o),
(154,470,c),
(153,479,o),
(152,488,o),
(152,501,cs),
(152,582,o),
(191,683,o),
(276,683,cs),
(304,683,o),
(310,672,o),
(310,657,cs),
(310,642,o),
(304,625,o),
(300,616,cs),
(138,252,o),
(-1,-51,o),
(-17,-87,c)
);
}
);
userData = {
com.schriftgestaltung.hints = (
{
horizontal = 0;
options = 0;
place = (
101,
51
);
stem = -2;
},
{
horizontal = 0;
options = 0;
place = (
313,
63
);
stem = -2;
},
{
horizontal = 0;
options = 0;
place = (
329,
68
);
stem = -2;
},
{
horizontal = 0;
options = 0;
place = (
540,
67
);
stem = -2;
},
{
horizontal = 1;
options = 0;
place = (
683,
37
);
stem = -2;
},
{
horizontal = 1;
options = 0;
place = (
-87,
21
);
stem = -2;
target = (
u,
p
);
type = BottomGhost;
},
{
horizontal = 1;
options = 0;
place = (
707,
-20
);
stem = -2;
target = (
d,
o,
w,
n
);
type = TopGhost;
},
{
horizontal = 1;
options = 0;
place = (
-1,
21
);
stem = -2;
target = (
u,
p
);
type = BottomGhost;
}
);
};
width = 763;
},
{
anchors = (
{
name = bottom;
pos = (380,0);
},
{
name = top;
pos = (530,677);
}
);
layerId = master02;
shapes = (
{
closed = 1;
nodes = (
(86,-87,o),
(142,98,o),
(346,571,c),
(346,552,o),
(347,532,o),
(347,512,cs),
(347,399,o),
(339,262,o),
(339,157,cs),
(339,58,o),
(346,-2,o),
(393,-2,cs),
(399,-2,o),
(402,-1,o),
(414,3,c),
(452,115,o),
(569,395,o),
(663,529,c),
(618,355,o),
(578,191,o),
(578,43,cs),
(578,-51,o),
(594,-87,o),
(681,-87,c),
(668,-52,o),
(661,-43,o),
(661,10,cs),
(661,142,o),
(705,379,o),
(745,540,cs),
(763,613,o),
(780,671,o),
(792,697,c),
(770,705,o),
(759,708,o),
(748,708,cs),
(723,708,o),
(712,693,o),
(693,664,cs),
(646,594,o),
(479,315,o),
(413,117,c),
(413,199,o),
(432,341,o),
(432,472,cs),
(432,671,o),
(388,720,o),
(315,720,cs),
(219,720,o),
(109,636,o),
(109,551,cs),
(109,512,o),
(132,460,o),
(180,460,c),
(177,480,o),
(176,496,o),
(176,508,cs),
(176,579,o),
(213,669,o),
(296,669,cs),
(318,669,o),
(325,660,o),
(325,647,cs),
(325,637,o),
(321,625,o),
(316,614,cs),
(128,202,o),
(9,-46,o),
(-5,-87,c)
);
}
);
userData = {
com.schriftgestaltung.hints = (
{
horizontal = 0;
options = 0;
place = (
109,
67
);
stem = -2;
},
{
horizontal = 0;
options = 0;
place = (
347,
66
);
stem = -2;
},
{
horizontal = 0;
options = 0;
place = (
578,
83
);
stem = -2;
},
{
horizontal = 0;
options = 0;
place = (
347,
85
);
stem = -2;
},
{
horizontal = 1;
options = 0;
place = (
669,
51
);
stem = -2;
},
{
horizontal = 1;
options = 0;
place = (
708,
-20
);
stem = -2;
target = (
d,
o,
w,
n
);
type = TopGhost;
},
{
horizontal = 1;
options = 0;
place = (
-87,
21
);
stem = -2;
target = (
u,
p
);
type = BottomGhost;
},
{
horizontal = 1;
options = 0;
place = (
-2,
21
);
stem = -2;
target = (
u,
p
);
type = BottomGhost;
}
);
};
width = 806;
}
);
unicode = 77;
},
{
color = 6;
glyphname = N;
kernLeft = N;
kernRight = N;
lastChange = "2024-08-23 01:18:08 +0000";
layers = (
{
anchors = (
{
name = bottom;
pos = (276,-25);
},
{
name = top;
pos = (447,720);
}
);
layerId = master01;
shapes = (
{
closed = 1;
nodes = (
(107,-87,o),
(134,12,o),
(295,589,c),
(313,462,o),
(366,100,o),
(386,-6,cs),
(397,-66,o),
(422,-87,o),
(464,-87,c),
(466,69,o),
(593,535,o),
(663,720,c),
(633,720,o),
(607,688,o),
(600,671,cs),
(584,634,o),
(467,260,o),
(439,72,c),
(429,137,o),
(410,275,o),
(395,408,cs),
(377,569,o),
(359,720,o),
(279,720,cs),
(202,720,o),
(79,618,o),
(79,527,cs),
(79,495,o),
(95,470,o),
(139,470,c),
(136,479,o),
(134,492,o),
(134,505,cs),
(134,570,o),
(185,683,o),
(250,683,cs),
(261,683,o),
(265,673,o),
(265,660,cs),
(265,645,o),
(260,626,o),
(258,619,cs),
(138,211,o),
(79,40,o),
(46,-87,c)
);
}
);
userData = {
com.schriftgestaltung.hints = (
{
horizontal = 0;
options = 0;
place = (
79,
55
);
stem = -2;
},
{
horizontal = 1;
options = 0;
place = (
470,
250
);
stem = -2;
},
{
horizontal = 1;
options = 0;
place = (
683,
37
);
stem = -2;
},
{
horizontal = 1;
options = 0;
place = (
-87,
21
);
stem = -2;
target = (
u,
p
);
type = BottomGhost;
}
);
};
width = 640;
},
{
anchors = (
{
name = bottom;
pos = (325,-29);
},
{
name = top;
pos = (337,600);
}
);
layerId = master02;
shapes = (
{
closed = 1;
nodes = (
(132,-87,o),
(162,8,o),
(312,555,c),
(330,457,o),
(399,66,o),
(415,-1,cs),
(431,-69,o),
(462,-87,o),
(511,-87,c),
(511,70,o),
(637,539,o),
(707,721,c),
(663,721,o),
(638,689,o),
(626,668,cs),
(578,585,o),
(523,306,o),
(475,114,c),
(463,177,o),
(460,193,o),
(429,407,cs),
(405,571,o),
(383,720,o),
(291,720,cs),
(214,720,o),
(84,616,o),
(84,525,cs),
(84,488,o),
(105,460,o),
(164,460,c),
(158,474,o),
(154,491,o),
(154,507,cs),
(154,565,o),
(205,669,o),
(262,669,cs),
(273,669,o),
(275,665,o),
(275,655,cs),
(275,639,o),
(269,620,o),
(268,616,c),
(152,213,o),
(97,45,o),
(56,-87,c)
);
}
);
userData = {
com.schriftgestaltung.hints = (
{
horizontal = 0;
options = 0;
place = (
84,
70
);
stem = -2;
},
{
horizontal = 1;
options = 0;
place = (
669,
51
);
stem = -2;
},
{
horizontal = 1;
options = 0;
place = (
721,
-20
);
stem = -2;
target = (
d,
o,
w,
n
);
type = TopGhost;
},
{
horizontal = 1;
options = 0;
place = (
-87,
21
);
stem = -2;
target = (
u,
p
);
type = BottomGhost;
}
);
};
width = 674;
}
);
unicode = 78;
},
{
color = 4;
glyphname = Nhookleft;
kernLeft = N;
kernRight = N;
lastChange = "2024-08-12 01:40:50 +0000";
layers = (
{
background = {
shapes = (
{
closed = 1;
nodes = (
(31,-280,o),
(99,-174,o),
(127,-83,cs),
(148,-14,o),
(184,102,o),
(206,180,cs),
(213,204,o),
(235,280,o),
(248,323,c),
(396,326,o),
(416,327,o),
(438,358,c),
(390,359,o),
(330,370,o),
(263,374,c),
(296,478,o),
(332,591,o),
(359,657,c),
(420,651,o),
(470,640,o),
(501,640,cs),
(536,640,o),
(565,654,o),
(614,710,c),
(590,703,o),
(568,700,o),
(540,700,cs),
(477,700,o),
(410,715,o),
(342,715,cs),
(236,715,o),
(202,679,o),
(179,653,c),
(192,654,o),
(221,662,o),
(273,662,cs),
(292,662,o),
(305,661,o),
(318,660,c),
(279,579,o),
(239,477,o),
(202,375,c),
(130,373,o),
(74,356,o),
(71,305,c),
(135,314,o),
(158,317,o),
(182,319,c),
(152,222,o),
(118,122,o),
(98,46,cs),
(82,-14,o),
(48,-138,o),
(37,-176,cs),
(20,-233,o),
(9,-250,o),
(-11,-250,cs),
(-30,-250,o),
(-115,-225,o),
(-128,-158,c),
(-219,-229,o),
(-115,-282,o),
(-38,-281,cs)
);
}
);
};
layerId = master01;
shapes = (
{
closed = 1;
nodes = (
(23,-281,o),
(70,-190,o),
(99,-96,cs),
(115,-44,o),
(217,305,o),
(295,589,c),
(313,462,o),
(366,100,o),
(386,-6,cs),
(397,-66,o),
(422,-87,o),
(464,-87,c),
(466,69,o),
(593,535,o),
(663,720,c),
(633,720,o),
(607,688,o),
(600,671,cs),
(584,634,o),
(467,260,o),
(439,72,c),
(429,137,o),
(410,275,o),
(395,408,cs),
(377,569,o),
(359,720,o),
(279,720,cs),
(242,720,o),
(219,691,o),
(210,679,c),
(225,683,o),
(241,683,o),
(250,683,cs),
(261,683,o),
(265,673,o),
(265,660,cs),
(265,645,o),
(260,626,o),
(258,619,cs),
(176,338,o),
(52,-94,o),
(26,-176,cs),
(10,-227,o),
(-2,-250,o),
(-23,-250,cs),
(-72,-250,o),
(-128,-188,o),
(-128,-158,c),
(-154,-177,o),
(-164,-194,o),
(-165,-209,cs),
(-168,-258,o),
(-66,-281,o),
(-31,-281,c)
);
}
);
width = 600;
},
{
background = {
shapes = (
{
closed = 1;
nodes = (
(122,-87,o),
(152,8,o),
(302,555,c),
(320,457,o),
(389,66,o),
(405,-1,cs),
(421,-69,o),
(452,-87,o),
(501,-87,c),
(501,70,o),
(627,539,o),
(697,721,c),
(653,721,o),
(628,689,o),
(616,668,cs),
(568,585,o),
(513,306,o),
(465,114,c),
(453,177,o),
(450,193,o),
(419,407,cs),
(395,571,o),
(373,720,o),
(281,720,cs),
(204,720,o),
(74,616,o),
(74,525,cs),
(74,488,o),
(95,460,o),
(154,460,c),
(148,474,o),
(144,491,o),
(144,507,cs),
(144,565,o),
(195,669,o),
(252,669,cs),
(263,669,o),
(265,665,o),
(265,655,cs),
(265,639,o),
(259,620,o),
(258,616,c),
(142,213,o),
(87,45,o),
(46,-87,c)
);
},
{
closed = 1;
nodes = (
(23,-281,o),
(70,-190,o),
(99,-96,cs),
(115,-44,o),
(217,305,o),
(295,589,c),
(313,462,o),
(366,100,o),
(386,-6,cs),
(397,-66,o),
(422,-87,o),
(464,-87,c),
(466,69,o),
(593,535,o),
(663,720,c),
(633,720,o),
(607,688,o),
(600,671,cs),
(584,634,o),
(467,260,o),
(439,72,c),
(429,137,o),
(410,275,o),
(395,408,cs),
(377,569,o),
(359,720,o),
(279,720,cs),
(242,720,o),
(219,691,o),
(210,679,c),
(225,683,o),
(241,683,o),
(250,683,cs),
(261,683,o),
(265,673,o),
(265,660,cs),
(265,645,o),
(260,626,o),
(258,619,cs),
(176,338,o),
(52,-94,o),
(26,-176,cs),
(10,-227,o),
(-2,-250,o),
(-23,-250,cs),
(-72,-250,o),
(-128,-188,o),
(-128,-158,c),
(-237,-240,o),
(-78,-281,o),
(-31,-281,c)
);
}
);
};
layerId = master02;
shapes = (
{
closed = 1;
nodes = (
(28,-282,o),
(85,-198,o),
(110,-114,cs),
(152,27,o),
(217,247,o),
(302,555,c),
(360,240,o),
(384,81,o),
(407,-1,cs),
(430,-84,o),
(452,-87,o),
(501,-87,c),
(501,70,o),
(627,539,o),
(697,721,c),
(655,721,o),
(631,694,o),
(615,665,cs),
(564,571,o),
(509,292,o),
(465,114,c),
(453,177,o),
(451,189,o),
(419,406,cs),
(393,583,o),
(373,720,o),
(277,720,cs),
(227,720,o),
(204,682,o),
(196,657,c),
(212,666,o),
(227,669,o),
(240,669,cs),
(256,669,o),
(265,665,o),
(265,653,cs),
(265,643,o),
(259,618,o),
(258,616,c),
(178,338,o),
(103,84,o),
(49,-91,cs),
(29,-155,o),
(18,-236,o),
(-25,-236,cs),
(-55,-236,o),
(-120,-197,o),
(-131,-140,c),
(-164,-158,o),
(-186,-191,o),
(-186,-212,cs),
(-186,-256,o),
(-86,-282,o),
(-45,-282,cs)
);
}
);
width = 664;
}
);
unicode = 413;
},
{
glyphname = Eng;
lastChange = "2024-07-25 23:39:16 +0000";
layers = (
{
layerId = master01;
shapes = (
{
closed = 1;
nodes = (
(407,-280,o),
(487,-102,o),
(548,107,cs),
(583,227,o),
(640,464,o),
(640,572,cs),
(640,649,o),
(596,708,o),
(510,708,cs),
(420,708,o),
(353,644,o),
(301,538,c),
(317,599,o),
(324,644,o),
(324,672,cs),
(324,697,o),
(313,720,o),
(274,720,cs),
(191,720,o),
(80,618,o),
(80,527,cs),
(80,495,o),
(96,470,o),
(140,470,c),
(137,479,o),
(135,492,o),
(135,504,cs),
(135,570,o),
(191,692,o),
(247,692,cs),
(258,692,o),
(264,686,o),
(264,672,cs),
(264,603,o),
(233,507,o),
(215,443,cs),
(176,304,o),
(84,9,o),
(84,-52,cs),
(84,-85,o),
(121,-99,o),
(151,-99,c),
(185,50,o),
(227,198,o),
(276,397,cs),
(303,505,o),
(373,668,o),
(483,668,cs),
(543,668,o),
(567,618,o),
(567,556,cs),
(567,440,o),
(508,207,o),
(478,112,cs),
(407,-115,o),
(345,-254,o),
(197,-254,cs),
(185,-254,o),
(179,-257,o),
(179,-263,cs),
(179,-272,o),
(204,-280,o),
(242,-280,cs)
);
}
);
userData = {
com.schriftgestaltung.hints = (
{
horizontal = 0;
options = 0;
place = (
88,
55
);
stem = -2;
},
{
horizontal = 0;
options = 0;
place = (
281,
53
);
stem = -2;
},
{
horizontal = 0;
options = 0;
place = (
387,
67
);
stem = -2;
},
{
horizontal = 1;
options = 0;
place = (
327,
37
);
stem = -2;
},
{
horizontal = 1;
options = 0;
place = (
470,
250
);
stem = -2;
},
{
horizontal = 1;
options = 0;
place = (
692,
28
);
stem = -2;
},
{
horizontal = 1;
options = 0;
place = (
327,
50
);
stem = -2;
},
{
horizontal = 1;
options = 0;
place = (
-87,
21
);
stem = -2;
target = (
u,
p
);
type = BottomGhost;
},
{
horizontal = 1;
options = 0;
place = (
360,
-20
);
stem = -2;
target = (
d,
o,
w,
n
);
type = TopGhost;
},
{
horizontal = 1;
options = 0;
place = (
328,
-20
);
stem = -2;
target = (
d,
o,
w,
n
);
type = TopGhost;
}
);
};
width = 660;
},
{
layerId = master02;
shapes = (
{
closed = 1;
nodes = (
(437,-280,o),
(525,-96,o),
(596,127,cs),
(641,267,o),
(686,435,o),
(686,556,cs),
(686,652,o),
(634,708,o),
(544,708,cs),
(447,708,o),
(379,644,o),
(331,555,c),
(346,594,o),
(356,639,o),
(356,665,cs),
(356,693,o),
(343,720,o),
(300,720,cs),
(217,720,o),
(90,616,o),
(90,526,cs),
(90,487,o),
(113,460,o),
(169,460,c),
(161,483,o),
(159,494,o),
(159,505,cs),
(159,566,o),
(215,678,o),
(265,678,cs),
(277,678,o),
(280,670,o),
(280,658,cs),
(280,628,o),
(271,568,o),
(249,494,cs),
(198,316,o),
(97,24,o),
(97,-40,cs),
(97,-79,o),
(135,-99,o),
(181,-99,c),
(211,45,o),
(254,205,o),
(309,393,cs),
(339,496,o),
(404,654,o),
(514,654,cs),
(574,654,o),
(597,607,o),
(597,545,cs),
(597,441,o),
(561,313,o),
(509,132,cs),
(436,-104,o),
(356,-246,o),
(209,-246,cs),
(194,-246,o),
(187,-250,o),
(187,-257,cs),
(187,-269,o),
(212,-280,o),
(250,-280,cs)
);
}
);
userData = {
com.schriftgestaltung.hints = (
{
horizontal = 0;
options = 0;
place = (
764,
-76
);
stem = -2;
},
{
horizontal = 0;
options = 0;
place = (
652,
-89
);
stem = -2;
},
{
horizontal = 0;
options = 0;
place = (
532,
-86
);
stem = -2;
},
{
horizontal = 0;
options = 0;
place = (
299,
-81
);
stem = -2;
},
{
horizontal = 1;
options = 0;
place = (
708,
-30
);
stem = -2;
},
{
horizontal = 1;
options = 0;
place = (
-58,
-41
);
stem = -2;
},
{
horizontal = 1;
options = 0;
place = (
708,
-54
);
stem = -2;
},
{
horizontal = 1;
options = 0;
place = (
719,
21
);
stem = -2;
target = (
u,
p
);
type = BottomGhost;
}
);
};
width = 698;
}
);
unicode = 330;
},
{
color = 6;
glyphname = O;
kernLeft = O;
kernRight = O;
lastChange = "2024-08-30 21:23:59 +0000";
layers = (
{
anchors = (
{
name = bottom;
pos = (194,-78);
},
{
name = center;
pos = (312,316);
},
{
name = ogonek;
pos = (235,-69);
},
{
name = top;
pos = (445,715);
},
{
name = topleft;
pos = (213,715);
},
{
name = topright;
pos = (517,670);
}
);
layerId = master01;
shapes = (
{
closed = 1;
nodes = (
(374,-87,o),
(602,113,o),
(602,477,cs),
(602,555,o),
(586,670,o),
(517,670,cs),
(451,670,o),
(336,549,o),
(336,478,cs),
(336,456,o),
(350,437,o),
(384,429,c),
(400,504,o),
(470,643,o),
(519,643,cs),
(553,643,o),
(564,560,o),
(564,505,cs),
(564,268,o),
(430,-53,o),
(243,-53,cs),
(148,-53,o),
(109,40,o),
(109,147,cs),
(109,390,o),
(311,706,o),
(483,707,cs),
(484,707,o),
(484,707,o),
(495,707,c),
(480,715,o),
(460,719,o),
(435,719,cs),
(244,719,o),
(21,418,o),
(21,161,cs),
(21,11,o),
(99,-87,o),
(213,-87,cs)
);
}
);
userData = {
com.schriftgestaltung.hints = (
{
horizontal = 0;
options = 0;
place = (
21,
88
);
stem = -2;
},
{
horizontal = 0;
options = 0;
place = (
564,
38
);
stem = -2;
},
{
horizontal = 1;
options = 0;
place = (
-87,
34
);
stem = -2;
},
{
horizontal = 1;
options = 0;
place = (
643,
27
);
stem = -2;
},
{
horizontal = 1;
options = 0;
place = (
643,
76
);
stem = -2;
},
{
horizontal = 1;
options = 0;
place = (
707,
-20
);
stem = -2;
target = (
d,
o,
w,
n
);
type = TopGhost;
}
);
};
width = 623;
},
{
anchors = (
{
name = bottom;
pos = (224,-83);
},
{
name = center;
pos = (339,317);
},
{
name = ogonek;
pos = (306,-69);
},
{
name = top;
pos = (468,715);
},
{
name = topleft;
pos = (184,715);
},
{
name = topright;
pos = (549,671);
}
);
background = {
shapes = (
{
closed = 1;
nodes = (
(385,-87,o),
(613,113,o),
(613,477,cs),
(613,555,o),
(597,670,o),
(528,670,cs),
(462,670,o),
(347,549,o),
(347,478,cs),
(347,456,o),
(361,437,o),
(395,429,c),
(411,504,o),
(481,643,o),
(530,643,cs),
(564,643,o),
(575,560,o),
(575,505,cs),
(575,268,o),
(441,-53,o),
(254,-53,cs),
(159,-53,o),
(120,40,o),
(120,147,cs),
(120,390,o),
(322,706,o),
(494,707,cs),
(495,707,o),
(495,707,o),
(506,707,c),
(491,715,o),
(471,719,o),
(446,719,cs),
(255,719,o),
(32,418,o),
(32,161,cs),
(32,11,o),
(110,-87,o),
(224,-87,cs)
);
}
);
};
layerId = master02;
shapes = (
{
closed = 1;
nodes = (
(411,-87,o),
(644,110,o),
(644,450,cs),
(644,539,o),
(628,671,o),
(549,671,cs),
(472,671,o),
(354,548,o),
(354,477,cs),
(354,449,o),
(372,428,o),
(417,419,c),
(433,497,o),
(502,630,o),
(547,630,cs),
(583,630,o),
(592,544,o),
(592,486,cs),
(592,267,o),
(461,-39,o),
(277,-39,cs),
(175,-39,o),
(136,54,o),
(136,158,cs),
(136,394,o),
(336,693,o),
(509,693,cs),
(519,693,o),
(530,692,o),
(538,691,c),
(512,718,o),
(483,719,o),
(470,719,cs),
(248,719,o),
(32,420,o),
(32,164,cs),
(32,8,o),
(125,-87,o),
(242,-87,cs)
);
}
);
userData = {
com.schriftgestaltung.hints = (
{
horizontal = 0;
options = 0;
place = (
32,
104
);
stem = -2;
},
{
horizontal = 0;
options = 0;
place = (
592,
52
);
stem = -2;
},
{
horizontal = 1;
options = 0;
place = (
-87,
48
);
stem = -2;
},
{
horizontal = 1;
options = 0;
place = (
630,
41
);
stem = -2;
},
{
horizontal = 1;
options = 0;
place = (
693,
26
);
stem = -2;
}
);
};
width = 655;
}
);
unicode = 79;
},
{
color = 6;
glyphname = Oopen;
lastChange = "2024-08-30 21:40:56 +0000";
layers = (
{
anchors = (
{
name = bottom;
pos = (175,-62);
},
{
name = top;
pos = (425,715);
}
);
background = {
shapes = (
{
closed = 1;
nodes = (
(334,-87,o),
(562,113,o),
(562,477,cs),
(562,555,o),
(546,670,o),
(477,670,cs),
(411,670,o),
(296,549,o),
(296,478,cs),
(296,456,o),
(310,437,o),
(344,429,c),
(360,504,o),
(430,643,o),
(479,643,cs),
(513,643,o),
(524,560,o),
(524,505,cs),
(524,268,o),
(390,-53,o),
(203,-53,cs),
(108,-53,o),
(69,40,o),
(69,147,cs),
(69,390,o),
(271,706,o),
(443,707,cs),
(444,707,o),
(444,707,o),
(455,707,c),
(440,715,o),
(420,719,o),
(395,719,cs),
(204,719,o),
(-19,418,o),
(-19,161,cs),
(-19,11,o),
(59,-87,o),
(173,-87,cs)
);
},
{
closed = 1;
nodes = (
(288,719,o),
(179,611,o),
(112,480,c),
(126,470,l),
(179,584,o),
(292,685,o),
(398,685,cs),
(499,685,o),
(539,591,o),
(539,492,cs),
(539,267,o),
(349,-57,o),
(205,-57,cs),
(171,-57,o),
(156,-39,o),
(156,-12,cs),
(156,45,o),
(222,143,o),
(263,189,c),
(255,206,o),
(243,212,o),
(232,212,cs),
(177,212,o),
(116,77,o),
(116,-1,cs),
(116,-63,o),
(154,-87,o),
(208,-87,cs),
(398,-87,o),
(619,211,o),
(619,475,cs),
(619,597,o),
(564,719,o),
(422,719,cs)
);
}
);
};
layerId = master01;
shapes = (
{
closed = 1;
nodes = (
(375,-87,o),
(609,146,o),
(609,457,cs),
(609,554,o),
(586,719,o),
(425,719,cs),
(300,719,o),
(142,620,o),
(142,554,cs),
(142,526,o),
(171,515,o),
(197,509,c),
(207,572,o),
(297,682,o),
(405,682,cs),
(510,682,o),
(533,578,o),
(533,493,cs),
(533,274,o),
(380,-53,o),
(203,-53,cs),
(109,-53,o),
(69,39,o),
(69,122,cs),
(69,150,o),
(74,178,o),
(83,200,c),
(28,200,o),
(-11,172,o),
(-11,98,cs),
(-11,4,o),
(52,-87,o),
(176,-87,cs)
);
}
);
width = 630;
},
{
anchors = (
{
name = bottom;
pos = (185,-62);
},
{
name = top;
pos = (435,715);
}
);
background = {
shapes = (
{
closed = 1;
nodes = (
(375,-87,o),
(609,146,o),
(609,457,cs),
(609,554,o),
(586,719,o),
(425,719,cs),
(300,719,o),
(142,620,o),
(142,554,cs),
(142,526,o),
(171,515,o),
(197,509,c),
(207,572,o),
(297,682,o),
(405,682,cs),
(510,682,o),
(533,578,o),
(533,493,cs),
(533,274,o),
(380,-53,o),
(203,-53,cs),
(109,-53,o),
(69,39,o),
(69,122,cs),
(69,150,o),
(74,178,o),
(83,200,c),
(28,200,o),
(-11,172,o),
(-11,98,cs),
(-11,4,o),
(52,-87,o),
(176,-87,cs)
);
}
);
};
layerId = master02;
shapes = (
{
closed = 1;
nodes = (
(395,-87,o),
(631,150,o),
(631,456,cs),
(631,554,o),
(607,719,o),
(436,719,cs),
(305,719,o),
(142,621,o),
(142,551,cs),
(142,519,o),
(176,500,o),
(217,492,c),
(226,569,o),
(315,668,o),
(415,668,cs),
(512,668,o),
(533,573,o),
(533,493,cs),
(533,280,o),
(384,-39,o),
(216,-39,cs),
(128,-39,o),
(91,50,o),
(91,130,cs),
(91,162,o),
(97,192,o),
(107,217,c),
(39,217,o),
(-11,182,o),
(-11,99,cs),
(-11,4,o),
(56,-87,o),
(186,-87,cs)
);
}
);
width = 652;
}
);
unicode = 390;
},
{
color = 6;
glyphname = Oslash;
kernLeft = O;
kernRight = O;
lastChange = "2024-08-23 04:35:29 +0000";
layers = (
{
anchors = (
{
name = bottom;
pos = (229,-64);
},
{
name = top;
pos = (482,715);
}
);
background = {
anchors = (
{
name = bottom;
pos = (203,-70);
},
{
name = ogonek;
pos = (301,-69);
},
{
name = top;
pos = (481,720);
},
{
name = topright;
pos = (517,670);
}
);
shapes = (
{
closed = 1;
nodes = (
(71,-101,o),
(101,-90,o),
(132,-68,c),
(156,-80,o),
(183,-87,o),
(213,-87,cs),
(374,-87,o),
(602,113,o),
(602,477,cs),
(602,504,o),
(600,536,o),
(594,566,c),
(630,618,o),
(655,657,o),
(664,670,c),
(659,671,o),
(654,671,o),
(648,671,cs),
(618,671,o),
(583.397,655.996,o),
(569,638,c),
(557,657,o),
(540,670,o),
(517,670,cs),
(451,670,o),
(336,549,o),
(336,478,cs),
(336,456,o),
(350,437,o),
(384,429,c),
(400,504,o),
(470,643,o),
(519,643,cs),
(533,643,o),
(543,628,o),
(550,608,c),
(457,465,o),
(269,176,o),
(137,12,c),
(117,48,o),
(109,96,o),
(109,147,cs),
(109,390,o),
(312,707,o),
(484,707,cs),
(495,707,l),
(480,715,o),
(460,719,o),
(435,719,cs),
(244,719,o),
(21,418,o),
(21,161,cs),
(21,73,o),
(47,3,o),
(92,-39,c),
(67,-67,o),
(46,-88,o),
(30,-99,c),
(35,-100,o),
(40,-101,o),
(46,-101,cs)
);
},
{
closed = 1;
nodes = (
(215,-53,o),
(193,-45,o),
(174,-32,c),
(196,-11,o),
(217,15,o),
(239,46,cs),
(297,129,o),
(457,363,o),
(564,521,c),
(564,505,ls),
(564,268,o),
(430,-53,o),
(243,-53,cs)
);
}
);
};
layerId = master01;
shapes = (
{
closed = 1;
nodes = (
(31,-143,o),
(61,-132,o),
(122,-68,c),
(156,-80,o),
(183,-87,o),
(213,-87,cs),
(374,-87,o),
(602,113,o),
(602,477,cs),
(602,504,o),
(600,536,o),
(594,566,c),
(666,662,o),
(691,701,o),
(700,714,c),
(695,715,o),
(690,715,o),
(684,715,cs),
(664,715,o),
(606,667,o),
(580,622,c),
(557,657,o),
(540,670,o),
(517,670,cs),
(451,670,o),
(336,549,o),
(336,478,cs),
(336,456,o),
(350,437,o),
(384,429,c),
(400,504,o),
(470,643,o),
(519,643,cs),
(533,643,o),
(543,628,o),
(550,590,c),
(432,426,o),
(291,176,o),
(137,12,c),
(117,48,o),
(109,96,o),
(109,147,cs),
(109,390,o),
(312,707,o),
(484,707,cs),
(495,707,l),
(480,715,o),
(460,719,o),
(435,719,cs),
(244,719,o),
(21,418,o),
(21,161,cs),
(21,73,o),
(47,3,o),
(92,-39,c),
(27,-109,o),
(6,-130,o),
(-10,-141,c),
(-5,-142,o),
(0,-143,o),
(6,-143,cs)
);
},
{
closed = 1;
nodes = (
(215,-53,o),
(193,-45,o),
(164,-20,c),
(293,109,o),
(464,403,o),
(564,536,c),
(564,268,o),
(430,-53,o),
(243,-53,cs)
);
}
);
userData = {
com.schriftgestaltung.hints = (
{
horizontal = 0;
options = 0;
place = (
21,
88
);
stem = -2;
},
{
horizontal = 0;
options = 0;
place = (
564,
38
);
stem = -2;
},
{
horizontal = 1;
options = 0;
place = (
-87,
34
);
stem = -2;
},
{
horizontal = 1;
options = 0;
place = (
643,
27
);
stem = -2;
},
{
horizontal = 1;
options = 0;
place = (
643,
76
);
stem = -2;
},
{
horizontal = 1;
options = 0;
place = (
-101,
21
);
stem = -2;
target = (
u,
p
);
type = BottomGhost;
},
{
horizontal = 1;
options = 0;
place = (
707,
-20
);
stem = -2;
target = (
d,
o,
w,
n
);
type = TopGhost;
}
);
};
width = 623;
},
{
anchors = (
{
name = bottom;
pos = (239,-64);
},
{
name = top;
pos = (492,715);
}
);
layerId = master02;
shapes = (
{
closed = 1;
nodes = (
(80,-118,o),
(122,-81,o),
(144,-59,c),
(183,-81,o),
(211,-88,o),
(243,-88,cs),
(409,-88,o),
(644,107,o),
(644,456,cs),
(644,488,o),
(642,524,o),
(634,573,c),
(674,633,o),
(696,666,o),
(710,684,c),
(693,687,o),
(688,687,o),
(681,687,cs),
(650,687,o),
(625,644,o),
(612,629,c),
(586,659,o),
(567,670,o),
(545,670,cs),
(472,670,o),
(353,547,o),
(353,476,cs),
(353,449,o),
(371,428,o),
(415,418,c),
(431,492,o),
(500,629,o),
(546,629,cs),
(558,629,o),
(565,601,o),
(572,584,c),
(480,445,o),
(295,190,o),
(161,16,c),
(143,63,o),
(135,111,o),
(135,158,cs),
(135,392,o),
(334,692,o),
(509,692,cs),
(523,692,l),
(507,714,o),
(484,718,o),
(460,718,cs),
(252,718,o),
(30,419,o),
(30,166,cs),
(30,75,o),
(59,9,o),
(104,-34,c),
(82,-58,o),
(45,-96,o),
(19,-113,c),
(34,-116,o),
(46,-118,o),
(57,-118,cs)
);
},
{
closed = 1;
nodes = (
(247,-40,o),
(219,-34,o),
(190,-11,c),
(245,35,o),
(573,510,o),
(591,539,c),
(591,268,o),
(463,-40,o),
(273,-40,cs)
);
}
);
userData = {
com.schriftgestaltung.hints = (
{
horizontal = 0;
options = 0;
place = (
30,
105
);
stem = -2;
},
{
horizontal = 0;
options = 0;
place = (
591,
53
);
stem = -2;
},
{
horizontal = 1;
options = 0;
place = (
-88,
48
);
stem = -2;
},
{
horizontal = 1;
options = 0;
place = (
629,
41
);
stem = -2;
},
{
horizontal = 1;
options = 0;
place = (
692,
26
);
stem = -2;
},
{
horizontal = 1;
options = 0;
place = (
-101,
21
);
stem = -2;
target = (
u,
p
);
type = BottomGhost;
}
);
};
width = 654;
}
);
unicode = 216;
},
{
color = 6;
glyphname = OE;
kernLeft = O;
kernRight = AE;
lastChange = "2024-08-30 21:41:09 +0000";
layers = (
{
anchors = (
{
name = bottom;
pos = (220,-75);
},
{
name = top;
pos = (555,715);
}
);
background = {
shapes = (
{
closed = 1;
nodes = (
(533,-88,o),
(694,-75,o),
(707,-41,c),
(703,-40,o),
(696,-40,o),
(687,-40,cs),
(654,-40,o),
(594,-44,o),
(568,-44,cs),
(504,-44,o),
(453,-44,o),
(401,-42,c),
(498,18,o),
(527,137,o),
(565,308,c),
(584,307,o),
(603,306,o),
(639,306,cs),
(720,306,o),
(767,325,o),
(778,355,c),
(731,362,o),
(656,365,o),
(575,365,c),
(580,397,o),
(588,483,o),
(588,546,cs),
(588,574,o),
(581,612,o),
(577,624,c),
(604,624,o),
(625,621,o),
(657,621,cs),
(738,621,o),
(816,627,o),
(827,657,c),
(791,669,o),
(712,674,o),
(633,674,cs),
(593,674,o),
(552,671,o),
(519,670,cs),
(451,669,o),
(336,549,o),
(336,478,cs),
(336,456,o),
(350,437,o),
(384,429,c),
(423,526,o),
(472,632,o),
(503,632,cs),
(521,632,o),
(533,597,o),
(533,505,cs),
(533,268,o),
(404,-53,o),
(243,-53,cs),
(148,-53,o),
(109,40,o),
(109,147,cs),
(109,390,o),
(312,707,o),
(484,707,cs),
(495,707,l),
(480,715,o),
(460,719,o),
(435,719,cs),
(244,719,o),
(21,418,o),
(21,161,cs),
(21,-9,o),
(109,-87,o),
(236,-87,cs),
(294,-87,o),
(354,-88,o),
(409,-88,cs)
);
}
);
};
layerId = master01;
shapes = (
{
closed = 1;
nodes = (
(533,-88,o),
(694,-75,o),
(707,-41,c),
(703,-40,o),
(696,-40,o),
(687,-40,cs),
(654,-40,o),
(594,-44,o),
(568,-44,cs),
(504,-44,o),
(453,-44,o),
(401,-42,c),
(498,18,o),
(527,137,o),
(565,308,c),
(584,307,o),
(603,306,o),
(639,306,cs),
(720,306,o),
(767,325,o),
(778,355,c),
(731,362,o),
(656,365,o),
(575,365,c),
(580,397,o),
(588,483,o),
(588,546,cs),
(588,574,o),
(581,612,o),
(577,624,c),
(604,624,o),
(625,621,o),
(657,621,cs),
(738,621,o),
(816,627,o),
(827,657,c),
(791,669,o),
(712,674,o),
(633,674,cs),
(593,674,o),
(552,671,o),
(519,670,cs),
(451,669,o),
(336,549,o),
(336,478,cs),
(336,456,o),
(350,437,o),
(384,429,c),
(423,526,o),
(472,632,o),
(503,632,cs),
(521,632,o),
(533,597,o),
(533,505,cs),
(533,268,o),
(404,-53,o),
(243,-53,cs),
(148,-53,o),
(109,40,o),
(109,147,cs),
(109,390,o),
(307,707,o),
(495,707,c),
(480,715,o),
(460,719,o),
(435,719,cs),
(244,719,o),
(21,418,o),
(21,161,cs),
(21,-9,o),
(109,-87,o),
(236,-87,cs),
(294,-87,o),
(354,-88,o),
(409,-88,cs)
);
}
);
userData = {
com.schriftgestaltung.hints = (
{
horizontal = 0;
options = 0;
place = (
21,
88
);
stem = -2;
},
{
horizontal = 0;
options = 0;
place = (
533,
55
);
stem = -2;
},
{
horizontal = 1;
options = 0;
place = (
-87,
34
);
stem = -2;
},
{
horizontal = 1;
options = 0;
place = (
306,
59
);
stem = -2;
},
{
horizontal = 1;
options = 0;
place = (
621,
53
);
stem = -2;
},
{
horizontal = 1;
options = 0;
place = (
621,
98
);
stem = -2;
},
{
horizontal = 1;
options = 0;
place = (
-87,
47
);
stem = -2;
},
{
horizontal = 1;
options = 0;
place = (
-88,
21
);
stem = -2;
target = (
u,
p
);
type = BottomGhost;
},
{
horizontal = 1;
options = 0;
place = (
-44,
21
);
stem = -2;
target = (
u,
p
);
type = BottomGhost;
},
{
horizontal = 1;
options = 0;
place = (
707,
-20
);
stem = -2;
target = (
d,
o,
w,
n
);
type = TopGhost;
}
);
};
width = 799;
},
{
anchors = (
{
name = bottom;
pos = (240,-75);
},
{
name = top;
pos = (575,715);
}
);
layerId = master02;
shapes = (
{
closed = 1;
nodes = (
(579,-88,o),
(751,-71,o),
(767,-29,c),
(755,-26,o),
(747,-26,o),
(737,-26,cs),
(704,-26,o),
(642,-30,o),
(613,-30,cs),
(555,-30,o),
(509,-30,o),
(461,-29,c),
(546,33,o),
(574,147,o),
(608,301,c),
(628,300,o),
(643,299,o),
(680,299,cs),
(768,299,o),
(819,323,o),
(833,361,c),
(780,368,o),
(702,371,o),
(620,372,c),
(624,405,o),
(628,472,o),
(628,526,cs),
(628,551,o),
(624,590,o),
(618,611,c),
(650,611,o),
(672,609,o),
(693,609,cs),
(779,609,o),
(864,616,o),
(878,656,c),
(834,670,o),
(749,675,o),
(666,675,cs),
(625,675,o),
(577,674,o),
(543,672,cs),
(469,668,o),
(354,548,o),
(354,475,cs),
(354,450,o),
(373,429,o),
(416,419,c),
(454,515,o),
(502,619,o),
(531,619,cs),
(545,619,o),
(560,585,o),
(560,494,cs),
(560,265,o),
(436,-39,o),
(274,-39,cs),
(176,-39,o),
(136,54,o),
(136,158,cs),
(136,393,o),
(336,693,o),
(525,693,c),
(509,715,o),
(485,719,o),
(459,719,cs),
(252,719,o),
(32,420,o),
(32,164,cs),
(32,-8,o),
(131,-87,o),
(267,-87,cs),
(327,-87,o),
(390,-88,o),
(447,-88,cs)
);
}
);
userData = {
com.schriftgestaltung.hints = (
{
horizontal = 0;
options = 0;
place = (
32,
104
);
stem = -2;
},
{
horizontal = 0;
options = 0;
place = (
560,
68
);
stem = -2;
},
{
horizontal = 1;
options = 0;
place = (
-87,
48
);
stem = -2;
},
{
horizontal = 1;
options = 0;
place = (
299,
73
);
stem = -2;
},
{
horizontal = 1;
options = 0;
place = (
609,
66
);
stem = -2;
},
{
horizontal = 1;
options = 0;
place = (
693,
26
);
stem = -2;
},
{
horizontal = 1;
options = 0;
place = (
-87,
61
);
stem = -2;
},
{
horizontal = 1;
options = 0;
place = (
-88,
21
);
stem = -2;
target = (
u,
p
);
type = BottomGhost;
},
{
horizontal = 1;
options = 0;
place = (
-30,
21
);
stem = -2;
target = (
u,
p
);
type = BottomGhost;
}
);
};
width = 848;
}
);
unicode = 338;
},
{
color = 6;
glyphname = P;
lastChange = "2024-08-30 21:41:15 +0000";
layers = (
{
anchors = (
{
name = bottom;
pos = (53,-51);
},
{
name = center;
pos = (221,492);
},
{
name = top;
pos = (412,715);
}
);
layerId = master01;
shapes = (
{
closed = 1;
nodes = (
(118,19,o),
(155,159,o),
(195,296,c),
(205,296,ls),
(270,296,o),
(586,318,o),
(586,527,cs),
(586,655,o),
(447,720,o),
(329,720,cs),
(245,720,o),
(159,687,o),
(108,665,c),
(108,655,o),
(131,638,o),
(139,638,cs),
(150,638,o),
(201,678,o),
(278,693,c),
(175,460,o),
(116,279,o),
(32,18,cs),
(26,1,o),
(18,-22,o),
(18,-37,cs),
(18,-66,o),
(53,-87,o),
(87,-87,c)
);
},
{
closed = 1;
nodes = (
(242,459,o),
(289,602,o),
(338,699,c),
(432,698,o),
(519,652,o),
(519,544,cs),
(519,391,o),
(346,320,o),
(199,312,c)
);
}
);
userData = {
com.schriftgestaltung.hints = (
{
horizontal = 0;
options = 0;
place = (
519,
67
);
stem = -2;
},
{
horizontal = 1;
options = 0;
place = (
699,
21
);
stem = -2;
target = (
u,
p
);
type = BottomGhost;
},
{
horizontal = 1;
options = 0;
place = (
-87,
21
);
stem = -2;
target = (
u,
p
);
type = BottomGhost;
},
{
horizontal = 1;
options = 0;
place = (
296,
-20
);
stem = -2;
target = (
d,
o,
w,
n
);
type = TopGhost;
}
);
};
width = 527;
},
{
anchors = (
{
name = bottom;
pos = (83,-51);
},
{
name = center;
pos = (271,492);
},
{
name = top;
pos = (442,715);
}
);
layerId = master02;
shapes = (
{
closed = 1;
nodes = (
(148,20,o),
(184,157,o),
(222,289,c),
(228,289,ls),
(300,289,o),
(628,312,o),
(628,524,cs),
(628,654,o),
(475,720,o),
(349,720,cs),
(260,720,o),
(169,687,o),
(114,664,c),
(114,650,o),
(141,625,o),
(152,625,cs),
(167,625,o),
(210,660,o),
(286,677,c),
(185,453,o),
(129,279,o),
(47,26,cs),
(41,8,o),
(34,-13,o),
(34,-30,cs),
(34,-63,o),
(77,-87,o),
(117,-87,c)
);
},
{
closed = 1;
nodes = (
(271,458,o),
(315,592,o),
(363,685,c),
(455,682,o),
(545,639,o),
(545,540,cs),
(545,398,o),
(381,330,o),
(231,320,c)
);
}
);
userData = {
com.schriftgestaltung.hints = (
{
horizontal = 0;
options = 0;
place = (
545,
83
);
stem = -2;
},
{
horizontal = 1;
options = 0;
place = (
685,
35
);
stem = -2;
},
{
horizontal = 1;
options = 0;
place = (
289,
31
);
stem = -2;
},
{
horizontal = 1;
options = 0;
place = (
-87,
21
);
stem = -2;
target = (
u,
p
);
type = BottomGhost;
}
);
};
width = 559;
}
);
unicode = 80;
},
{
color = 4;
glyphname = Phook;
lastChange = "2024-08-11 14:32:39 +0000";
layers = (
{
background = {
shapes = (
{
closed = 1;
nodes = (
(182,19,o),
(219,159,o),
(259,296,c),
(269,296,ls),
(332,296,o),
(650,319,o),
(650,525,cs),
(650,655,o),
(523,718,o),
(371,718,cs),
(261,718,o),
(85,687,o),
(85,560,cs),
(85,511,o),
(111,489,o),
(150,489,c),
(146,511,o),
(144,531,o),
(144,548,cs),
(144,682,o),
(260,691,o),
(342,697,c),
(241,469,o),
(182,285,o),
(96,19,cs),
(86,-12,o),
(82,-25,o),
(82,-36,cs),
(82,-67,o),
(117,-87,o),
(151,-87,c)
);
},
{
closed = 1;
nodes = (
(306,459,o),
(352,600,o),
(401,697,c),
(495,694,o),
(583,652,o),
(583,544,cs),
(583,391,o),
(410,320,o),
(263,312,c)
);
}
);
};
layerId = master01;
shapes = (
{
closed = 1;
nodes = (
(182,19,o),
(219,159,o),
(259,296,c),
(269,296,ls),
(335,296,o),
(650,319,o),
(650,527,cs),
(650,654,o),
(531,718,o),
(358,718,cs),
(144,718,o),
(40,621,o),
(40,519,cs),
(40,461,o),
(71,436,o),
(102,436,cs),
(131,436,o),
(154,458,o),
(163,494,c),
(124,496,o),
(108,535,o),
(108,569,cs),
(108,678,o),
(276,695,o),
(342,697,c),
(241,469,o),
(182,285,o),
(96,19,cs),
(86,-12,o),
(82,-25,o),
(82,-36,cs),
(82,-67,o),
(117,-87,o),
(151,-87,c)
);
},
{
closed = 1;
nodes = (
(306,459,o),
(352,600,o),
(401,697,c),
(495,694,o),
(583,652,o),
(583,544,cs),
(583,391,o),
(410,320,o),
(263,312,c)
);
}
);
width = 591;
},
{
background = {
shapes = (
{
closed = 1;
nodes = (
(204,19,o),
(241,159,o),
(281,296,c),
(291,296,ls),
(357,296,o),
(672,319,o),
(672,527,cs),
(672,654,o),
(553,718,o),
(380,718,cs),
(166,718,o),
(62,621,o),
(62,519,cs),
(62,461,o),
(93,436,o),
(124,436,cs),
(153,436,o),
(176,458,o),
(185,494,c),
(146,496,o),
(130,535,o),
(130,569,cs),
(130,678,o),
(298,695,o),
(364,697,c),
(263,469,o),
(204,285,o),
(118,19,cs),
(108,-12,o),
(104,-25,o),
(104,-36,cs),
(104,-67,o),
(139,-87,o),
(173,-87,c)
);
},
{
closed = 1;
nodes = (
(328,459,o),
(374,600,o),
(423,697,c),
(517,694,o),
(605,652,o),
(605,544,cs),
(605,391,o),
(432,320,o),
(285,312,c)
);
}
);
};
layerId = master02;
shapes = (
{
closed = 1;
nodes = (
(205,20,o),
(241,157,o),
(279,289,c),
(285,289,ls),
(357,289,o),
(685,314,o),
(685,521,cs),
(685,654,o),
(550,720,o),
(374,720,cs),
(145,720,o),
(40,608,o),
(40,515,cs),
(40,464,o),
(71,436,o),
(102,436,cs),
(135,436,o),
(160,469,o),
(163,494,c),
(140,494,o),
(108,520,o),
(108,556,cs),
(108,611,o),
(187,674,o),
(343,677,c),
(242,453,o),
(186,279,o),
(104,26,cs),
(97,4,o),
(91,-16,o),
(91,-29,cs),
(91,-64,o),
(134,-87,o),
(174,-87,c)
);
},
{
closed = 1;
nodes = (
(328,458,o),
(369,585,o),
(417,678,c),
(513,674,o),
(602,639,o),
(602,538,cs),
(602,398,o),
(433,329,o),
(288,320,c)
);
}
);
width = 616;
},
{
associatedMasterId = master01;
background = {
shapes = (
{
closed = 1;
nodes = (
(152,19,o),
(189,159,o),
(229,296,c),
(239,296,ls),
(304,296,o),
(620,318,o),
(620,527,cs),
(620,655,o),
(481,720,o),
(363,720,cs),
(279,720,o),
(193,687,o),
(142,665,c),
(142,655,o),
(165,638,o),
(173,638,cs),
(184,638,o),
(235,678,o),
(312,693,c),
(209,460,o),
(150,279,o),
(66,18,cs),
(60,1,o),
(52,-22,o),
(52,-37,cs),
(52,-66,o),
(87,-87,o),
(121,-87,c)
);
},
{
closed = 1;
nodes = (
(276,459,o),
(323,602,o),
(372,699,c),
(466,698,o),
(553,652,o),
(553,544,cs),
(553,391,o),
(380,320,o),
(233,312,c)
);
},
{
closed = 1;
nodes = (
(372,-71,o),
(609,22,o),
(609,203,cs),
(609,268,o),
(579,354,o),
(381,366,c),
(484,383,o),
(610,436,o),
(610,564,cs),
(610,701,o),
(467,720,o),
(369,720,cs),
(294,720,o),
(128,709,o),
(68,542,c),
(69,511,o),
(97,493,o),
(118,489,c),
(153,633,o),
(221,677,o),
(312,684,c),
(291,636,o),
(135,279,o),
(98,134,cs),
(91,107,o),
(89,89,o),
(89,77,cs),
(89,42,o),
(106,26,o),
(145,26,c),
(173,123,o),
(201,228,o),
(230,330,c),
(252,330,o),
(269,333,o),
(305,334,cs),
(451,338,o),
(546,305,o),
(546,216,cs),
(546,116,o),
(428,-10,o),
(178,-10,cs),
(124,-10,o),
(75,-4,o),
(69,-4,cs),
(67,-4,o),
(65,-5,o),
(65,-7,cs),
(65,-54,o),
(103,-71,o),
(184,-71,cs)
);
},
{
closed = 1;
nodes = (
(276,487,o),
(314,598,o),
(362,690,c),
(368,691,o),
(374,691,o),
(377,691,cs),
(495,691,o),
(550,651,o),
(550,567,cs),
(550,424,o),
(393,377,o),
(241,371,c)
);
}
);
};
layerId = "37D88634-2BB4-4964-A4DA-67D23C9E1841";
name = "29 Jun 24 23:44";
shapes = (
{
closed = 1;
nodes = (
(152,19,o),
(189,159,o),
(229,296,c),
(239,296,ls),
(304,296,o),
(620,320,o),
(620,524,cs),
(620,655,o),
(489,720,o),
(352,720,cs),
(269,720,o),
(124,696,o),
(68,542,c),
(68,513,o),
(99,489,o),
(118,489,c),
(160,652,o),
(235,687,o),
(312,693,c),
(211,465,o),
(152,285,o),
(66,19,cs),
(56,-12,o),
(52,-25,o),
(52,-36,cs),
(52,-67,o),
(87,-87,o),
(121,-87,c)
);
},
{
closed = 1;
nodes = (
(276,459,o),
(323,602,o),
(372,699,c),
(466,698,o),
(553,652,o),
(553,544,cs),
(553,391,o),
(380,320,o),
(233,312,c)
);
}
);
width = 561;
},
{
associatedMasterId = master01;
background = {
shapes = (
{
closed = 1;
nodes = (
(397,-87,o),
(643,154,o),
(643,452,cs),
(643,643,o),
(542,726,o),
(351,726,cs),
(196,726,o),
(65,672,o),
(65,549,cs),
(65,510,o),
(100,489,o),
(130,489,c),
(125,512,o),
(123,533,o),
(123,551,cs),
(123,667,o),
(217,696,o),
(324,696,cs),
(468,696,o),
(569,644,o),
(569,459,cs),
(569,199,o),
(368,-61,o),
(162,-61,cs),
(149,-61,o),
(137,-60,o),
(119,-57,c),
(166,156,o),
(270,485,o),
(363,696,c),
(353,703,o),
(346,706,o),
(339,706,cs),
(299,706,o),
(268,624,o),
(261,607,cs),
(228,527,o),
(102,172,o),
(56,-42,c),
(82,-79,o),
(121,-87,o),
(164,-87,cs)
);
}
);
};
layerId = "53F1C5C8-63B7-42D8-B066-8B623CBD1B5E";
name = "25 Jul 24, 4:01 PM";
shapes = (
{
closed = 1;
nodes = (
(152,19,o),
(189,159,o),
(229,296,c),
(239,296,ls),
(302,296,o),
(620,319,o),
(620,525,cs),
(620,655,o),
(493,718,o),
(341,718,cs),
(231,718,o),
(55,687,o),
(55,560,cs),
(55,511,o),
(81,489,o),
(120,489,c),
(116,511,o),
(114,531,o),
(114,548,cs),
(114,682,o),
(230,691,o),
(312,697,c),
(211,469,o),
(152,285,o),
(66,19,cs),
(56,-12,o),
(52,-25,o),
(52,-36,cs),
(52,-67,o),
(87,-87,o),
(121,-87,c)
);
},
{
closed = 1;
nodes = (
(276,459,o),
(322,600,o),
(371,697,c),
(465,694,o),
(553,652,o),
(553,544,cs),
(553,391,o),
(380,320,o),
(233,312,c)
);
}
);
width = 561;
}
);
unicode = 420;
},
{
color = 6;
glyphname = Thorn;
lastChange = "2024-08-23 02:13:08 +0000";
layers = (
{
layerId = master01;
shapes = (
{
closed = 1;
nodes = (
(121,-17,o),
(130,17,o),
(155,105,c),
(248,109,o),
(516,143,o),
(516,336,cs),
(516,454,o),
(398,518,o),
(287,528,c),
(305,576,o),
(337,671,o),
(356,708,c),
(346,714,o),
(338,716,o),
(330,716,cs),
(285,716,o),
(248,574,o),
(228,527,c),
(154,521,o),
(83,493,o),
(38,474,c),
(38,464,o),
(61,447,o),
(69,447,cs),
(81,447,o),
(136,491,o),
(219,504,c),
(147,325,o),
(89,146,o),
(45,18,cs),
(39,0,o),
(31,-22,o),
(31,-37,cs),
(31,-66,o),
(66,-87,o),
(100,-87,c)
);
},
{
closed = 1;
nodes = (
(197,255,o),
(237,392,o),
(279,507,c),
(369,503,o),
(449,457,o),
(449,353,cs),
(449,211,o),
(299,140,o),
(160,124,c)
);
}
);
userData = {
com.schriftgestaltung.hints = (
{
horizontal = 0;
options = 0;
place = (
462,
67
);
stem = -2;
},
{
horizontal = 1;
options = 0;
place = (
558,
158
);
stem = -2;
},
{
horizontal = 1;
options = 0;
place = (
-87,
21
);
stem = -2;
target = (
u,
p
);
type = BottomGhost;
}
);
};
width = 508;
},
{
layerId = master02;
shapes = (
{
closed = 1;
nodes = (
(154,-16,o),
(159,27,o),
(184,111,c),
(291,115,o),
(558,157,o),
(558,340,cs),
(558,465,o),
(433,525,o),
(319,540,c),
(335,583,o),
(368,664,o),
(385,698,c),
(371,714,o),
(361,716,o),
(353,716,cs),
(300,716,o),
(265,588,o),
(244,540,c),
(167,533,o),
(92,505,o),
(44,486,c),
(44,471,o),
(73,447,o),
(84,447,cs),
(98,447,o),
(149,486,o),
(227,501,c),
(157,323,o),
(100,150,o),
(62,26,cs),
(56,8,o),
(49,-16,o),
(49,-30,cs),
(49,-64,o),
(93,-87,o),
(133,-87,c)
);
},
{
closed = 1;
nodes = (
(228,272,o),
(264,394,o),
(305,505,c),
(391,501,o),
(476,461,o),
(476,361,cs),
(476,232,o),
(335,163,o),
(193,145,c)
);
}
);
userData = {
com.schriftgestaltung.hints = (
{
horizontal = 0;
options = 0;
place = (
491,
82
);
stem = -2;
},
{
horizontal = 1;
options = 0;
place = (
546,
170
);
stem = -2;
},
{
horizontal = 1;
options = 0;
place = (
-87,
21
);
stem = -2;
target = (
u,
p
);
type = BottomGhost;
}
);
};
width = 543;
}
);
unicode = 222;
},
{
color = 6;
glyphname = Q;
lastChange = "2024-08-30 21:41:37 +0000";
layers = (
{
anchors = (
{
name = bottom;
pos = (231,-48);
},
{
name = top;
pos = (447,715);
}
);
layerId = master01;
shapes = (
{
closed = 1;
nodes = (
(547,-119,o),
(593,-109,o),
(614,-38,c),
(594,-44,o),
(585,-50,o),
(556,-50,cs),
(501,-50,o),
(453,-29,o),
(408,-4,c),
(538,97,o),
(634,309,o),
(634,477,cs),
(634,626,o),
(559,720,o),
(431,720,cs),
(214,720,o),
(35,448,o),
(35,199,cs),
(35,127,o),
(50,60,o),
(112,60,c),
(106,88,o),
(104,116,o),
(104,144,cs),
(104,374,o),
(239,693,o),
(432,693,cs),
(525,693,o),
(564,618,o),
(564,509,cs),
(564,367,o),
(497,120,o),
(378,13,c),
(324,46,o),
(274,77,o),
(219,77,cs),
(166,77,o),
(146,48,o),
(146,25,cs),
(146,3,o),
(164,-63,o),
(256,-63,cs),
(290,-63,o),
(324,-53,o),
(356,-37,c),
(404,-78,o),
(454,-119,o),
(516,-119,cs)
);
},
{
closed = 1;
nodes = (
(188,-38,o),
(172,6,o),
(172,24,cs),
(172,35,o),
(178,51,o),
(209,51,cs),
(253,51,o),
(293,19,o),
(334,-17,c),
(310,-30,o),
(284,-38,o),
(256,-38,cs)
);
}
);
userData = {
com.schriftgestaltung.hints = (
{
horizontal = 0;
options = 0;
place = (
35,
69
);
stem = -2;
},
{
horizontal = 0;
options = 0;
place = (
146,
26
);
stem = -2;
},
{
horizontal = 0;
options = 0;
place = (
564,
70
);
stem = -2;
},
{
horizontal = 1;
options = 0;
place = (
-119,
69
);
stem = -2;
},
{
horizontal = 1;
options = 0;
place = (
-63,
25
);
stem = -2;
},
{
horizontal = 1;
options = 0;
place = (
693,
27
);
stem = -2;
},
{
horizontal = 1;
options = 0;
place = (
-63,
140
);
stem = -2;
}
);
};
width = 693;
},
{
anchors = (
{
name = bottom;
pos = (251,-48);
},
{
name = top;
pos = (467,715);
}
);
layerId = master02;
shapes = (
{
closed = 1;
nodes = (
(594,-119,o),
(644,-107,o),
(669,-22,c),
(641,-29,o),
(633,-37,o),
(598,-37,cs),
(547,-37,o),
(499,-20,o),
(455,2,c),
(583,106,o),
(677,309,o),
(677,472,cs),
(677,627,o),
(591,720,o),
(454,720,cs),
(219,720,o),
(44,449,o),
(44,201,cs),
(44,126,o),
(65,57,o),
(142,57,c),
(132,95,o),
(130,130,o),
(130,157,cs),
(130,380,o),
(261,679,o),
(454,679,cs),
(551,679,o),
(591,604,o),
(591,496,cs),
(591,358,o),
(526,130,o),
(411,26,c),
(353,59,o),
(302,88,o),
(246,88,cs),
(184,88,o),
(164,53,o),
(164,26,cs),
(164,2,o),
(180,-64,o),
(283,-64,cs),
(321,-64,o),
(357,-55,o),
(390,-39,c),
(441,-80,o),
(495,-119,o),
(559,-119,cs)
);
},
{
closed = 1;
nodes = (
(211,-34,o),
(194,-2,o),
(194,19,cs),
(194,38,o),
(208,50,o),
(235,50,cs),
(276,50,o),
(315,22,o),
(354,-10,c),
(333,-20,o),
(301,-34,o),
(265,-34,cs)
);
}
);
userData = {
com.schriftgestaltung.hints = (
{
horizontal = 0;
options = 0;
place = (
44,
86
);
stem = -2;
},
{
horizontal = 0;
options = 0;
place = (
164,
30
);
stem = -2;
},
{
horizontal = 0;
options = 0;
place = (
591,
86
);
stem = -2;
},
{
horizontal = 1;
options = 0;
place = (
-119,
82
);
stem = -2;
},
{
horizontal = 1;
options = 0;
place = (
-64,
27
);
stem = -2;
},
{
horizontal = 1;
options = 0;
place = (
57,
31
);
stem = -2;
},
{
horizontal = 1;
options = 0;
place = (
679,
41
);
stem = -2;
},
{
horizontal = 1;
options = 0;
place = (
-34,
21
);
stem = -2;
target = (
u,
p
);
type = BottomGhost;
}
);
};
width = 728;
}
);
unicode = 81;
},
{
color = 6;
glyphname = R;
lastChange = "2024-08-30 21:26:48 +0000";
layers = (
{
anchors = (
{
name = bottom;
pos = (226,-49);
},
{
name = center;
pos = (220,475);
},
{
name = top;
pos = (381,715);
}
);
layerId = master01;
shapes = (
{
closed = 1;
nodes = (
(483,-121,o),
(507,-105,o),
(515,-88,c),
(344,51,o),
(290,175,o),
(208,316,c),
(277,316,o),
(581,335,o),
(581,533,cs),
(581,666,o),
(443,720,o),
(328,720,cs),
(238,720,o),
(154,687,o),
(103,665,c),
(103,655,o),
(126,638,o),
(134,638,cs),
(147,638,o),
(198,681,o),
(283,695,c),
(180,461,o),
(115,280,o),
(30,18,cs),
(24,1,o),
(16,-22,o),
(16,-37,cs),
(16,-66,o),
(48,-87,o),
(82,-87,c),
(112,15,o),
(147,146,o),
(185,277,c),
(245,136,o),
(389,-121,o),
(464,-121,cs)
);
},
{
closed = 1;
nodes = (
(243,472,o),
(289,607,o),
(335,699,c),
(425,699,o),
(514,663,o),
(514,554,cs),
(514,404,o),
(346,341,o),
(201,332,c)
);
}
);
userData = {
com.schriftgestaltung.hints = (
{
horizontal = 0;
options = 0;
place = (
514,
67
);
stem = -2;
},
{
horizontal = 1;
options = 0;
place = (
699,
21
);
stem = -2;
target = (
u,
p
);
type = BottomGhost;
},
{
horizontal = 1;
options = 0;
place = (
-121,
21
);
stem = -2;
target = (
u,
p
);
type = BottomGhost;
},
{
horizontal = 1;
options = 0;
place = (
316,
-20
);
stem = -2;
target = (
d,
o,
w,
n
);
type = TopGhost;
}
);
};
width = 577;
},
{
anchors = (
{
name = bottom;
pos = (261,-30);
},
{
name = center;
pos = (240,475);
},
{
name = top;
pos = (411,715);
}
);
layerId = master02;
shapes = (
{
closed = 1;
nodes = (
(526,-121,o),
(560,-104,o),
(566,-77,c),
(395,53,o),
(329,174,o),
(243,309,c),
(338,311,o),
(622,338,o),
(622,527,cs),
(622,666,o),
(470,720,o),
(349,720,cs),
(253,720,o),
(163,686,o),
(108,664,c),
(108,649,o),
(137,625,o),
(148,625,cs),
(162,625,o),
(211,663,o),
(290,679,c),
(177,420,o),
(141,316,o),
(45,25,cs),
(39,6,o),
(31,-15,o),
(31,-30,cs),
(31,-65,o),
(72,-88,o),
(111,-88,c),
(140,13,o),
(173,136,o),
(209,259,c),
(277,121,o),
(425,-121,o),
(505,-121,cs)
);
},
{
closed = 1;
nodes = (
(272,470,o),
(315,596,o),
(360,685,c),
(449,683,o),
(539,650,o),
(539,547,cs),
(539,411,o),
(381,350,o),
(232,339,c)
);
}
);
userData = {
com.schriftgestaltung.hints = (
{
horizontal = 0;
options = 0;
place = (
539,
83
);
stem = -2;
},
{
horizontal = 1;
options = 0;
place = (
685,
35
);
stem = -2;
},
{
horizontal = 1;
options = 0;
place = (
309,
30
);
stem = -2;
},
{
horizontal = 1;
options = 0;
place = (
-121,
21
);
stem = -2;
target = (
u,
p
);
type = BottomGhost;
}
);
};
width = 616;
}
);
unicode = 82;
},
{
color = 6;
glyphname = Rtail;
lastChange = "2024-08-30 21:42:04 +0000";
layers = (
{
anchors = (
{
name = bottom;
pos = (261,-30);
},
{
name = top;
pos = (411,715);
}
);
background = {
shapes = (
{
closed = 1;
nodes = (
(483,-121,o),
(507,-105,o),
(515,-88,c),
(344,51,o),
(290,175,o),
(208,316,c),
(277,316,o),
(581,335,o),
(581,533,cs),
(581,666,o),
(443,720,o),
(328,720,cs),
(238,720,o),
(154,687,o),
(103,665,c),
(103,655,o),
(126,638,o),
(134,638,cs),
(147,638,o),
(198,681,o),
(283,695,c),
(180,461,o),
(115,280,o),
(30,18,cs),
(24,1,o),
(16,-22,o),
(16,-37,cs),
(16,-66,o),
(48,-87,o),
(82,-87,c),
(112,15,o),
(147,146,o),
(185,277,c),
(245,136,o),
(389,-121,o),
(464,-121,cs)
);
}
);
};
layerId = master01;
shapes = (
{
closed = 1;
nodes = (
(198,-281,o),
(231,-260,o),
(215,-198,c),
(190,-236,o),
(72,-229,o),
(60,-193,cs),
(50,-164,o),
(82,-71,o),
(112,36,cs),
(136,120,o),
(152,167,o),
(185,277,c),
(245,136,o),
(389,-121,o),
(464,-121,cs),
(483,-121,o),
(507,-105,o),
(515,-88,c),
(344,51,o),
(290,175,o),
(208,316,c),
(277,316,o),
(581,335,o),
(581,533,cs),
(581,666,o),
(443,720,o),
(328,720,cs),
(266,720,o),
(224,707,o),
(173,685,c),
(184,676,o),
(194,673,o),
(204,673,cs),
(225,673,o),
(246,688,o),
(283,695,c),
(188,476,o),
(61,101,o),
(33,-14,cs),
(-9,-187,o),
(52,-281,o),
(151,-281,cs)
);
},
{
closed = 1;
nodes = (
(243,472,o),
(289,607,o),
(335,699,c),
(425,699,o),
(514,663,o),
(514,554,cs),
(514,404,o),
(346,341,o),
(201,332,c)
);
}
);
width = 577;
},
{
anchors = (
{
name = bottom;
pos = (261,-30);
},
{
name = top;
pos = (411,715);
}
);
background = {
shapes = (
{
closed = 1;
nodes = (
(526,-121,o),
(560,-104,o),
(566,-77,c),
(395,53,o),
(329,174,o),
(243,309,c),
(338,311,o),
(622,338,o),
(622,527,cs),
(622,666,o),
(470,720,o),
(349,720,cs),
(253,720,o),
(163,686,o),
(108,664,c),
(108,649,o),
(137,625,o),
(148,625,cs),
(162,625,o),
(211,663,o),
(290,679,c),
(177,420,o),
(141,316,o),
(45,25,cs),
(39,6,o),
(31,-15,o),
(31,-30,cs),
(31,-65,o),
(72,-88,o),
(111,-88,c),
(140,13,o),
(173,136,o),
(209,259,c),
(277,121,o),
(425,-121,o),
(505,-121,cs)
);
},
{
closed = 1;
nodes = (
(272,470,o),
(315,596,o),
(360,685,c),
(449,683,o),
(539,650,o),
(539,547,cs),
(539,411,o),
(381,350,o),
(232,339,c)
);
},
{
closed = 1;
nodes = (
(272,472,o),
(318,607,o),
(364,699,c),
(454,699,o),
(543,663,o),
(543,554,cs),
(543,404,o),
(375,341,o),
(230,332,c)
);
},
{
closed = 1;
nodes = (
(217,476,o),
(90,101,o),
(62,-14,cs),
(20,-187,o),
(81,-281,o),
(180,-281,cs),
(227,-281,o),
(260,-260,o),
(244,-198,c),
(219,-236,o),
(101,-229,o),
(89,-193,cs),
(79,-164,o),
(111,-71,o),
(141,36,cs),
(165,120,o),
(181,167,o),
(214,277,c),
(274,136,o),
(418,-121,o),
(493,-121,cs),
(512,-121,o),
(536,-105,o),
(544,-88,c),
(373,51,o),
(319,175,o),
(237,316,c),
(306,316,o),
(610,335,o),
(610,533,cs),
(610,666,o),
(472,720,o),
(357,720,cs),
(295,720,o),
(253,707,o),
(202,685,c),
(213,676,o),
(223,673,o),
(233,673,cs),
(254,673,o),
(275,688,o),
(312,695,c)
);
}
);
};
layerId = master02;
shapes = (
{
closed = 1;
nodes = (
(229,-280,o),
(283,-250,o),
(261,-178,c),
(219,-221,o),
(109,-218,o),
(94,-188,cs),
(86,-172,o),
(93,-125,o),
(125,-13,cs),
(153,84,o),
(189,196,o),
(209,259,c),
(277,121,o),
(425,-121,o),
(505,-121,cs),
(526,-121,o),
(560,-104,o),
(566,-77,c),
(395,53,o),
(329,174,o),
(243,309,c),
(341,311,o),
(622,338,o),
(622,529,cs),
(622,666,o),
(476,720,o),
(334,720,cs),
(279,720,o),
(224,712,o),
(178,693,c),
(178,679,o),
(201,654,o),
(215,654,cs),
(226,654,o),
(261,672,o),
(290,679,c),
(184,435,o),
(59,67,o),
(41,-54,cs),
(24,-169,o),
(71,-280,o),
(175,-280,cs)
);
},
{
closed = 1;
nodes = (
(272,470,o),
(315,596,o),
(360,685,c),
(449,683,o),
(539,650,o),
(539,547,cs),
(539,411,o),
(381,350,o),
(232,339,c)
);
}
);
width = 616;
},
{
associatedMasterId = master01;
background = {
shapes = (
{
closed = 1;
nodes = (
(483,-121,o),
(507,-105,o),
(515,-88,c),
(344,51,o),
(290,175,o),
(208,316,c),
(277,316,o),
(581,335,o),
(581,533,cs),
(581,666,o),
(443,720,o),
(328,720,cs),
(238,720,o),
(154,687,o),
(103,665,c),
(103,655,o),
(126,638,o),
(134,638,cs),
(147,638,o),
(198,681,o),
(283,695,c),
(180,461,o),
(115,280,o),
(30,18,cs),
(24,1,o),
(16,-22,o),
(16,-37,cs),
(16,-66,o),
(48,-87,o),
(82,-87,c),
(112,15,o),
(147,146,o),
(185,277,c),
(245,136,o),
(389,-121,o),
(464,-121,cs)
);
}
);
};
layerId = "4B36AF74-7CBD-4AA8-8DCD-21347E035CE1";
name = "29 Jun 24 15:56";
shapes = (
{
closed = 1;
nodes = (
(243,472,o),
(289,607,o),
(335,699,c),
(425,699,o),
(514,663,o),
(514,554,cs),
(514,404,o),
(346,341,o),
(201,332,c)
);
},
{
closed = 1;
nodes = (
(188,476,o),
(61,101,o),
(33,-14,cs),
(-9,-187,o),
(52,-281,o),
(151,-281,cs),
(198,-281,o),
(231,-260,o),
(215,-198,c),
(190,-236,o),
(72,-229,o),
(60,-193,cs),
(50,-164,o),
(82,-71,o),
(112,36,cs),
(136,120,o),
(152,167,o),
(185,277,c),
(245,136,o),
(389,-121,o),
(464,-121,cs),
(483,-121,o),
(507,-105,o),
(515,-88,c),
(344,51,o),
(290,175,o),
(208,316,c),
(277,316,o),
(581,335,o),
(581,533,cs),
(581,666,o),
(443,720,o),
(328,720,cs),
(238,720,o),
(154,687,o),
(103,665,c),
(103,655,o),
(126,638,o),
(134,638,cs),
(147,638,o),
(198,681,o),
(283,695,c)
);
}
);
width = 577;
}
);
unicode = 11364;
},
{
color = 6;
glyphname = S;
kernLeft = S;
kernRight = S;
lastChange = "2024-08-23 03:42:04 +0000";
layers = (
{
anchors = (
{
name = bottom;
pos = (213,-61);
},
{
name = top;
pos = (399,715);
}
);
layerId = master01;
shapes = (
{
closed = 1;
nodes = (
(326,-87,o),
(464,-12,o),
(464,126,cs),
(464,330,o),
(165,327,o),
(165,476,cs),
(165,559,o),
(259,696,o),
(385,696,cs),
(428,696,o),
(441,680,o),
(441,653,cs),
(441,595,o),
(382,499,o),
(382,443,cs),
(382,421,o),
(391,405,o),
(415,400,c),
(447,451,o),
(492,547,o),
(492,620,cs),
(492,677,o),
(465,720,o),
(387,720,cs),
(213,720,o),
(102,564,o),
(102,453,cs),
(102,274,o),
(406,270,o),
(406,98,cs),
(406,2,o),
(310,-48,o),
(220,-48,cs),
(116,-48,o),
(67,18,o),
(67,92,cs),
(67,138,o),
(86,187,o),
(122,226,c),
(67,226,o),
(-6,196,o),
(-6,92,cs),
(-6,-29,o),
(94,-87,o),
(203,-87,cs)
);
}
);
userData = {
com.schriftgestaltung.hints = (
{
horizontal = 0;
options = 0;
place = (
-6,
73
);
stem = -2;
},
{
horizontal = 0;
options = 0;
place = (
102,
63
);
stem = -2;
},
{
horizontal = 0;
options = 0;
place = (
382,
82
);
stem = -2;
},
{
horizontal = 0;
options = 0;
place = (
406,
58
);
stem = -2;
},
{
horizontal = 0;
options = 0;
place = (
441,
23
);
stem = -2;
},
{
horizontal = 0;
options = 0;
place = (
441,
51
);
stem = -2;
},
{
horizontal = 1;
options = 0;
place = (
-87,
39
);
stem = -2;
},
{
horizontal = 1;
options = 0;
place = (
696,
24
);
stem = -2;
}
);
};
width = 536;
},
{
anchors = (
{
name = bottom;
pos = (233,-61);
},
{
name = top;
pos = (419,715);
}
);
layerId = master02;
shapes = (
{
closed = 1;
nodes = (
(366,-87,o),
(507,-9,o),
(507,129,cs),
(507,336,o),
(188,332,o),
(188,476,cs),
(188,554,o),
(280,682,o),
(407,682,cs),
(449,682,o),
(460,668,o),
(460,644,cs),
(460,590,o),
(403,497,o),
(403,442,cs),
(403,414,o),
(418,397,o),
(447,391,c),
(481,444,o),
(527,540,o),
(527,615,cs),
(527,678,o),
(494,720,o),
(402,720,cs),
(225,720,o),
(111,563,o),
(111,453,cs),
(111,268,o),
(435,266,o),
(435,101,cs),
(435,12,o),
(340,-34,o),
(250,-34,cs),
(146,-34,o),
(93,28,o),
(93,96,cs),
(93,140,o),
(115,190,o),
(158,235,c),
(89,235,o),
(4,204,o),
(4,96,cs),
(4,-27,o),
(116,-87,o),
(233,-87,cs)
);
}
);
userData = {
com.schriftgestaltung.hints = (
{
horizontal = 0;
options = 0;
place = (
4,
89
);
stem = -2;
},
{
horizontal = 0;
options = 0;
place = (
111,
77
);
stem = -2;
},
{
horizontal = 0;
options = 0;
place = (
403,
104
);
stem = -2;
},
{
horizontal = 0;
options = 0;
place = (
435,
72
);
stem = -2;
},
{
horizontal = 0;
options = 0;
place = (
460,
47
);
stem = -2;
},
{
horizontal = 0;
options = 0;
place = (
460,
67
);
stem = -2;
},
{
horizontal = 1;
options = 0;
place = (
-87,
53
);
stem = -2;
},
{
horizontal = 1;
options = 0;
place = (
682,
38
);
stem = -2;
}
);
};
width = 567;
}
);
unicode = 83;
},
{
glyphname = Germandbls;
lastChange = "2024-07-24 17:39:18 +0000";
layers = (
{
layerId = master01;
shapes = (
{
closed = 1;
nodes = (
(364,-87,o),
(563,10,o),
(563,205,cs),
(563,284,o),
(541,387,o),
(335,396,c),
(418,446,o),
(491,496,o),
(536,552,cs),
(555,576,o),
(570,604,o),
(570,631,cs),
(570,689,o),
(510,720,o),
(425,720,cs),
(327,720,o),
(255,686,o),
(202,551,cs),
(135,382,o),
(69,181,o),
(-34,-151,cs),
(-39,-168,o),
(-48,-192,o),
(-48,-208,cs),
(-48,-235,o),
(-22,-256,o),
(11,-256,c),
(42,-151,o),
(159,244,o),
(191,354,cs),
(218,446,o),
(241,516,o),
(263,577,cs),
(297,672,o),
(341,693,o),
(413,693,cs),
(468,693,o),
(520,674,o),
(520,641,cs),
(520,619,o),
(508,597,o),
(494,577,cs),
(458,526,o),
(386,479,o),
(316,422,cs),
(307,414,o),
(302,408,o),
(302,399,cs),
(302,384,o),
(315,379,o),
(334,379,cs),
(423,379,o),
(516,343,o),
(516,223,cs),
(516,102,o),
(403,-14,o),
(248,-14,cs),
(190,-14,o),
(173,-4,o),
(164,-4,cs),
(161,-4,o),
(159,-5,o),
(159,-7,cs),
(159,-64,o),
(197,-87,o),
(260,-87,cs)
);
}
);
userData = {
com.schriftgestaltung.hints = (
{
horizontal = 0;
options = 0;
place = (
504,
59
);
stem = -2;
},
{
horizontal = 0;
options = 0;
place = (
516,
47
);
stem = -2;
},
{
horizontal = 1;
options = 0;
place = (
-87,
73
);
stem = -2;
},
{
horizontal = 1;
options = 0;
place = (
699,
21
);
stem = -2;
},
{
horizontal = 1;
options = 0;
place = (
348,
-20
);
stem = -2;
target = (
d,
o,
w,
n
);
type = TopGhost;
},
{
horizontal = 1;
options = 0;
place = (
349,
-20
);
stem = -2;
target = (
d,
o,
w,
n
);
type = TopGhost;
},
{
horizontal = 1;
options = 0;
place = (
-4,
21
);
stem = -2;
target = (
u,
p
);
type = BottomGhost;
}
);
};
width = 609;
},
{
background = {
shapes = (
{
closed = 1;
nodes = (
(283,-87,o),
(568,10,o),
(568,205,cs),
(568,277,o),
(539,369,o),
(363,378,c),
(434,434,o),
(493,495,o),
(536,552,cs),
(555,576,o),
(570,604,o),
(570,631,cs),
(570,679,o),
(506,720,o),
(425,720,cs),
(325,720,o),
(255,677,o),
(189,520,cs),
(123,363,o),
(59,177,o),
(44,131,cs),
(39,114,o),
(30,90,o),
(30,74,cs),
(30,46,o),
(63,24,o),
(104,24,c),
(134,132,o),
(165,243,o),
(199,354,cs),
(222,433,o),
(242,494,o),
(262,547,cs),
(299,646,o),
(357,685,o),
(425,685,cs),
(469,685,o),
(510,669,o),
(510,641,cs),
(510,619,o),
(500,597,o),
(486,577,cs),
(447,520,o),
(385,453,o),
(316,392,cs),
(307,384,o),
(303,378,o),
(303,370,cs),
(303,357,o),
(313,349,o),
(341,349,cs),
(428,349,o),
(506,320,o),
(506,229,cs),
(506,112,o),
(342,0,o),
(118,0,cs),
(49,0,o),
(32,9,o),
(20,9,cs),
(13,9,o),
(9,6,o),
(9,-1,cs),
(9,-62,o),
(52,-87,o),
(133,-87,cs)
);
}
);
};
layerId = master02;
shapes = (
{
closed = 1;
nodes = (
(283,-87,o),
(568,10,o),
(568,205,cs),
(568,277,o),
(539,369,o),
(363,378,c),
(434,434,o),
(493,495,o),
(536,552,cs),
(555,576,o),
(570,604,o),
(570,631,cs),
(570,679,o),
(506,720,o),
(425,720,cs),
(325,720,o),
(255,677,o),
(189,520,cs),
(123,363,o),
(59,177,o),
(44,131,cs),
(39,114,o),
(30,90,o),
(30,74,cs),
(30,46,o),
(63,24,o),
(104,24,c),
(134,132,o),
(165,243,o),
(199,354,cs),
(222,433,o),
(242,494,o),
(262,547,cs),
(299,646,o),
(357,685,o),
(425,685,cs),
(469,685,o),
(510,669,o),
(510,641,cs),
(510,619,o),
(500,597,o),
(486,577,cs),
(447,520,o),
(385,453,o),
(316,392,cs),
(307,384,o),
(303,378,o),
(303,370,cs),
(303,357,o),
(313,349,o),
(341,349,cs),
(428,349,o),
(506,320,o),
(506,229,cs),
(506,112,o),
(342,0,o),
(118,0,cs),
(49,0,o),
(32,9,o),
(20,9,cs),
(13,9,o),
(9,6,o),
(9,-1,cs),
(9,-62,o),
(52,-87,o),
(133,-87,cs)
);
}
);
width = 600;
},
{
associatedMasterId = master02;
background = {
shapes = (
{
closed = 1;
nodes = (
(283,-87,o),
(568,10,o),
(568,205,cs),
(568,277,o),
(539,369,o),
(363,378,c),
(434,434,o),
(493,495,o),
(536,552,cs),
(555,576,o),
(570,604,o),
(570,631,cs),
(570,679,o),
(506,720,o),
(425,720,cs),
(325,720,o),
(255,677,o),
(189,520,cs),
(123,363,o),
(59,177,o),
(44,131,cs),
(39,114,o),
(30,90,o),
(30,74,cs),
(30,46,o),
(63,24,o),
(104,24,c),
(134,132,o),
(165,243,o),
(199,354,cs),
(222,433,o),
(242,494,o),
(262,547,cs),
(299,646,o),
(357,685,o),
(425,685,cs),
(469,685,o),
(510,669,o),
(510,641,cs),
(510,619,o),
(500,597,o),
(486,577,cs),
(447,520,o),
(385,453,o),
(316,392,cs),
(307,384,o),
(303,378,o),
(303,370,cs),
(303,357,o),
(313,349,o),
(341,349,cs),
(428,349,o),
(506,320,o),
(506,229,cs),
(506,112,o),
(342,0,o),
(118,0,cs),
(49,0,o),
(32,9,o),
(20,9,cs),
(13,9,o),
(9,6,o),
(9,-1,cs),
(9,-62,o),
(52,-87,o),
(133,-87,cs)
);
},
{
closed = 1;
nodes = (
(375,-87,o),
(574,10,o),
(574,205,cs),
(574,284,o),
(552,387,o),
(346,396,c),
(429,446,o),
(502,496,o),
(547,552,cs),
(566,576,o),
(581,604,o),
(581,631,cs),
(581,689,o),
(521,720,o),
(436,720,cs),
(338,720,o),
(266,686,o),
(213,551,cs),
(146,382,o),
(80,181,o),
(-23,-151,cs),
(-28,-168,o),
(-37,-192,o),
(-37,-208,cs),
(-37,-235,o),
(-11,-256,o),
(22,-256,c),
(53,-151,o),
(170,244,o),
(202,354,cs),
(229,446,o),
(252,516,o),
(274,577,cs),
(308,672,o),
(352,693,o),
(424,693,cs),
(479,693,o),
(531,674,o),
(531,641,cs),
(531,619,o),
(519,597,o),
(505,577,cs),
(469,526,o),
(397,479,o),
(327,422,cs),
(318,414,o),
(313,408,o),
(313,399,cs),
(313,384,o),
(326,379,o),
(345,379,cs),
(434,379,o),
(527,343,o),
(527,223,cs),
(527,102,o),
(414,-14,o),
(259,-14,cs),
(201,-14,o),
(184,-4,o),
(175,-4,cs),
(172,-4,o),
(170,-5,o),
(170,-7,cs),
(170,-64,o),
(208,-87,o),
(271,-87,cs)
);
}
);
};
layerId = "867D11CF-19D8-48FF-89F9-75F6520A0CD7";
name = "30 Jun 24 09:23";
shapes = (
{
closed = 1;
nodes = (
(388,-87,o),
(568,10,o),
(568,205,cs),
(568,282,o),
(540,381,o),
(367,391,c),
(436,443,o),
(495,498,o),
(536,552,cs),
(555,576,o),
(570,604,o),
(570,631,cs),
(570,679,o),
(506,720,o),
(425,720,cs),
(325,720,o),
(255,677,o),
(189,520,cs),
(78,257,o),
(-10,-64,o),
(-35,-141,cs),
(-40,-158,o),
(-49,-182,o),
(-49,-198,cs),
(-49,-226,o),
(-16,-248,o),
(25,-248,c),
(79,-51,o),
(136,151,o),
(199,354,cs),
(223,433,o),
(242,494,o),
(262,547,cs),
(299,646,o),
(357,685,o),
(425,685,cs),
(469,685,o),
(510,669,o),
(510,641,cs),
(510,619,o),
(500,597,o),
(486,577,cs),
(449,523,o),
(386,463,o),
(320,405,cs),
(311,397,o),
(307,391,o),
(307,383,cs),
(307,370,o),
(317,362,o),
(345,362,cs),
(430,362,o),
(506,330,o),
(506,229,cs),
(506,112,o),
(410,0,o),
(278,0,cs),
(209,0,o),
(192,9,o),
(180,9,cs),
(173,9,o),
(169,6,o),
(169,-1,cs),
(169,-62,o),
(212,-87,o),
(293,-87,cs)
);
}
);
width = 600;
},
{
associatedMasterId = master01;
layerId = "A0E275C6-E07E-4582-A1C5-3439933CC0E0";
name = "30 Jun 24 09:23";
shapes = (
{
closed = 1;
nodes = (
(279,-87,o),
(563,10,o),
(563,205,cs),
(563,272,o),
(531,358,o),
(335,366,c),
(418,426,o),
(486,490,o),
(536,552,cs),
(555,576,o),
(570,604,o),
(570,631,cs),
(570,689,o),
(510,720,o),
(425,720,cs),
(327,720,o),
(255,686,o),
(202,551,cs),
(135,382,o),
(69,181,o),
(54,131,cs),
(49,114,o),
(40,90,o),
(40,74,cs),
(40,47,o),
(66,26,o),
(99,26,c),
(130,131,o),
(159,244,o),
(191,354,cs),
(218,446,o),
(241,516,o),
(263,577,cs),
(297,672,o),
(341,693,o),
(413,693,cs),
(468,693,o),
(520,674,o),
(520,641,cs),
(520,619,o),
(508,597,o),
(494,577,cs),
(454,520,o),
(391,453,o),
(316,392,cs),
(307,384,o),
(302,378,o),
(302,369,cs),
(302,354,o),
(315,349,o),
(334,349,cs),
(423,349,o),
(516,328,o),
(516,223,cs),
(516,102,o),
(348,-14,o),
(118,-14,cs),
(50,-14,o),
(33,-4,o),
(24,-4,cs),
(21,-4,o),
(19,-5,o),
(19,-7,cs),
(19,-64,o),
(57,-87,o),
(130,-87,cs)
);
}
);
userData = {
com.schriftgestaltung.hints = (
{
horizontal = 0;
options = 0;
place = (
504,
59
);
stem = -2;
},
{
horizontal = 0;
options = 0;
place = (
516,
47
);
stem = -2;
},
{
horizontal = 1;
options = 0;
place = (
-87,
73
);
stem = -2;
},
{
horizontal = 1;
options = 0;
place = (
699,
21
);
stem = -2;
},
{
horizontal = 1;
options = 0;
place = (
348,
-20
);
stem = -2;
target = (
d,
o,
w,
n
);
type = TopGhost;
},
{
horizontal = 1;
options = 0;
place = (
349,
-20
);
stem = -2;
target = (
d,
o,
w,
n
);
type = TopGhost;
},
{
horizontal = 1;
options = 0;
place = (
-4,
21
);
stem = -2;
target = (
u,
p
);
type = BottomGhost;
}
);
};
width = 609;
}
);
unicode = 7838;
},
